G04 #@! TF.GenerationSoftware,KiCad,Pcbnew,(5.1.5)-3*
G04 #@! TF.CreationDate,2020-10-27T23:36:23+01:00*
G04 #@! TF.ProjectId,error_amplifier_1,6572726f-725f-4616-9d70-6c6966696572,rev?*
G04 #@! TF.SameCoordinates,Original*
G04 #@! TF.FileFunction,Soldermask,Top*
G04 #@! TF.FilePolarity,Negative*
%FSLAX46Y46*%
G04 Gerber Fmt 4.6, Leading zero omitted, Abs format (unit mm)*
G04 Created by KiCad (PCBNEW (5.1.5)-3) date 2020-10-27 23:36:23*
%MOMM*%
%LPD*%
G04 APERTURE LIST*
%ADD10C,0.100000*%
G04 APERTURE END LIST*
D10*
G36*
X119849499Y-155798445D02*
G01*
X119886995Y-155809820D01*
X119921554Y-155828292D01*
X119951847Y-155853153D01*
X119976708Y-155883446D01*
X119995180Y-155918005D01*
X120006555Y-155955501D01*
X120011000Y-156000638D01*
X120011000Y-156639362D01*
X120006555Y-156684499D01*
X119995180Y-156721995D01*
X119976708Y-156756554D01*
X119951847Y-156786847D01*
X119921554Y-156811708D01*
X119886995Y-156830180D01*
X119849499Y-156841555D01*
X119804362Y-156846000D01*
X119065638Y-156846000D01*
X119020501Y-156841555D01*
X118983005Y-156830180D01*
X118948446Y-156811708D01*
X118918153Y-156786847D01*
X118893292Y-156756554D01*
X118874820Y-156721995D01*
X118863445Y-156684499D01*
X118859000Y-156639362D01*
X118859000Y-156000638D01*
X118863445Y-155955501D01*
X118874820Y-155918005D01*
X118893292Y-155883446D01*
X118918153Y-155853153D01*
X118948446Y-155828292D01*
X118983005Y-155809820D01*
X119020501Y-155798445D01*
X119065638Y-155794000D01*
X119804362Y-155794000D01*
X119849499Y-155798445D01*
G37*
G36*
X118099499Y-155798445D02*
G01*
X118136995Y-155809820D01*
X118171554Y-155828292D01*
X118201847Y-155853153D01*
X118226708Y-155883446D01*
X118245180Y-155918005D01*
X118256555Y-155955501D01*
X118261000Y-156000638D01*
X118261000Y-156639362D01*
X118256555Y-156684499D01*
X118245180Y-156721995D01*
X118226708Y-156756554D01*
X118201847Y-156786847D01*
X118171554Y-156811708D01*
X118136995Y-156830180D01*
X118099499Y-156841555D01*
X118054362Y-156846000D01*
X117315638Y-156846000D01*
X117270501Y-156841555D01*
X117233005Y-156830180D01*
X117198446Y-156811708D01*
X117168153Y-156786847D01*
X117143292Y-156756554D01*
X117124820Y-156721995D01*
X117113445Y-156684499D01*
X117109000Y-156639362D01*
X117109000Y-156000638D01*
X117113445Y-155955501D01*
X117124820Y-155918005D01*
X117143292Y-155883446D01*
X117168153Y-155853153D01*
X117198446Y-155828292D01*
X117233005Y-155809820D01*
X117270501Y-155798445D01*
X117315638Y-155794000D01*
X118054362Y-155794000D01*
X118099499Y-155798445D01*
G37*
G36*
X116489499Y-155798445D02*
G01*
X116526995Y-155809820D01*
X116561554Y-155828292D01*
X116591847Y-155853153D01*
X116616708Y-155883446D01*
X116635180Y-155918005D01*
X116646555Y-155955501D01*
X116651000Y-156000638D01*
X116651000Y-156639362D01*
X116646555Y-156684499D01*
X116635180Y-156721995D01*
X116616708Y-156756554D01*
X116591847Y-156786847D01*
X116561554Y-156811708D01*
X116526995Y-156830180D01*
X116489499Y-156841555D01*
X116444362Y-156846000D01*
X115705638Y-156846000D01*
X115660501Y-156841555D01*
X115623005Y-156830180D01*
X115588446Y-156811708D01*
X115558153Y-156786847D01*
X115533292Y-156756554D01*
X115514820Y-156721995D01*
X115503445Y-156684499D01*
X115499000Y-156639362D01*
X115499000Y-156000638D01*
X115503445Y-155955501D01*
X115514820Y-155918005D01*
X115533292Y-155883446D01*
X115558153Y-155853153D01*
X115588446Y-155828292D01*
X115623005Y-155809820D01*
X115660501Y-155798445D01*
X115705638Y-155794000D01*
X116444362Y-155794000D01*
X116489499Y-155798445D01*
G37*
G36*
X114739499Y-155798445D02*
G01*
X114776995Y-155809820D01*
X114811554Y-155828292D01*
X114841847Y-155853153D01*
X114866708Y-155883446D01*
X114885180Y-155918005D01*
X114896555Y-155955501D01*
X114901000Y-156000638D01*
X114901000Y-156639362D01*
X114896555Y-156684499D01*
X114885180Y-156721995D01*
X114866708Y-156756554D01*
X114841847Y-156786847D01*
X114811554Y-156811708D01*
X114776995Y-156830180D01*
X114739499Y-156841555D01*
X114694362Y-156846000D01*
X113955638Y-156846000D01*
X113910501Y-156841555D01*
X113873005Y-156830180D01*
X113838446Y-156811708D01*
X113808153Y-156786847D01*
X113783292Y-156756554D01*
X113764820Y-156721995D01*
X113753445Y-156684499D01*
X113749000Y-156639362D01*
X113749000Y-156000638D01*
X113753445Y-155955501D01*
X113764820Y-155918005D01*
X113783292Y-155883446D01*
X113808153Y-155853153D01*
X113838446Y-155828292D01*
X113873005Y-155809820D01*
X113910501Y-155798445D01*
X113955638Y-155794000D01*
X114694362Y-155794000D01*
X114739499Y-155798445D01*
G37*
G36*
X127634239Y-149211467D02*
G01*
X127948282Y-149273934D01*
X128539926Y-149519001D01*
X129072392Y-149874784D01*
X129525216Y-150327608D01*
X129880999Y-150860074D01*
X130126066Y-151451718D01*
X130126066Y-151451719D01*
X130251000Y-152079803D01*
X130251000Y-152720197D01*
X130200445Y-152974353D01*
X130126066Y-153348282D01*
X129880999Y-153939926D01*
X129633265Y-154310685D01*
X129525217Y-154472391D01*
X129072391Y-154925217D01*
X129021289Y-154959362D01*
X128539926Y-155280999D01*
X127948282Y-155526066D01*
X127634239Y-155588533D01*
X127320197Y-155651000D01*
X126679803Y-155651000D01*
X126365761Y-155588533D01*
X126051718Y-155526066D01*
X125460074Y-155280999D01*
X124978711Y-154959362D01*
X124927609Y-154925217D01*
X124474783Y-154472391D01*
X124366735Y-154310685D01*
X124119001Y-153939926D01*
X123873934Y-153348282D01*
X123799555Y-152974353D01*
X123749000Y-152720197D01*
X123749000Y-152079803D01*
X123873934Y-151451719D01*
X123873934Y-151451718D01*
X124119001Y-150860074D01*
X124474784Y-150327608D01*
X124927608Y-149874784D01*
X125460074Y-149519001D01*
X126051718Y-149273934D01*
X126365761Y-149211467D01*
X126679803Y-149149000D01*
X127320197Y-149149000D01*
X127634239Y-149211467D01*
G37*
G36*
X102234239Y-149211467D02*
G01*
X102548282Y-149273934D01*
X103139926Y-149519001D01*
X103672392Y-149874784D01*
X104125216Y-150327608D01*
X104480999Y-150860074D01*
X104726066Y-151451718D01*
X104726066Y-151451719D01*
X104851000Y-152079803D01*
X104851000Y-152720197D01*
X104800445Y-152974353D01*
X104726066Y-153348282D01*
X104480999Y-153939926D01*
X104233265Y-154310685D01*
X104125217Y-154472391D01*
X103672391Y-154925217D01*
X103621289Y-154959362D01*
X103139926Y-155280999D01*
X102548282Y-155526066D01*
X102234239Y-155588533D01*
X101920197Y-155651000D01*
X101279803Y-155651000D01*
X100965761Y-155588533D01*
X100651718Y-155526066D01*
X100060074Y-155280999D01*
X99578711Y-154959362D01*
X99527609Y-154925217D01*
X99074783Y-154472391D01*
X98966735Y-154310685D01*
X98719001Y-153939926D01*
X98473934Y-153348282D01*
X98399555Y-152974353D01*
X98349000Y-152720197D01*
X98349000Y-152079803D01*
X98473934Y-151451719D01*
X98473934Y-151451718D01*
X98719001Y-150860074D01*
X99074784Y-150327608D01*
X99527608Y-149874784D01*
X100060074Y-149519001D01*
X100651718Y-149273934D01*
X100965761Y-149211467D01*
X101279803Y-149149000D01*
X101920197Y-149149000D01*
X102234239Y-149211467D01*
G37*
G36*
X118039499Y-154118445D02*
G01*
X118076995Y-154129820D01*
X118111554Y-154148292D01*
X118141847Y-154173153D01*
X118166708Y-154203446D01*
X118185180Y-154238005D01*
X118196555Y-154275501D01*
X118201000Y-154320638D01*
X118201000Y-154959362D01*
X118196555Y-155004499D01*
X118185180Y-155041995D01*
X118166708Y-155076554D01*
X118141847Y-155106847D01*
X118111554Y-155131708D01*
X118076995Y-155150180D01*
X118039499Y-155161555D01*
X117994362Y-155166000D01*
X117255638Y-155166000D01*
X117210501Y-155161555D01*
X117173005Y-155150180D01*
X117138446Y-155131708D01*
X117108153Y-155106847D01*
X117083292Y-155076554D01*
X117064820Y-155041995D01*
X117053445Y-155004499D01*
X117049000Y-154959362D01*
X117049000Y-154320638D01*
X117053445Y-154275501D01*
X117064820Y-154238005D01*
X117083292Y-154203446D01*
X117108153Y-154173153D01*
X117138446Y-154148292D01*
X117173005Y-154129820D01*
X117210501Y-154118445D01*
X117255638Y-154114000D01*
X117994362Y-154114000D01*
X118039499Y-154118445D01*
G37*
G36*
X114739499Y-154118445D02*
G01*
X114776995Y-154129820D01*
X114811554Y-154148292D01*
X114841847Y-154173153D01*
X114866708Y-154203446D01*
X114885180Y-154238005D01*
X114896555Y-154275501D01*
X114901000Y-154320638D01*
X114901000Y-154959362D01*
X114896555Y-155004499D01*
X114885180Y-155041995D01*
X114866708Y-155076554D01*
X114841847Y-155106847D01*
X114811554Y-155131708D01*
X114776995Y-155150180D01*
X114739499Y-155161555D01*
X114694362Y-155166000D01*
X113955638Y-155166000D01*
X113910501Y-155161555D01*
X113873005Y-155150180D01*
X113838446Y-155131708D01*
X113808153Y-155106847D01*
X113783292Y-155076554D01*
X113764820Y-155041995D01*
X113753445Y-155004499D01*
X113749000Y-154959362D01*
X113749000Y-154320638D01*
X113753445Y-154275501D01*
X113764820Y-154238005D01*
X113783292Y-154203446D01*
X113808153Y-154173153D01*
X113838446Y-154148292D01*
X113873005Y-154129820D01*
X113910501Y-154118445D01*
X113955638Y-154114000D01*
X114694362Y-154114000D01*
X114739499Y-154118445D01*
G37*
G36*
X116489499Y-154118445D02*
G01*
X116526995Y-154129820D01*
X116561554Y-154148292D01*
X116591847Y-154173153D01*
X116616708Y-154203446D01*
X116635180Y-154238005D01*
X116646555Y-154275501D01*
X116651000Y-154320638D01*
X116651000Y-154959362D01*
X116646555Y-155004499D01*
X116635180Y-155041995D01*
X116616708Y-155076554D01*
X116591847Y-155106847D01*
X116561554Y-155131708D01*
X116526995Y-155150180D01*
X116489499Y-155161555D01*
X116444362Y-155166000D01*
X115705638Y-155166000D01*
X115660501Y-155161555D01*
X115623005Y-155150180D01*
X115588446Y-155131708D01*
X115558153Y-155106847D01*
X115533292Y-155076554D01*
X115514820Y-155041995D01*
X115503445Y-155004499D01*
X115499000Y-154959362D01*
X115499000Y-154320638D01*
X115503445Y-154275501D01*
X115514820Y-154238005D01*
X115533292Y-154203446D01*
X115558153Y-154173153D01*
X115588446Y-154148292D01*
X115623005Y-154129820D01*
X115660501Y-154118445D01*
X115705638Y-154114000D01*
X116444362Y-154114000D01*
X116489499Y-154118445D01*
G37*
G36*
X119789499Y-154118445D02*
G01*
X119826995Y-154129820D01*
X119861554Y-154148292D01*
X119891847Y-154173153D01*
X119916708Y-154203446D01*
X119935180Y-154238005D01*
X119946555Y-154275501D01*
X119951000Y-154320638D01*
X119951000Y-154959362D01*
X119946555Y-155004499D01*
X119935180Y-155041995D01*
X119916708Y-155076554D01*
X119891847Y-155106847D01*
X119861554Y-155131708D01*
X119826995Y-155150180D01*
X119789499Y-155161555D01*
X119744362Y-155166000D01*
X119005638Y-155166000D01*
X118960501Y-155161555D01*
X118923005Y-155150180D01*
X118888446Y-155131708D01*
X118858153Y-155106847D01*
X118833292Y-155076554D01*
X118814820Y-155041995D01*
X118803445Y-155004499D01*
X118799000Y-154959362D01*
X118799000Y-154320638D01*
X118803445Y-154275501D01*
X118814820Y-154238005D01*
X118833292Y-154203446D01*
X118858153Y-154173153D01*
X118888446Y-154148292D01*
X118923005Y-154129820D01*
X118960501Y-154118445D01*
X119005638Y-154114000D01*
X119744362Y-154114000D01*
X119789499Y-154118445D01*
G37*
G36*
X110121000Y-153301000D02*
G01*
X108319000Y-153301000D01*
X108319000Y-151499000D01*
X110121000Y-151499000D01*
X110121000Y-153301000D01*
G37*
G36*
X111873512Y-151503927D02*
G01*
X112022812Y-151533624D01*
X112186784Y-151601544D01*
X112334354Y-151700147D01*
X112459853Y-151825646D01*
X112558456Y-151973216D01*
X112626376Y-152137188D01*
X112661000Y-152311259D01*
X112661000Y-152488741D01*
X112626376Y-152662812D01*
X112558456Y-152826784D01*
X112459853Y-152974354D01*
X112334354Y-153099853D01*
X112186784Y-153198456D01*
X112022812Y-153266376D01*
X111873512Y-153296073D01*
X111848742Y-153301000D01*
X111671258Y-153301000D01*
X111646488Y-153296073D01*
X111497188Y-153266376D01*
X111333216Y-153198456D01*
X111185646Y-153099853D01*
X111060147Y-152974354D01*
X110961544Y-152826784D01*
X110893624Y-152662812D01*
X110859000Y-152488741D01*
X110859000Y-152311259D01*
X110893624Y-152137188D01*
X110961544Y-151973216D01*
X111060147Y-151825646D01*
X111185646Y-151700147D01*
X111333216Y-151601544D01*
X111497188Y-151533624D01*
X111646488Y-151503927D01*
X111671258Y-151499000D01*
X111848742Y-151499000D01*
X111873512Y-151503927D01*
G37*
G36*
X114413512Y-151503927D02*
G01*
X114562812Y-151533624D01*
X114726784Y-151601544D01*
X114874354Y-151700147D01*
X114999853Y-151825646D01*
X115098456Y-151973216D01*
X115166376Y-152137188D01*
X115201000Y-152311259D01*
X115201000Y-152488741D01*
X115166376Y-152662812D01*
X115098456Y-152826784D01*
X114999853Y-152974354D01*
X114874354Y-153099853D01*
X114726784Y-153198456D01*
X114562812Y-153266376D01*
X114413512Y-153296073D01*
X114388742Y-153301000D01*
X114211258Y-153301000D01*
X114186488Y-153296073D01*
X114037188Y-153266376D01*
X113873216Y-153198456D01*
X113725646Y-153099853D01*
X113600147Y-152974354D01*
X113501544Y-152826784D01*
X113433624Y-152662812D01*
X113399000Y-152488741D01*
X113399000Y-152311259D01*
X113433624Y-152137188D01*
X113501544Y-151973216D01*
X113600147Y-151825646D01*
X113725646Y-151700147D01*
X113873216Y-151601544D01*
X114037188Y-151533624D01*
X114186488Y-151503927D01*
X114211258Y-151499000D01*
X114388742Y-151499000D01*
X114413512Y-151503927D01*
G37*
G36*
X119493512Y-151503927D02*
G01*
X119642812Y-151533624D01*
X119806784Y-151601544D01*
X119954354Y-151700147D01*
X120079853Y-151825646D01*
X120178456Y-151973216D01*
X120246376Y-152137188D01*
X120281000Y-152311259D01*
X120281000Y-152488741D01*
X120246376Y-152662812D01*
X120178456Y-152826784D01*
X120079853Y-152974354D01*
X119954354Y-153099853D01*
X119806784Y-153198456D01*
X119642812Y-153266376D01*
X119493512Y-153296073D01*
X119468742Y-153301000D01*
X119291258Y-153301000D01*
X119266488Y-153296073D01*
X119117188Y-153266376D01*
X118953216Y-153198456D01*
X118805646Y-153099853D01*
X118680147Y-152974354D01*
X118581544Y-152826784D01*
X118513624Y-152662812D01*
X118479000Y-152488741D01*
X118479000Y-152311259D01*
X118513624Y-152137188D01*
X118581544Y-151973216D01*
X118680147Y-151825646D01*
X118805646Y-151700147D01*
X118953216Y-151601544D01*
X119117188Y-151533624D01*
X119266488Y-151503927D01*
X119291258Y-151499000D01*
X119468742Y-151499000D01*
X119493512Y-151503927D01*
G37*
G36*
X116953512Y-151503927D02*
G01*
X117102812Y-151533624D01*
X117266784Y-151601544D01*
X117414354Y-151700147D01*
X117539853Y-151825646D01*
X117638456Y-151973216D01*
X117706376Y-152137188D01*
X117741000Y-152311259D01*
X117741000Y-152488741D01*
X117706376Y-152662812D01*
X117638456Y-152826784D01*
X117539853Y-152974354D01*
X117414354Y-153099853D01*
X117266784Y-153198456D01*
X117102812Y-153266376D01*
X116953512Y-153296073D01*
X116928742Y-153301000D01*
X116751258Y-153301000D01*
X116726488Y-153296073D01*
X116577188Y-153266376D01*
X116413216Y-153198456D01*
X116265646Y-153099853D01*
X116140147Y-152974354D01*
X116041544Y-152826784D01*
X115973624Y-152662812D01*
X115939000Y-152488741D01*
X115939000Y-152311259D01*
X115973624Y-152137188D01*
X116041544Y-151973216D01*
X116140147Y-151825646D01*
X116265646Y-151700147D01*
X116413216Y-151601544D01*
X116577188Y-151533624D01*
X116726488Y-151503927D01*
X116751258Y-151499000D01*
X116928742Y-151499000D01*
X116953512Y-151503927D01*
G37*
G36*
X113775997Y-145733051D02*
G01*
X113809652Y-145743261D01*
X113840665Y-145759838D01*
X113867851Y-145782149D01*
X113890162Y-145809335D01*
X113906739Y-145840348D01*
X113916949Y-145874003D01*
X113921000Y-145915138D01*
X113921000Y-147244862D01*
X113916949Y-147285997D01*
X113906739Y-147319652D01*
X113890162Y-147350665D01*
X113867851Y-147377851D01*
X113840665Y-147400162D01*
X113809652Y-147416739D01*
X113775997Y-147426949D01*
X113734862Y-147431000D01*
X110505138Y-147431000D01*
X110464003Y-147426949D01*
X110430348Y-147416739D01*
X110399335Y-147400162D01*
X110372149Y-147377851D01*
X110349838Y-147350665D01*
X110333261Y-147319652D01*
X110323051Y-147285997D01*
X110319000Y-147244862D01*
X110319000Y-145915138D01*
X110323051Y-145874003D01*
X110333261Y-145840348D01*
X110349838Y-145809335D01*
X110372149Y-145782149D01*
X110399335Y-145759838D01*
X110430348Y-145743261D01*
X110464003Y-145733051D01*
X110505138Y-145729000D01*
X113734862Y-145729000D01*
X113775997Y-145733051D01*
G37*
G36*
X108175997Y-145733051D02*
G01*
X108209652Y-145743261D01*
X108240665Y-145759838D01*
X108267851Y-145782149D01*
X108290162Y-145809335D01*
X108306739Y-145840348D01*
X108316949Y-145874003D01*
X108321000Y-145915138D01*
X108321000Y-147244862D01*
X108316949Y-147285997D01*
X108306739Y-147319652D01*
X108290162Y-147350665D01*
X108267851Y-147377851D01*
X108240665Y-147400162D01*
X108209652Y-147416739D01*
X108175997Y-147426949D01*
X108134862Y-147431000D01*
X104905138Y-147431000D01*
X104864003Y-147426949D01*
X104830348Y-147416739D01*
X104799335Y-147400162D01*
X104772149Y-147377851D01*
X104749838Y-147350665D01*
X104733261Y-147319652D01*
X104723051Y-147285997D01*
X104719000Y-147244862D01*
X104719000Y-145915138D01*
X104723051Y-145874003D01*
X104733261Y-145840348D01*
X104749838Y-145809335D01*
X104772149Y-145782149D01*
X104799335Y-145759838D01*
X104830348Y-145743261D01*
X104864003Y-145733051D01*
X104905138Y-145729000D01*
X108134862Y-145729000D01*
X108175997Y-145733051D01*
G37*
G36*
X124195997Y-145733051D02*
G01*
X124229652Y-145743261D01*
X124260665Y-145759838D01*
X124287851Y-145782149D01*
X124310162Y-145809335D01*
X124326739Y-145840348D01*
X124336949Y-145874003D01*
X124341000Y-145915138D01*
X124341000Y-147244862D01*
X124336949Y-147285997D01*
X124326739Y-147319652D01*
X124310162Y-147350665D01*
X124287851Y-147377851D01*
X124260665Y-147400162D01*
X124229652Y-147416739D01*
X124195997Y-147426949D01*
X124154862Y-147431000D01*
X120925138Y-147431000D01*
X120884003Y-147426949D01*
X120850348Y-147416739D01*
X120819335Y-147400162D01*
X120792149Y-147377851D01*
X120769838Y-147350665D01*
X120753261Y-147319652D01*
X120743051Y-147285997D01*
X120739000Y-147244862D01*
X120739000Y-145915138D01*
X120743051Y-145874003D01*
X120753261Y-145840348D01*
X120769838Y-145809335D01*
X120792149Y-145782149D01*
X120819335Y-145759838D01*
X120850348Y-145743261D01*
X120884003Y-145733051D01*
X120925138Y-145729000D01*
X124154862Y-145729000D01*
X124195997Y-145733051D01*
G37*
G36*
X118595997Y-145733051D02*
G01*
X118629652Y-145743261D01*
X118660665Y-145759838D01*
X118687851Y-145782149D01*
X118710162Y-145809335D01*
X118726739Y-145840348D01*
X118736949Y-145874003D01*
X118741000Y-145915138D01*
X118741000Y-147244862D01*
X118736949Y-147285997D01*
X118726739Y-147319652D01*
X118710162Y-147350665D01*
X118687851Y-147377851D01*
X118660665Y-147400162D01*
X118629652Y-147416739D01*
X118595997Y-147426949D01*
X118554862Y-147431000D01*
X115325138Y-147431000D01*
X115284003Y-147426949D01*
X115250348Y-147416739D01*
X115219335Y-147400162D01*
X115192149Y-147377851D01*
X115169838Y-147350665D01*
X115153261Y-147319652D01*
X115143051Y-147285997D01*
X115139000Y-147244862D01*
X115139000Y-145915138D01*
X115143051Y-145874003D01*
X115153261Y-145840348D01*
X115169838Y-145809335D01*
X115192149Y-145782149D01*
X115219335Y-145759838D01*
X115250348Y-145743261D01*
X115284003Y-145733051D01*
X115325138Y-145729000D01*
X118554862Y-145729000D01*
X118595997Y-145733051D01*
G37*
G36*
X101623241Y-141304760D02*
G01*
X101887305Y-141414139D01*
X102124958Y-141572934D01*
X102327066Y-141775042D01*
X102485861Y-142012695D01*
X102595240Y-142276759D01*
X102651000Y-142557088D01*
X102651000Y-142842912D01*
X102595240Y-143123241D01*
X102485861Y-143387305D01*
X102327066Y-143624958D01*
X102124958Y-143827066D01*
X101887305Y-143985861D01*
X101623241Y-144095240D01*
X101342912Y-144151000D01*
X101057088Y-144151000D01*
X100776759Y-144095240D01*
X100512695Y-143985861D01*
X100275042Y-143827066D01*
X100072934Y-143624958D01*
X99914139Y-143387305D01*
X99804760Y-143123241D01*
X99749000Y-142842912D01*
X99749000Y-142557088D01*
X99804760Y-142276759D01*
X99914139Y-142012695D01*
X100072934Y-141775042D01*
X100275042Y-141572934D01*
X100512695Y-141414139D01*
X100776759Y-141304760D01*
X101057088Y-141249000D01*
X101342912Y-141249000D01*
X101623241Y-141304760D01*
G37*
G36*
X130606564Y-140589389D02*
G01*
X130797833Y-140668615D01*
X130797835Y-140668616D01*
X130969973Y-140783635D01*
X131116365Y-140930027D01*
X131231385Y-141102167D01*
X131310611Y-141293436D01*
X131351000Y-141496484D01*
X131351000Y-141703516D01*
X131310611Y-141906564D01*
X131266650Y-142012695D01*
X131231384Y-142097835D01*
X131116365Y-142269973D01*
X130969973Y-142416365D01*
X130797835Y-142531384D01*
X130797834Y-142531385D01*
X130797833Y-142531385D01*
X130606564Y-142610611D01*
X130403516Y-142651000D01*
X130196484Y-142651000D01*
X129993436Y-142610611D01*
X129802167Y-142531385D01*
X129802166Y-142531385D01*
X129802165Y-142531384D01*
X129630027Y-142416365D01*
X129483635Y-142269973D01*
X129368616Y-142097835D01*
X129333350Y-142012695D01*
X129289389Y-141906564D01*
X129249000Y-141703516D01*
X129249000Y-141496484D01*
X129289389Y-141293436D01*
X129368615Y-141102167D01*
X129483635Y-140930027D01*
X129630027Y-140783635D01*
X129802165Y-140668616D01*
X129802167Y-140668615D01*
X129993436Y-140589389D01*
X130196484Y-140549000D01*
X130403516Y-140549000D01*
X130606564Y-140589389D01*
G37*
G36*
X126062199Y-135749954D02*
G01*
X126074450Y-135750556D01*
X126092869Y-135750556D01*
X126115149Y-135752750D01*
X126199233Y-135769476D01*
X126220660Y-135775976D01*
X126299858Y-135808780D01*
X126305303Y-135811691D01*
X126305309Y-135811693D01*
X126314169Y-135816429D01*
X126314173Y-135816432D01*
X126319614Y-135819340D01*
X126390899Y-135866971D01*
X126408204Y-135881172D01*
X126468828Y-135941796D01*
X126483029Y-135959101D01*
X126530660Y-136030386D01*
X126533568Y-136035827D01*
X126533571Y-136035831D01*
X126538307Y-136044691D01*
X126538309Y-136044697D01*
X126541220Y-136050142D01*
X126574024Y-136129340D01*
X126580524Y-136150767D01*
X126597250Y-136234851D01*
X126599444Y-136257131D01*
X126599444Y-136275550D01*
X126600046Y-136287801D01*
X126601852Y-136306139D01*
X126601852Y-136843860D01*
X126600263Y-136859999D01*
X126595855Y-136874528D01*
X126590394Y-136887711D01*
X126585612Y-136911745D01*
X126585611Y-136936249D01*
X126590391Y-136960282D01*
X126599768Y-136982921D01*
X126601000Y-136984765D01*
X126601000Y-138216050D01*
X126594525Y-138228164D01*
X126587412Y-138251613D01*
X126585010Y-138275999D01*
X126587412Y-138300385D01*
X126594525Y-138323834D01*
X126596848Y-138328746D01*
X126600263Y-138340001D01*
X126601852Y-138356140D01*
X126601852Y-138893862D01*
X126600046Y-138912199D01*
X126599444Y-138924450D01*
X126599444Y-138942869D01*
X126597250Y-138965149D01*
X126580524Y-139049233D01*
X126574024Y-139070660D01*
X126541220Y-139149858D01*
X126538309Y-139155303D01*
X126538307Y-139155309D01*
X126533571Y-139164169D01*
X126533568Y-139164173D01*
X126530660Y-139169614D01*
X126483029Y-139240899D01*
X126468828Y-139258204D01*
X126408204Y-139318828D01*
X126390899Y-139333029D01*
X126319614Y-139380660D01*
X126314173Y-139383568D01*
X126314169Y-139383571D01*
X126305309Y-139388307D01*
X126305303Y-139388309D01*
X126299858Y-139391220D01*
X126220660Y-139424024D01*
X126199233Y-139430524D01*
X126115149Y-139447250D01*
X126092869Y-139449444D01*
X126074450Y-139449444D01*
X126062199Y-139450046D01*
X126043862Y-139451852D01*
X125556138Y-139451852D01*
X125537801Y-139450046D01*
X125525550Y-139449444D01*
X125507131Y-139449444D01*
X125484851Y-139447250D01*
X125400767Y-139430524D01*
X125379340Y-139424024D01*
X125300142Y-139391220D01*
X125294697Y-139388309D01*
X125294691Y-139388307D01*
X125285831Y-139383571D01*
X125285827Y-139383568D01*
X125280386Y-139380660D01*
X125209101Y-139333029D01*
X125191796Y-139318828D01*
X125131172Y-139258204D01*
X125116971Y-139240899D01*
X125069340Y-139169614D01*
X125066432Y-139164173D01*
X125066429Y-139164169D01*
X125061693Y-139155309D01*
X125061691Y-139155303D01*
X125058780Y-139149858D01*
X125025976Y-139070660D01*
X125019476Y-139049233D01*
X125002750Y-138965149D01*
X125000556Y-138942869D01*
X125000556Y-138924450D01*
X124999954Y-138912199D01*
X124998148Y-138893862D01*
X124998148Y-138356140D01*
X124999737Y-138340001D01*
X125004145Y-138325472D01*
X125009606Y-138312289D01*
X125014388Y-138288255D01*
X125014389Y-138263751D01*
X125009609Y-138239718D01*
X125000232Y-138217079D01*
X124999000Y-138215235D01*
X124999000Y-136983950D01*
X125005475Y-136971836D01*
X125012588Y-136948387D01*
X125014990Y-136924001D01*
X125012588Y-136899615D01*
X125005475Y-136876166D01*
X125003152Y-136871254D01*
X124999737Y-136859999D01*
X124998148Y-136843860D01*
X124998148Y-136306139D01*
X124999954Y-136287801D01*
X125000556Y-136275550D01*
X125000556Y-136257131D01*
X125002750Y-136234851D01*
X125019476Y-136150767D01*
X125025976Y-136129340D01*
X125058780Y-136050142D01*
X125061691Y-136044697D01*
X125061693Y-136044691D01*
X125066429Y-136035831D01*
X125066432Y-136035827D01*
X125069340Y-136030386D01*
X125116971Y-135959101D01*
X125131172Y-135941796D01*
X125191796Y-135881172D01*
X125209101Y-135866971D01*
X125280386Y-135819340D01*
X125285827Y-135816432D01*
X125285831Y-135816429D01*
X125294691Y-135811693D01*
X125294697Y-135811691D01*
X125300142Y-135808780D01*
X125379340Y-135775976D01*
X125400767Y-135769476D01*
X125484851Y-135752750D01*
X125507131Y-135750556D01*
X125525550Y-135750556D01*
X125537801Y-135749954D01*
X125556139Y-135748148D01*
X126043861Y-135748148D01*
X126062199Y-135749954D01*
G37*
G36*
X123764499Y-137903445D02*
G01*
X123801995Y-137914820D01*
X123836554Y-137933292D01*
X123866847Y-137958153D01*
X123891708Y-137988446D01*
X123910180Y-138023005D01*
X123921555Y-138060501D01*
X123926000Y-138105638D01*
X123926000Y-138844362D01*
X123921555Y-138889499D01*
X123910180Y-138926995D01*
X123891708Y-138961554D01*
X123866847Y-138991847D01*
X123836554Y-139016708D01*
X123801995Y-139035180D01*
X123764499Y-139046555D01*
X123719362Y-139051000D01*
X123080638Y-139051000D01*
X123035501Y-139046555D01*
X122998005Y-139035180D01*
X122963446Y-139016708D01*
X122933153Y-138991847D01*
X122908292Y-138961554D01*
X122889820Y-138926995D01*
X122878445Y-138889499D01*
X122874000Y-138844362D01*
X122874000Y-138105638D01*
X122878445Y-138060501D01*
X122889820Y-138023005D01*
X122908292Y-137988446D01*
X122933153Y-137958153D01*
X122963446Y-137933292D01*
X122998005Y-137914820D01*
X123035501Y-137903445D01*
X123080638Y-137899000D01*
X123719362Y-137899000D01*
X123764499Y-137903445D01*
G37*
G36*
X113739499Y-137778445D02*
G01*
X113776995Y-137789820D01*
X113811554Y-137808292D01*
X113841847Y-137833153D01*
X113866708Y-137863446D01*
X113885180Y-137898005D01*
X113896555Y-137935501D01*
X113901000Y-137980638D01*
X113901000Y-138619362D01*
X113896555Y-138664499D01*
X113885180Y-138701995D01*
X113866708Y-138736554D01*
X113841847Y-138766847D01*
X113811554Y-138791708D01*
X113776995Y-138810180D01*
X113739499Y-138821555D01*
X113694362Y-138826000D01*
X112955638Y-138826000D01*
X112910501Y-138821555D01*
X112873005Y-138810180D01*
X112838446Y-138791708D01*
X112808153Y-138766847D01*
X112783292Y-138736554D01*
X112764820Y-138701995D01*
X112753445Y-138664499D01*
X112749000Y-138619362D01*
X112749000Y-137980638D01*
X112753445Y-137935501D01*
X112764820Y-137898005D01*
X112783292Y-137863446D01*
X112808153Y-137833153D01*
X112838446Y-137808292D01*
X112873005Y-137789820D01*
X112910501Y-137778445D01*
X112955638Y-137774000D01*
X113694362Y-137774000D01*
X113739499Y-137778445D01*
G37*
G36*
X115489499Y-137778445D02*
G01*
X115526995Y-137789820D01*
X115561554Y-137808292D01*
X115591847Y-137833153D01*
X115616708Y-137863446D01*
X115635180Y-137898005D01*
X115646555Y-137935501D01*
X115651000Y-137980638D01*
X115651000Y-138619362D01*
X115646555Y-138664499D01*
X115635180Y-138701995D01*
X115616708Y-138736554D01*
X115591847Y-138766847D01*
X115561554Y-138791708D01*
X115526995Y-138810180D01*
X115489499Y-138821555D01*
X115444362Y-138826000D01*
X114705638Y-138826000D01*
X114660501Y-138821555D01*
X114623005Y-138810180D01*
X114588446Y-138791708D01*
X114558153Y-138766847D01*
X114533292Y-138736554D01*
X114514820Y-138701995D01*
X114503445Y-138664499D01*
X114499000Y-138619362D01*
X114499000Y-137980638D01*
X114503445Y-137935501D01*
X114514820Y-137898005D01*
X114533292Y-137863446D01*
X114558153Y-137833153D01*
X114588446Y-137808292D01*
X114623005Y-137789820D01*
X114660501Y-137778445D01*
X114705638Y-137774000D01*
X115444362Y-137774000D01*
X115489499Y-137778445D01*
G37*
G36*
X106964499Y-137603445D02*
G01*
X107001995Y-137614820D01*
X107036554Y-137633292D01*
X107066847Y-137658153D01*
X107091708Y-137688446D01*
X107110180Y-137723005D01*
X107121555Y-137760501D01*
X107126000Y-137805638D01*
X107126000Y-138544362D01*
X107121555Y-138589499D01*
X107110180Y-138626995D01*
X107091708Y-138661554D01*
X107066847Y-138691847D01*
X107036554Y-138716708D01*
X107001995Y-138735180D01*
X106964499Y-138746555D01*
X106919362Y-138751000D01*
X106280638Y-138751000D01*
X106235501Y-138746555D01*
X106198005Y-138735180D01*
X106163446Y-138716708D01*
X106133153Y-138691847D01*
X106108292Y-138661554D01*
X106089820Y-138626995D01*
X106078445Y-138589499D01*
X106074000Y-138544362D01*
X106074000Y-137805638D01*
X106078445Y-137760501D01*
X106089820Y-137723005D01*
X106108292Y-137688446D01*
X106133153Y-137658153D01*
X106163446Y-137633292D01*
X106198005Y-137614820D01*
X106235501Y-137603445D01*
X106280638Y-137599000D01*
X106919362Y-137599000D01*
X106964499Y-137603445D01*
G37*
G36*
X108664499Y-137603445D02*
G01*
X108701995Y-137614820D01*
X108736554Y-137633292D01*
X108766847Y-137658153D01*
X108791708Y-137688446D01*
X108810180Y-137723005D01*
X108821555Y-137760501D01*
X108826000Y-137805638D01*
X108826000Y-138544362D01*
X108821555Y-138589499D01*
X108810180Y-138626995D01*
X108791708Y-138661554D01*
X108766847Y-138691847D01*
X108736554Y-138716708D01*
X108701995Y-138735180D01*
X108664499Y-138746555D01*
X108619362Y-138751000D01*
X107980638Y-138751000D01*
X107935501Y-138746555D01*
X107898005Y-138735180D01*
X107863446Y-138716708D01*
X107833153Y-138691847D01*
X107808292Y-138661554D01*
X107789820Y-138626995D01*
X107778445Y-138589499D01*
X107774000Y-138544362D01*
X107774000Y-137805638D01*
X107778445Y-137760501D01*
X107789820Y-137723005D01*
X107808292Y-137688446D01*
X107833153Y-137658153D01*
X107863446Y-137633292D01*
X107898005Y-137614820D01*
X107935501Y-137603445D01*
X107980638Y-137599000D01*
X108619362Y-137599000D01*
X108664499Y-137603445D01*
G37*
G36*
X119739499Y-136778445D02*
G01*
X119776995Y-136789820D01*
X119811554Y-136808292D01*
X119841847Y-136833153D01*
X119866708Y-136863446D01*
X119885180Y-136898005D01*
X119896555Y-136935501D01*
X119901000Y-136980638D01*
X119901000Y-137619362D01*
X119896555Y-137664499D01*
X119885180Y-137701995D01*
X119866708Y-137736554D01*
X119841847Y-137766847D01*
X119811554Y-137791708D01*
X119776995Y-137810180D01*
X119739499Y-137821555D01*
X119694362Y-137826000D01*
X118955638Y-137826000D01*
X118910501Y-137821555D01*
X118873005Y-137810180D01*
X118838446Y-137791708D01*
X118808153Y-137766847D01*
X118783292Y-137736554D01*
X118764820Y-137701995D01*
X118753445Y-137664499D01*
X118749000Y-137619362D01*
X118749000Y-136980638D01*
X118753445Y-136935501D01*
X118764820Y-136898005D01*
X118783292Y-136863446D01*
X118808153Y-136833153D01*
X118838446Y-136808292D01*
X118873005Y-136789820D01*
X118910501Y-136778445D01*
X118955638Y-136774000D01*
X119694362Y-136774000D01*
X119739499Y-136778445D01*
G37*
G36*
X121489499Y-136778445D02*
G01*
X121526995Y-136789820D01*
X121561554Y-136808292D01*
X121591847Y-136833153D01*
X121616708Y-136863446D01*
X121635180Y-136898005D01*
X121646555Y-136935501D01*
X121651000Y-136980638D01*
X121651000Y-137619362D01*
X121646555Y-137664499D01*
X121635180Y-137701995D01*
X121616708Y-137736554D01*
X121591847Y-137766847D01*
X121561554Y-137791708D01*
X121526995Y-137810180D01*
X121489499Y-137821555D01*
X121444362Y-137826000D01*
X120705638Y-137826000D01*
X120660501Y-137821555D01*
X120623005Y-137810180D01*
X120588446Y-137791708D01*
X120558153Y-137766847D01*
X120533292Y-137736554D01*
X120514820Y-137701995D01*
X120503445Y-137664499D01*
X120499000Y-137619362D01*
X120499000Y-136980638D01*
X120503445Y-136935501D01*
X120514820Y-136898005D01*
X120533292Y-136863446D01*
X120558153Y-136833153D01*
X120588446Y-136808292D01*
X120623005Y-136789820D01*
X120660501Y-136778445D01*
X120705638Y-136774000D01*
X121444362Y-136774000D01*
X121489499Y-136778445D01*
G37*
G36*
X100809999Y-136199737D02*
G01*
X100819608Y-136202652D01*
X100828472Y-136207390D01*
X100836237Y-136213763D01*
X100846448Y-136226206D01*
X100853378Y-136236575D01*
X100870705Y-136253902D01*
X100891080Y-136267515D01*
X100913720Y-136276891D01*
X100937753Y-136281671D01*
X100962257Y-136281670D01*
X100986290Y-136276888D01*
X101008929Y-136267510D01*
X101029302Y-136253895D01*
X101046629Y-136236568D01*
X101053558Y-136226198D01*
X101063763Y-136213763D01*
X101071528Y-136207390D01*
X101080392Y-136202652D01*
X101090001Y-136199737D01*
X101106140Y-136198148D01*
X101593861Y-136198148D01*
X101612199Y-136199954D01*
X101624450Y-136200556D01*
X101642869Y-136200556D01*
X101665149Y-136202750D01*
X101749233Y-136219476D01*
X101770660Y-136225976D01*
X101849858Y-136258780D01*
X101855303Y-136261691D01*
X101855309Y-136261693D01*
X101864169Y-136266429D01*
X101864173Y-136266432D01*
X101869614Y-136269340D01*
X101940899Y-136316971D01*
X101958204Y-136331172D01*
X102018828Y-136391796D01*
X102033029Y-136409101D01*
X102080660Y-136480386D01*
X102083568Y-136485827D01*
X102083571Y-136485831D01*
X102088307Y-136494691D01*
X102088309Y-136494697D01*
X102091220Y-136500142D01*
X102124024Y-136579340D01*
X102130524Y-136600767D01*
X102147250Y-136684851D01*
X102149444Y-136707131D01*
X102149444Y-136725550D01*
X102150046Y-136737801D01*
X102151852Y-136756139D01*
X102151852Y-137243862D01*
X102150046Y-137262199D01*
X102149444Y-137274450D01*
X102149444Y-137292869D01*
X102147250Y-137315149D01*
X102130524Y-137399233D01*
X102124024Y-137420660D01*
X102091220Y-137499858D01*
X102088309Y-137505303D01*
X102088307Y-137505309D01*
X102083571Y-137514169D01*
X102083568Y-137514173D01*
X102080660Y-137519614D01*
X102033029Y-137590899D01*
X102018828Y-137608204D01*
X101958204Y-137668828D01*
X101940899Y-137683029D01*
X101869614Y-137730660D01*
X101864173Y-137733568D01*
X101864169Y-137733571D01*
X101855309Y-137738307D01*
X101855303Y-137738309D01*
X101849858Y-137741220D01*
X101770660Y-137774024D01*
X101749233Y-137780524D01*
X101665149Y-137797250D01*
X101642869Y-137799444D01*
X101624450Y-137799444D01*
X101612199Y-137800046D01*
X101593862Y-137801852D01*
X101106140Y-137801852D01*
X101090001Y-137800263D01*
X101080392Y-137797348D01*
X101071528Y-137792610D01*
X101063763Y-137786237D01*
X101053552Y-137773794D01*
X101046622Y-137763425D01*
X101029295Y-137746098D01*
X101008920Y-137732485D01*
X100986280Y-137723109D01*
X100962247Y-137718329D01*
X100937743Y-137718330D01*
X100913710Y-137723112D01*
X100891071Y-137732490D01*
X100870698Y-137746105D01*
X100853371Y-137763432D01*
X100846442Y-137773802D01*
X100836237Y-137786237D01*
X100828472Y-137792610D01*
X100819608Y-137797348D01*
X100809999Y-137800263D01*
X100793860Y-137801852D01*
X100306138Y-137801852D01*
X100287801Y-137800046D01*
X100275550Y-137799444D01*
X100257131Y-137799444D01*
X100234851Y-137797250D01*
X100150767Y-137780524D01*
X100129340Y-137774024D01*
X100050142Y-137741220D01*
X100044697Y-137738309D01*
X100044691Y-137738307D01*
X100035831Y-137733571D01*
X100035827Y-137733568D01*
X100030386Y-137730660D01*
X99959101Y-137683029D01*
X99941796Y-137668828D01*
X99881172Y-137608204D01*
X99866971Y-137590899D01*
X99819340Y-137519614D01*
X99816432Y-137514173D01*
X99816429Y-137514169D01*
X99811693Y-137505309D01*
X99811691Y-137505303D01*
X99808780Y-137499858D01*
X99775976Y-137420660D01*
X99769476Y-137399233D01*
X99752750Y-137315149D01*
X99750556Y-137292869D01*
X99750556Y-137274450D01*
X99749954Y-137262199D01*
X99748148Y-137243862D01*
X99748148Y-136756139D01*
X99749954Y-136737801D01*
X99750556Y-136725550D01*
X99750556Y-136707131D01*
X99752750Y-136684851D01*
X99769476Y-136600767D01*
X99775976Y-136579340D01*
X99808780Y-136500142D01*
X99811691Y-136494697D01*
X99811693Y-136494691D01*
X99816429Y-136485831D01*
X99816432Y-136485827D01*
X99819340Y-136480386D01*
X99866971Y-136409101D01*
X99881172Y-136391796D01*
X99941796Y-136331172D01*
X99959101Y-136316971D01*
X100030386Y-136269340D01*
X100035827Y-136266432D01*
X100035831Y-136266429D01*
X100044691Y-136261693D01*
X100044697Y-136261691D01*
X100050142Y-136258780D01*
X100129340Y-136225976D01*
X100150767Y-136219476D01*
X100234851Y-136202750D01*
X100257131Y-136200556D01*
X100275550Y-136200556D01*
X100287801Y-136199954D01*
X100306139Y-136198148D01*
X100793860Y-136198148D01*
X100809999Y-136199737D01*
G37*
G36*
X123764499Y-136153445D02*
G01*
X123801995Y-136164820D01*
X123836554Y-136183292D01*
X123866847Y-136208153D01*
X123891708Y-136238446D01*
X123910180Y-136273005D01*
X123921555Y-136310501D01*
X123926000Y-136355638D01*
X123926000Y-137094362D01*
X123921555Y-137139499D01*
X123910180Y-137176995D01*
X123891708Y-137211554D01*
X123866847Y-137241847D01*
X123836554Y-137266708D01*
X123801995Y-137285180D01*
X123764499Y-137296555D01*
X123719362Y-137301000D01*
X123080638Y-137301000D01*
X123035501Y-137296555D01*
X122998005Y-137285180D01*
X122963446Y-137266708D01*
X122933153Y-137241847D01*
X122908292Y-137211554D01*
X122889820Y-137176995D01*
X122878445Y-137139499D01*
X122874000Y-137094362D01*
X122874000Y-136355638D01*
X122878445Y-136310501D01*
X122889820Y-136273005D01*
X122908292Y-136238446D01*
X122933153Y-136208153D01*
X122963446Y-136183292D01*
X122998005Y-136164820D01*
X123035501Y-136153445D01*
X123080638Y-136149000D01*
X123719362Y-136149000D01*
X123764499Y-136153445D01*
G37*
G36*
X108664499Y-135853445D02*
G01*
X108701995Y-135864820D01*
X108736554Y-135883292D01*
X108766847Y-135908153D01*
X108791708Y-135938446D01*
X108810180Y-135973005D01*
X108821555Y-136010501D01*
X108826000Y-136055638D01*
X108826000Y-136794362D01*
X108821555Y-136839499D01*
X108810180Y-136876995D01*
X108791708Y-136911554D01*
X108766847Y-136941847D01*
X108736554Y-136966708D01*
X108701995Y-136985180D01*
X108664499Y-136996555D01*
X108619362Y-137001000D01*
X107980638Y-137001000D01*
X107935501Y-136996555D01*
X107898005Y-136985180D01*
X107863446Y-136966708D01*
X107833153Y-136941847D01*
X107808292Y-136911554D01*
X107789820Y-136876995D01*
X107778445Y-136839499D01*
X107774000Y-136794362D01*
X107774000Y-136055638D01*
X107778445Y-136010501D01*
X107789820Y-135973005D01*
X107808292Y-135938446D01*
X107833153Y-135908153D01*
X107863446Y-135883292D01*
X107898005Y-135864820D01*
X107935501Y-135853445D01*
X107980638Y-135849000D01*
X108619362Y-135849000D01*
X108664499Y-135853445D01*
G37*
G36*
X106964499Y-135853445D02*
G01*
X107001995Y-135864820D01*
X107036554Y-135883292D01*
X107066847Y-135908153D01*
X107091708Y-135938446D01*
X107110180Y-135973005D01*
X107121555Y-136010501D01*
X107126000Y-136055638D01*
X107126000Y-136794362D01*
X107121555Y-136839499D01*
X107110180Y-136876995D01*
X107091708Y-136911554D01*
X107066847Y-136941847D01*
X107036554Y-136966708D01*
X107001995Y-136985180D01*
X106964499Y-136996555D01*
X106919362Y-137001000D01*
X106280638Y-137001000D01*
X106235501Y-136996555D01*
X106198005Y-136985180D01*
X106163446Y-136966708D01*
X106133153Y-136941847D01*
X106108292Y-136911554D01*
X106089820Y-136876995D01*
X106078445Y-136839499D01*
X106074000Y-136794362D01*
X106074000Y-136055638D01*
X106078445Y-136010501D01*
X106089820Y-135973005D01*
X106108292Y-135938446D01*
X106133153Y-135908153D01*
X106163446Y-135883292D01*
X106198005Y-135864820D01*
X106235501Y-135853445D01*
X106280638Y-135849000D01*
X106919362Y-135849000D01*
X106964499Y-135853445D01*
G37*
G36*
X112659928Y-136241764D02*
G01*
X112681009Y-136248160D01*
X112700445Y-136258548D01*
X112717476Y-136272524D01*
X112731452Y-136289555D01*
X112741840Y-136308991D01*
X112748236Y-136330072D01*
X112751000Y-136358140D01*
X112751000Y-136821860D01*
X112748236Y-136849928D01*
X112741840Y-136871009D01*
X112731452Y-136890445D01*
X112717476Y-136907476D01*
X112700445Y-136921452D01*
X112681009Y-136931840D01*
X112659928Y-136938236D01*
X112631860Y-136941000D01*
X110818140Y-136941000D01*
X110790072Y-136938236D01*
X110768991Y-136931840D01*
X110749555Y-136921452D01*
X110732524Y-136907476D01*
X110718548Y-136890445D01*
X110708160Y-136871009D01*
X110701764Y-136849928D01*
X110699000Y-136821860D01*
X110699000Y-136358140D01*
X110701764Y-136330072D01*
X110708160Y-136308991D01*
X110718548Y-136289555D01*
X110732524Y-136272524D01*
X110749555Y-136258548D01*
X110768991Y-136248160D01*
X110790072Y-136241764D01*
X110818140Y-136239000D01*
X112631860Y-136239000D01*
X112659928Y-136241764D01*
G37*
G36*
X117609928Y-136241764D02*
G01*
X117631009Y-136248160D01*
X117650445Y-136258548D01*
X117667476Y-136272524D01*
X117681452Y-136289555D01*
X117691840Y-136308991D01*
X117698236Y-136330072D01*
X117701000Y-136358140D01*
X117701000Y-136821860D01*
X117698236Y-136849928D01*
X117691840Y-136871009D01*
X117681452Y-136890445D01*
X117667476Y-136907476D01*
X117650445Y-136921452D01*
X117631009Y-136931840D01*
X117609928Y-136938236D01*
X117581860Y-136941000D01*
X115768140Y-136941000D01*
X115740072Y-136938236D01*
X115718991Y-136931840D01*
X115699555Y-136921452D01*
X115682524Y-136907476D01*
X115668548Y-136890445D01*
X115658160Y-136871009D01*
X115651764Y-136849928D01*
X115649000Y-136821860D01*
X115649000Y-136358140D01*
X115651764Y-136330072D01*
X115658160Y-136308991D01*
X115668548Y-136289555D01*
X115682524Y-136272524D01*
X115699555Y-136258548D01*
X115718991Y-136248160D01*
X115740072Y-136241764D01*
X115768140Y-136239000D01*
X117581860Y-136239000D01*
X117609928Y-136241764D01*
G37*
G36*
X119739499Y-135178445D02*
G01*
X119776995Y-135189820D01*
X119811554Y-135208292D01*
X119841847Y-135233153D01*
X119866708Y-135263446D01*
X119885180Y-135298005D01*
X119896555Y-135335501D01*
X119901000Y-135380638D01*
X119901000Y-136019362D01*
X119896555Y-136064499D01*
X119885180Y-136101995D01*
X119866708Y-136136554D01*
X119841847Y-136166847D01*
X119811554Y-136191708D01*
X119776995Y-136210180D01*
X119739499Y-136221555D01*
X119694362Y-136226000D01*
X118955638Y-136226000D01*
X118910501Y-136221555D01*
X118873005Y-136210180D01*
X118838446Y-136191708D01*
X118808153Y-136166847D01*
X118783292Y-136136554D01*
X118764820Y-136101995D01*
X118753445Y-136064499D01*
X118749000Y-136019362D01*
X118749000Y-135380638D01*
X118753445Y-135335501D01*
X118764820Y-135298005D01*
X118783292Y-135263446D01*
X118808153Y-135233153D01*
X118838446Y-135208292D01*
X118873005Y-135189820D01*
X118910501Y-135178445D01*
X118955638Y-135174000D01*
X119694362Y-135174000D01*
X119739499Y-135178445D01*
G37*
G36*
X121489499Y-135178445D02*
G01*
X121526995Y-135189820D01*
X121561554Y-135208292D01*
X121591847Y-135233153D01*
X121616708Y-135263446D01*
X121635180Y-135298005D01*
X121646555Y-135335501D01*
X121651000Y-135380638D01*
X121651000Y-136019362D01*
X121646555Y-136064499D01*
X121635180Y-136101995D01*
X121616708Y-136136554D01*
X121591847Y-136166847D01*
X121561554Y-136191708D01*
X121526995Y-136210180D01*
X121489499Y-136221555D01*
X121444362Y-136226000D01*
X120705638Y-136226000D01*
X120660501Y-136221555D01*
X120623005Y-136210180D01*
X120588446Y-136191708D01*
X120558153Y-136166847D01*
X120533292Y-136136554D01*
X120514820Y-136101995D01*
X120503445Y-136064499D01*
X120499000Y-136019362D01*
X120499000Y-135380638D01*
X120503445Y-135335501D01*
X120514820Y-135298005D01*
X120533292Y-135263446D01*
X120558153Y-135233153D01*
X120588446Y-135208292D01*
X120623005Y-135189820D01*
X120660501Y-135178445D01*
X120705638Y-135174000D01*
X121444362Y-135174000D01*
X121489499Y-135178445D01*
G37*
G36*
X117609928Y-134971764D02*
G01*
X117631009Y-134978160D01*
X117650445Y-134988548D01*
X117667476Y-135002524D01*
X117681452Y-135019555D01*
X117691840Y-135038991D01*
X117698236Y-135060072D01*
X117701000Y-135088140D01*
X117701000Y-135551860D01*
X117698236Y-135579928D01*
X117691840Y-135601009D01*
X117681452Y-135620445D01*
X117667476Y-135637476D01*
X117650445Y-135651452D01*
X117631009Y-135661840D01*
X117609928Y-135668236D01*
X117581860Y-135671000D01*
X115768140Y-135671000D01*
X115740072Y-135668236D01*
X115718991Y-135661840D01*
X115699555Y-135651452D01*
X115682524Y-135637476D01*
X115668548Y-135620445D01*
X115658160Y-135601009D01*
X115651764Y-135579928D01*
X115649000Y-135551860D01*
X115649000Y-135088140D01*
X115651764Y-135060072D01*
X115658160Y-135038991D01*
X115668548Y-135019555D01*
X115682524Y-135002524D01*
X115699555Y-134988548D01*
X115718991Y-134978160D01*
X115740072Y-134971764D01*
X115768140Y-134969000D01*
X117581860Y-134969000D01*
X117609928Y-134971764D01*
G37*
G36*
X112659928Y-134971764D02*
G01*
X112681009Y-134978160D01*
X112700445Y-134988548D01*
X112717476Y-135002524D01*
X112731452Y-135019555D01*
X112741840Y-135038991D01*
X112748236Y-135060072D01*
X112751000Y-135088140D01*
X112751000Y-135551860D01*
X112748236Y-135579928D01*
X112741840Y-135601009D01*
X112731452Y-135620445D01*
X112717476Y-135637476D01*
X112700445Y-135651452D01*
X112681009Y-135661840D01*
X112659928Y-135668236D01*
X112631860Y-135671000D01*
X110818140Y-135671000D01*
X110790072Y-135668236D01*
X110768991Y-135661840D01*
X110749555Y-135651452D01*
X110732524Y-135637476D01*
X110718548Y-135620445D01*
X110708160Y-135601009D01*
X110701764Y-135579928D01*
X110699000Y-135551860D01*
X110699000Y-135088140D01*
X110701764Y-135060072D01*
X110708160Y-135038991D01*
X110718548Y-135019555D01*
X110732524Y-135002524D01*
X110749555Y-134988548D01*
X110768991Y-134978160D01*
X110790072Y-134971764D01*
X110818140Y-134969000D01*
X112631860Y-134969000D01*
X112659928Y-134971764D01*
G37*
G36*
X106964499Y-134103445D02*
G01*
X107001995Y-134114820D01*
X107036554Y-134133292D01*
X107066847Y-134158153D01*
X107091708Y-134188446D01*
X107110180Y-134223005D01*
X107121555Y-134260501D01*
X107126000Y-134305638D01*
X107126000Y-135044362D01*
X107121555Y-135089499D01*
X107110180Y-135126995D01*
X107091708Y-135161554D01*
X107066847Y-135191847D01*
X107036554Y-135216708D01*
X107001995Y-135235180D01*
X106964499Y-135246555D01*
X106919362Y-135251000D01*
X106280638Y-135251000D01*
X106235501Y-135246555D01*
X106198005Y-135235180D01*
X106163446Y-135216708D01*
X106133153Y-135191847D01*
X106108292Y-135161554D01*
X106089820Y-135126995D01*
X106078445Y-135089499D01*
X106074000Y-135044362D01*
X106074000Y-134305638D01*
X106078445Y-134260501D01*
X106089820Y-134223005D01*
X106108292Y-134188446D01*
X106133153Y-134158153D01*
X106163446Y-134133292D01*
X106198005Y-134114820D01*
X106235501Y-134103445D01*
X106280638Y-134099000D01*
X106919362Y-134099000D01*
X106964499Y-134103445D01*
G37*
G36*
X100809999Y-133599737D02*
G01*
X100819608Y-133602652D01*
X100828472Y-133607390D01*
X100836237Y-133613763D01*
X100846448Y-133626206D01*
X100853378Y-133636575D01*
X100870705Y-133653902D01*
X100891080Y-133667515D01*
X100913720Y-133676891D01*
X100937753Y-133681671D01*
X100962257Y-133681670D01*
X100986290Y-133676888D01*
X101008929Y-133667510D01*
X101029302Y-133653895D01*
X101046629Y-133636568D01*
X101053558Y-133626198D01*
X101063763Y-133613763D01*
X101071528Y-133607390D01*
X101080392Y-133602652D01*
X101090001Y-133599737D01*
X101106140Y-133598148D01*
X101593861Y-133598148D01*
X101612199Y-133599954D01*
X101624450Y-133600556D01*
X101642869Y-133600556D01*
X101665149Y-133602750D01*
X101749233Y-133619476D01*
X101770660Y-133625976D01*
X101849858Y-133658780D01*
X101855303Y-133661691D01*
X101855309Y-133661693D01*
X101864169Y-133666429D01*
X101864173Y-133666432D01*
X101869614Y-133669340D01*
X101940899Y-133716971D01*
X101958204Y-133731172D01*
X102018828Y-133791796D01*
X102033029Y-133809101D01*
X102080660Y-133880386D01*
X102083568Y-133885827D01*
X102083571Y-133885831D01*
X102088307Y-133894691D01*
X102088309Y-133894697D01*
X102091220Y-133900142D01*
X102124024Y-133979340D01*
X102130524Y-134000767D01*
X102147250Y-134084851D01*
X102149444Y-134107131D01*
X102149444Y-134125550D01*
X102150046Y-134137801D01*
X102151852Y-134156139D01*
X102151852Y-134643862D01*
X102150046Y-134662199D01*
X102149444Y-134674450D01*
X102149444Y-134692869D01*
X102147250Y-134715149D01*
X102130524Y-134799233D01*
X102124024Y-134820660D01*
X102091220Y-134899858D01*
X102088309Y-134905303D01*
X102088307Y-134905309D01*
X102083571Y-134914169D01*
X102083568Y-134914173D01*
X102080660Y-134919614D01*
X102033029Y-134990899D01*
X102018828Y-135008204D01*
X101958204Y-135068828D01*
X101940899Y-135083029D01*
X101869614Y-135130660D01*
X101864173Y-135133568D01*
X101864169Y-135133571D01*
X101855309Y-135138307D01*
X101855303Y-135138309D01*
X101849858Y-135141220D01*
X101770660Y-135174024D01*
X101749233Y-135180524D01*
X101665149Y-135197250D01*
X101642869Y-135199444D01*
X101624450Y-135199444D01*
X101612199Y-135200046D01*
X101593862Y-135201852D01*
X101106140Y-135201852D01*
X101090001Y-135200263D01*
X101080392Y-135197348D01*
X101071528Y-135192610D01*
X101063763Y-135186237D01*
X101053552Y-135173794D01*
X101046622Y-135163425D01*
X101029295Y-135146098D01*
X101008920Y-135132485D01*
X100986280Y-135123109D01*
X100962247Y-135118329D01*
X100937743Y-135118330D01*
X100913710Y-135123112D01*
X100891071Y-135132490D01*
X100870698Y-135146105D01*
X100853371Y-135163432D01*
X100846442Y-135173802D01*
X100836237Y-135186237D01*
X100828472Y-135192610D01*
X100819608Y-135197348D01*
X100809999Y-135200263D01*
X100793860Y-135201852D01*
X100306138Y-135201852D01*
X100287801Y-135200046D01*
X100275550Y-135199444D01*
X100257131Y-135199444D01*
X100234851Y-135197250D01*
X100150767Y-135180524D01*
X100129340Y-135174024D01*
X100050142Y-135141220D01*
X100044697Y-135138309D01*
X100044691Y-135138307D01*
X100035831Y-135133571D01*
X100035827Y-135133568D01*
X100030386Y-135130660D01*
X99959101Y-135083029D01*
X99941796Y-135068828D01*
X99881172Y-135008204D01*
X99866971Y-134990899D01*
X99819340Y-134919614D01*
X99816432Y-134914173D01*
X99816429Y-134914169D01*
X99811693Y-134905309D01*
X99811691Y-134905303D01*
X99808780Y-134899858D01*
X99775976Y-134820660D01*
X99769476Y-134799233D01*
X99752750Y-134715149D01*
X99750556Y-134692869D01*
X99750556Y-134674450D01*
X99749954Y-134662199D01*
X99748148Y-134643862D01*
X99748148Y-134156139D01*
X99749954Y-134137801D01*
X99750556Y-134125550D01*
X99750556Y-134107131D01*
X99752750Y-134084851D01*
X99769476Y-134000767D01*
X99775976Y-133979340D01*
X99808780Y-133900142D01*
X99811691Y-133894697D01*
X99811693Y-133894691D01*
X99816429Y-133885831D01*
X99816432Y-133885827D01*
X99819340Y-133880386D01*
X99866971Y-133809101D01*
X99881172Y-133791796D01*
X99941796Y-133731172D01*
X99959101Y-133716971D01*
X100030386Y-133669340D01*
X100035827Y-133666432D01*
X100035831Y-133666429D01*
X100044691Y-133661693D01*
X100044697Y-133661691D01*
X100050142Y-133658780D01*
X100129340Y-133625976D01*
X100150767Y-133619476D01*
X100234851Y-133602750D01*
X100257131Y-133600556D01*
X100275550Y-133600556D01*
X100287801Y-133599954D01*
X100306139Y-133598148D01*
X100793860Y-133598148D01*
X100809999Y-133599737D01*
G37*
G36*
X129471933Y-129958991D02*
G01*
X129856593Y-130035504D01*
X130266249Y-130205189D01*
X130634929Y-130451534D01*
X130948466Y-130765071D01*
X131194811Y-131133751D01*
X131364496Y-131543407D01*
X131435178Y-131898753D01*
X131451000Y-131978295D01*
X131451000Y-132421705D01*
X131442450Y-132464689D01*
X131364496Y-132856593D01*
X131194811Y-133266249D01*
X130948466Y-133634929D01*
X130634929Y-133948466D01*
X130266249Y-134194811D01*
X129856593Y-134364496D01*
X129475880Y-134440224D01*
X129421705Y-134451000D01*
X128978295Y-134451000D01*
X128924120Y-134440224D01*
X128543407Y-134364496D01*
X128133751Y-134194811D01*
X127765071Y-133948466D01*
X127451534Y-133634929D01*
X127205189Y-133266249D01*
X127035504Y-132856593D01*
X126957550Y-132464689D01*
X126949000Y-132421705D01*
X126949000Y-131978295D01*
X126964822Y-131898753D01*
X127035504Y-131543407D01*
X127205189Y-131133751D01*
X127451534Y-130765071D01*
X127765071Y-130451534D01*
X128133751Y-130205189D01*
X128543407Y-130035504D01*
X128928067Y-129958991D01*
X128978295Y-129949000D01*
X129421705Y-129949000D01*
X129471933Y-129958991D01*
G37*
G36*
X112659928Y-133701764D02*
G01*
X112681009Y-133708160D01*
X112700445Y-133718548D01*
X112717476Y-133732524D01*
X112731452Y-133749555D01*
X112741840Y-133768991D01*
X112748236Y-133790072D01*
X112751000Y-133818140D01*
X112751000Y-134281860D01*
X112748236Y-134309928D01*
X112741840Y-134331009D01*
X112731452Y-134350445D01*
X112717476Y-134367476D01*
X112700445Y-134381452D01*
X112681009Y-134391840D01*
X112659928Y-134398236D01*
X112631860Y-134401000D01*
X110818140Y-134401000D01*
X110790072Y-134398236D01*
X110768991Y-134391840D01*
X110749555Y-134381452D01*
X110732524Y-134367476D01*
X110718548Y-134350445D01*
X110708160Y-134331009D01*
X110701764Y-134309928D01*
X110699000Y-134281860D01*
X110699000Y-133818140D01*
X110701764Y-133790072D01*
X110708160Y-133768991D01*
X110718548Y-133749555D01*
X110732524Y-133732524D01*
X110749555Y-133718548D01*
X110768991Y-133708160D01*
X110790072Y-133701764D01*
X110818140Y-133699000D01*
X112631860Y-133699000D01*
X112659928Y-133701764D01*
G37*
G36*
X117609928Y-133701764D02*
G01*
X117631009Y-133708160D01*
X117650445Y-133718548D01*
X117667476Y-133732524D01*
X117681452Y-133749555D01*
X117691840Y-133768991D01*
X117698236Y-133790072D01*
X117701000Y-133818140D01*
X117701000Y-134281860D01*
X117698236Y-134309928D01*
X117691840Y-134331009D01*
X117681452Y-134350445D01*
X117667476Y-134367476D01*
X117650445Y-134381452D01*
X117631009Y-134391840D01*
X117609928Y-134398236D01*
X117581860Y-134401000D01*
X115768140Y-134401000D01*
X115740072Y-134398236D01*
X115718991Y-134391840D01*
X115699555Y-134381452D01*
X115682524Y-134367476D01*
X115668548Y-134350445D01*
X115658160Y-134331009D01*
X115651764Y-134309928D01*
X115649000Y-134281860D01*
X115649000Y-133818140D01*
X115651764Y-133790072D01*
X115658160Y-133768991D01*
X115668548Y-133749555D01*
X115682524Y-133732524D01*
X115699555Y-133718548D01*
X115718991Y-133708160D01*
X115740072Y-133701764D01*
X115768140Y-133699000D01*
X117581860Y-133699000D01*
X117609928Y-133701764D01*
G37*
G36*
X124259999Y-132299737D02*
G01*
X124269608Y-132302652D01*
X124278472Y-132307390D01*
X124286237Y-132313763D01*
X124296448Y-132326206D01*
X124303378Y-132336575D01*
X124320705Y-132353902D01*
X124341080Y-132367515D01*
X124363720Y-132376891D01*
X124387753Y-132381671D01*
X124412257Y-132381670D01*
X124436290Y-132376888D01*
X124458929Y-132367510D01*
X124479302Y-132353895D01*
X124496629Y-132336568D01*
X124503558Y-132326198D01*
X124513763Y-132313763D01*
X124521528Y-132307390D01*
X124530392Y-132302652D01*
X124540001Y-132299737D01*
X124556140Y-132298148D01*
X125043861Y-132298148D01*
X125062199Y-132299954D01*
X125074450Y-132300556D01*
X125092869Y-132300556D01*
X125115149Y-132302750D01*
X125199233Y-132319476D01*
X125220660Y-132325976D01*
X125299858Y-132358780D01*
X125305303Y-132361691D01*
X125305309Y-132361693D01*
X125314169Y-132366429D01*
X125314173Y-132366432D01*
X125319614Y-132369340D01*
X125390899Y-132416971D01*
X125408204Y-132431172D01*
X125468828Y-132491796D01*
X125483029Y-132509101D01*
X125530660Y-132580386D01*
X125533568Y-132585827D01*
X125533571Y-132585831D01*
X125538307Y-132594691D01*
X125538309Y-132594697D01*
X125541220Y-132600142D01*
X125574024Y-132679340D01*
X125580524Y-132700767D01*
X125597250Y-132784851D01*
X125599444Y-132807131D01*
X125599444Y-132825550D01*
X125600046Y-132837801D01*
X125601852Y-132856139D01*
X125601852Y-133343862D01*
X125600046Y-133362199D01*
X125599444Y-133374450D01*
X125599444Y-133392869D01*
X125597250Y-133415149D01*
X125580524Y-133499233D01*
X125574024Y-133520660D01*
X125541220Y-133599858D01*
X125538309Y-133605303D01*
X125538307Y-133605309D01*
X125533571Y-133614169D01*
X125533568Y-133614173D01*
X125530660Y-133619614D01*
X125483029Y-133690899D01*
X125468828Y-133708204D01*
X125408204Y-133768828D01*
X125390899Y-133783029D01*
X125319614Y-133830660D01*
X125314173Y-133833568D01*
X125314169Y-133833571D01*
X125305309Y-133838307D01*
X125305303Y-133838309D01*
X125299858Y-133841220D01*
X125220660Y-133874024D01*
X125199233Y-133880524D01*
X125115149Y-133897250D01*
X125092869Y-133899444D01*
X125074450Y-133899444D01*
X125062199Y-133900046D01*
X125043862Y-133901852D01*
X124556140Y-133901852D01*
X124540001Y-133900263D01*
X124530392Y-133897348D01*
X124521528Y-133892610D01*
X124513763Y-133886237D01*
X124503552Y-133873794D01*
X124496622Y-133863425D01*
X124479295Y-133846098D01*
X124458920Y-133832485D01*
X124436280Y-133823109D01*
X124412247Y-133818329D01*
X124387743Y-133818330D01*
X124363710Y-133823112D01*
X124341071Y-133832490D01*
X124320698Y-133846105D01*
X124303371Y-133863432D01*
X124296442Y-133873802D01*
X124286237Y-133886237D01*
X124278472Y-133892610D01*
X124269608Y-133897348D01*
X124259999Y-133900263D01*
X124243860Y-133901852D01*
X123756138Y-133901852D01*
X123737801Y-133900046D01*
X123725550Y-133899444D01*
X123707131Y-133899444D01*
X123684851Y-133897250D01*
X123600767Y-133880524D01*
X123579340Y-133874024D01*
X123500142Y-133841220D01*
X123494697Y-133838309D01*
X123494691Y-133838307D01*
X123485831Y-133833571D01*
X123485827Y-133833568D01*
X123480386Y-133830660D01*
X123409101Y-133783029D01*
X123391796Y-133768828D01*
X123331172Y-133708204D01*
X123316971Y-133690899D01*
X123269340Y-133619614D01*
X123266432Y-133614173D01*
X123266429Y-133614169D01*
X123261693Y-133605309D01*
X123261691Y-133605303D01*
X123258780Y-133599858D01*
X123225976Y-133520660D01*
X123219476Y-133499233D01*
X123202750Y-133415149D01*
X123200556Y-133392869D01*
X123200556Y-133374450D01*
X123199954Y-133362199D01*
X123198148Y-133343862D01*
X123198148Y-132856139D01*
X123199954Y-132837801D01*
X123200556Y-132825550D01*
X123200556Y-132807131D01*
X123202750Y-132784851D01*
X123219476Y-132700767D01*
X123225976Y-132679340D01*
X123258780Y-132600142D01*
X123261691Y-132594697D01*
X123261693Y-132594691D01*
X123266429Y-132585831D01*
X123266432Y-132585827D01*
X123269340Y-132580386D01*
X123316971Y-132509101D01*
X123331172Y-132491796D01*
X123391796Y-132431172D01*
X123409101Y-132416971D01*
X123480386Y-132369340D01*
X123485827Y-132366432D01*
X123485831Y-132366429D01*
X123494691Y-132361693D01*
X123494697Y-132361691D01*
X123500142Y-132358780D01*
X123579340Y-132325976D01*
X123600767Y-132319476D01*
X123684851Y-132302750D01*
X123707131Y-132300556D01*
X123725550Y-132300556D01*
X123737801Y-132299954D01*
X123756139Y-132298148D01*
X124243860Y-132298148D01*
X124259999Y-132299737D01*
G37*
G36*
X106964499Y-132353445D02*
G01*
X107001995Y-132364820D01*
X107036554Y-132383292D01*
X107066847Y-132408153D01*
X107091708Y-132438446D01*
X107110180Y-132473005D01*
X107121555Y-132510501D01*
X107126000Y-132555638D01*
X107126000Y-133294362D01*
X107121555Y-133339499D01*
X107110180Y-133376995D01*
X107091708Y-133411554D01*
X107066847Y-133441847D01*
X107036554Y-133466708D01*
X107001995Y-133485180D01*
X106964499Y-133496555D01*
X106919362Y-133501000D01*
X106280638Y-133501000D01*
X106235501Y-133496555D01*
X106198005Y-133485180D01*
X106163446Y-133466708D01*
X106133153Y-133441847D01*
X106108292Y-133411554D01*
X106089820Y-133376995D01*
X106078445Y-133339499D01*
X106074000Y-133294362D01*
X106074000Y-132555638D01*
X106078445Y-132510501D01*
X106089820Y-132473005D01*
X106108292Y-132438446D01*
X106133153Y-132408153D01*
X106163446Y-132383292D01*
X106198005Y-132364820D01*
X106235501Y-132353445D01*
X106280638Y-132349000D01*
X106919362Y-132349000D01*
X106964499Y-132353445D01*
G37*
G36*
X109206564Y-131089389D02*
G01*
X109397833Y-131168615D01*
X109397835Y-131168616D01*
X109569973Y-131283635D01*
X109716365Y-131430027D01*
X109786714Y-131535311D01*
X109831385Y-131602167D01*
X109910611Y-131793436D01*
X109951000Y-131996484D01*
X109951000Y-132203516D01*
X109910611Y-132406564D01*
X109836456Y-132585590D01*
X109831384Y-132597835D01*
X109716365Y-132769973D01*
X109569973Y-132916365D01*
X109397835Y-133031384D01*
X109397834Y-133031385D01*
X109397833Y-133031385D01*
X109206564Y-133110611D01*
X109003516Y-133151000D01*
X108796484Y-133151000D01*
X108593436Y-133110611D01*
X108402167Y-133031385D01*
X108402166Y-133031385D01*
X108402165Y-133031384D01*
X108230027Y-132916365D01*
X108083635Y-132769973D01*
X107968616Y-132597835D01*
X107963544Y-132585590D01*
X107889389Y-132406564D01*
X107849000Y-132203516D01*
X107849000Y-131996484D01*
X107889389Y-131793436D01*
X107968615Y-131602167D01*
X108013287Y-131535311D01*
X108083635Y-131430027D01*
X108230027Y-131283635D01*
X108402165Y-131168616D01*
X108402167Y-131168615D01*
X108593436Y-131089389D01*
X108796484Y-131049000D01*
X109003516Y-131049000D01*
X109206564Y-131089389D01*
G37*
G36*
X117609928Y-132431764D02*
G01*
X117631009Y-132438160D01*
X117650445Y-132448548D01*
X117667476Y-132462524D01*
X117681452Y-132479555D01*
X117691840Y-132498991D01*
X117698236Y-132520072D01*
X117701000Y-132548140D01*
X117701000Y-133011860D01*
X117698236Y-133039928D01*
X117691840Y-133061009D01*
X117681452Y-133080445D01*
X117667476Y-133097476D01*
X117650445Y-133111452D01*
X117631009Y-133121840D01*
X117609928Y-133128236D01*
X117581860Y-133131000D01*
X115768140Y-133131000D01*
X115740072Y-133128236D01*
X115718991Y-133121840D01*
X115699555Y-133111452D01*
X115682524Y-133097476D01*
X115668548Y-133080445D01*
X115658160Y-133061009D01*
X115651764Y-133039928D01*
X115649000Y-133011860D01*
X115649000Y-132548140D01*
X115651764Y-132520072D01*
X115658160Y-132498991D01*
X115668548Y-132479555D01*
X115682524Y-132462524D01*
X115699555Y-132448548D01*
X115718991Y-132438160D01*
X115740072Y-132431764D01*
X115768140Y-132429000D01*
X117581860Y-132429000D01*
X117609928Y-132431764D01*
G37*
G36*
X112659928Y-132431764D02*
G01*
X112681009Y-132438160D01*
X112700445Y-132448548D01*
X112717476Y-132462524D01*
X112731452Y-132479555D01*
X112741840Y-132498991D01*
X112748236Y-132520072D01*
X112751000Y-132548140D01*
X112751000Y-133011860D01*
X112748236Y-133039928D01*
X112741840Y-133061009D01*
X112731452Y-133080445D01*
X112717476Y-133097476D01*
X112700445Y-133111452D01*
X112681009Y-133121840D01*
X112659928Y-133128236D01*
X112631860Y-133131000D01*
X110818140Y-133131000D01*
X110790072Y-133128236D01*
X110768991Y-133121840D01*
X110749555Y-133111452D01*
X110732524Y-133097476D01*
X110718548Y-133080445D01*
X110708160Y-133061009D01*
X110701764Y-133039928D01*
X110699000Y-133011860D01*
X110699000Y-132548140D01*
X110701764Y-132520072D01*
X110708160Y-132498991D01*
X110718548Y-132479555D01*
X110732524Y-132462524D01*
X110749555Y-132448548D01*
X110768991Y-132438160D01*
X110790072Y-132431764D01*
X110818140Y-132429000D01*
X112631860Y-132429000D01*
X112659928Y-132431764D01*
G37*
G36*
X121262199Y-130599954D02*
G01*
X121274450Y-130600556D01*
X121292869Y-130600556D01*
X121315149Y-130602750D01*
X121399233Y-130619476D01*
X121420660Y-130625976D01*
X121499858Y-130658780D01*
X121505303Y-130661691D01*
X121505309Y-130661693D01*
X121514169Y-130666429D01*
X121514173Y-130666432D01*
X121519614Y-130669340D01*
X121590899Y-130716971D01*
X121608204Y-130731172D01*
X121668828Y-130791796D01*
X121683029Y-130809101D01*
X121730660Y-130880386D01*
X121733568Y-130885827D01*
X121733571Y-130885831D01*
X121738307Y-130894691D01*
X121738309Y-130894697D01*
X121741220Y-130900142D01*
X121774024Y-130979340D01*
X121780524Y-131000767D01*
X121797250Y-131084851D01*
X121799444Y-131107131D01*
X121799444Y-131125550D01*
X121800046Y-131137801D01*
X121801852Y-131156139D01*
X121801852Y-131643860D01*
X121800263Y-131659999D01*
X121797348Y-131669608D01*
X121792610Y-131678472D01*
X121786237Y-131686237D01*
X121773794Y-131696448D01*
X121763425Y-131703378D01*
X121746098Y-131720705D01*
X121732485Y-131741080D01*
X121723109Y-131763720D01*
X121718329Y-131787753D01*
X121718330Y-131812257D01*
X121723112Y-131836290D01*
X121732490Y-131858929D01*
X121746105Y-131879302D01*
X121763432Y-131896629D01*
X121773802Y-131903558D01*
X121786237Y-131913763D01*
X121792610Y-131921528D01*
X121797348Y-131930392D01*
X121800263Y-131940001D01*
X121801852Y-131956140D01*
X121801852Y-132443862D01*
X121800046Y-132462199D01*
X121799444Y-132474450D01*
X121799444Y-132492869D01*
X121797250Y-132515149D01*
X121780524Y-132599233D01*
X121774024Y-132620660D01*
X121741220Y-132699858D01*
X121738309Y-132705303D01*
X121738307Y-132705309D01*
X121733571Y-132714169D01*
X121733568Y-132714173D01*
X121730660Y-132719614D01*
X121683029Y-132790899D01*
X121668828Y-132808204D01*
X121608204Y-132868828D01*
X121590899Y-132883029D01*
X121519614Y-132930660D01*
X121514173Y-132933568D01*
X121514169Y-132933571D01*
X121505309Y-132938307D01*
X121505303Y-132938309D01*
X121499858Y-132941220D01*
X121420660Y-132974024D01*
X121399233Y-132980524D01*
X121315149Y-132997250D01*
X121292869Y-132999444D01*
X121274450Y-132999444D01*
X121262199Y-133000046D01*
X121243862Y-133001852D01*
X120756138Y-133001852D01*
X120737801Y-133000046D01*
X120725550Y-132999444D01*
X120707131Y-132999444D01*
X120684851Y-132997250D01*
X120600767Y-132980524D01*
X120579340Y-132974024D01*
X120500142Y-132941220D01*
X120494697Y-132938309D01*
X120494691Y-132938307D01*
X120485831Y-132933571D01*
X120485827Y-132933568D01*
X120480386Y-132930660D01*
X120409101Y-132883029D01*
X120391796Y-132868828D01*
X120331172Y-132808204D01*
X120316971Y-132790899D01*
X120269340Y-132719614D01*
X120266432Y-132714173D01*
X120266429Y-132714169D01*
X120261693Y-132705309D01*
X120261691Y-132705303D01*
X120258780Y-132699858D01*
X120225976Y-132620660D01*
X120219476Y-132599233D01*
X120202750Y-132515149D01*
X120200556Y-132492869D01*
X120200556Y-132474450D01*
X120199954Y-132462199D01*
X120198148Y-132443862D01*
X120198148Y-131956140D01*
X120199737Y-131940001D01*
X120202652Y-131930392D01*
X120207390Y-131921528D01*
X120213763Y-131913763D01*
X120226206Y-131903552D01*
X120236575Y-131896622D01*
X120253902Y-131879295D01*
X120267515Y-131858920D01*
X120276891Y-131836280D01*
X120281671Y-131812247D01*
X120281670Y-131787743D01*
X120276888Y-131763710D01*
X120267510Y-131741071D01*
X120253895Y-131720698D01*
X120236568Y-131703371D01*
X120226198Y-131696442D01*
X120213763Y-131686237D01*
X120207390Y-131678472D01*
X120202652Y-131669608D01*
X120199737Y-131659999D01*
X120198148Y-131643860D01*
X120198148Y-131156139D01*
X120199954Y-131137801D01*
X120200556Y-131125550D01*
X120200556Y-131107131D01*
X120202750Y-131084851D01*
X120219476Y-131000767D01*
X120225976Y-130979340D01*
X120258780Y-130900142D01*
X120261691Y-130894697D01*
X120261693Y-130894691D01*
X120266429Y-130885831D01*
X120266432Y-130885827D01*
X120269340Y-130880386D01*
X120316971Y-130809101D01*
X120331172Y-130791796D01*
X120391796Y-130731172D01*
X120409101Y-130716971D01*
X120480386Y-130669340D01*
X120485827Y-130666432D01*
X120485831Y-130666429D01*
X120494691Y-130661693D01*
X120494697Y-130661691D01*
X120500142Y-130658780D01*
X120579340Y-130625976D01*
X120600767Y-130619476D01*
X120684851Y-130602750D01*
X120707131Y-130600556D01*
X120725550Y-130600556D01*
X120737801Y-130599954D01*
X120756139Y-130598148D01*
X121243861Y-130598148D01*
X121262199Y-130599954D01*
G37*
G36*
X100809999Y-130999737D02*
G01*
X100819608Y-131002652D01*
X100828472Y-131007390D01*
X100836237Y-131013763D01*
X100846448Y-131026206D01*
X100853378Y-131036575D01*
X100870705Y-131053902D01*
X100891080Y-131067515D01*
X100913720Y-131076891D01*
X100937753Y-131081671D01*
X100962257Y-131081670D01*
X100986290Y-131076888D01*
X101008929Y-131067510D01*
X101029302Y-131053895D01*
X101046629Y-131036568D01*
X101053558Y-131026198D01*
X101063763Y-131013763D01*
X101071528Y-131007390D01*
X101080392Y-131002652D01*
X101090001Y-130999737D01*
X101106140Y-130998148D01*
X101593861Y-130998148D01*
X101612199Y-130999954D01*
X101624450Y-131000556D01*
X101642869Y-131000556D01*
X101665149Y-131002750D01*
X101749233Y-131019476D01*
X101770660Y-131025976D01*
X101849858Y-131058780D01*
X101855303Y-131061691D01*
X101855309Y-131061693D01*
X101864169Y-131066429D01*
X101864173Y-131066432D01*
X101869614Y-131069340D01*
X101940899Y-131116971D01*
X101958204Y-131131172D01*
X102018828Y-131191796D01*
X102033029Y-131209101D01*
X102080660Y-131280386D01*
X102083568Y-131285827D01*
X102083571Y-131285831D01*
X102088307Y-131294691D01*
X102088309Y-131294697D01*
X102091220Y-131300142D01*
X102124024Y-131379340D01*
X102130524Y-131400767D01*
X102147250Y-131484851D01*
X102149444Y-131507131D01*
X102149444Y-131525550D01*
X102150046Y-131537801D01*
X102151852Y-131556139D01*
X102151852Y-132043862D01*
X102150046Y-132062199D01*
X102149444Y-132074450D01*
X102149444Y-132092869D01*
X102147250Y-132115149D01*
X102130524Y-132199233D01*
X102124024Y-132220660D01*
X102091220Y-132299858D01*
X102088309Y-132305303D01*
X102088307Y-132305309D01*
X102083571Y-132314169D01*
X102083568Y-132314173D01*
X102080660Y-132319614D01*
X102033029Y-132390899D01*
X102018828Y-132408204D01*
X101958204Y-132468828D01*
X101940899Y-132483029D01*
X101869614Y-132530660D01*
X101864173Y-132533568D01*
X101864169Y-132533571D01*
X101855309Y-132538307D01*
X101855303Y-132538309D01*
X101849858Y-132541220D01*
X101770660Y-132574024D01*
X101749233Y-132580524D01*
X101665149Y-132597250D01*
X101642869Y-132599444D01*
X101624450Y-132599444D01*
X101612199Y-132600046D01*
X101593862Y-132601852D01*
X101106140Y-132601852D01*
X101090001Y-132600263D01*
X101080392Y-132597348D01*
X101071528Y-132592610D01*
X101063763Y-132586237D01*
X101053552Y-132573794D01*
X101046622Y-132563425D01*
X101029295Y-132546098D01*
X101008920Y-132532485D01*
X100986280Y-132523109D01*
X100962247Y-132518329D01*
X100937743Y-132518330D01*
X100913710Y-132523112D01*
X100891071Y-132532490D01*
X100870698Y-132546105D01*
X100853371Y-132563432D01*
X100846442Y-132573802D01*
X100836237Y-132586237D01*
X100828472Y-132592610D01*
X100819608Y-132597348D01*
X100809999Y-132600263D01*
X100793860Y-132601852D01*
X100306138Y-132601852D01*
X100287801Y-132600046D01*
X100275550Y-132599444D01*
X100257131Y-132599444D01*
X100234851Y-132597250D01*
X100150767Y-132580524D01*
X100129340Y-132574024D01*
X100050142Y-132541220D01*
X100044697Y-132538309D01*
X100044691Y-132538307D01*
X100035831Y-132533571D01*
X100035827Y-132533568D01*
X100030386Y-132530660D01*
X99959101Y-132483029D01*
X99941796Y-132468828D01*
X99881172Y-132408204D01*
X99866971Y-132390899D01*
X99819340Y-132319614D01*
X99816432Y-132314173D01*
X99816429Y-132314169D01*
X99811693Y-132305309D01*
X99811691Y-132305303D01*
X99808780Y-132299858D01*
X99775976Y-132220660D01*
X99769476Y-132199233D01*
X99752750Y-132115149D01*
X99750556Y-132092869D01*
X99750556Y-132074450D01*
X99749954Y-132062199D01*
X99748148Y-132043862D01*
X99748148Y-131556139D01*
X99749954Y-131537801D01*
X99750556Y-131525550D01*
X99750556Y-131507131D01*
X99752750Y-131484851D01*
X99769476Y-131400767D01*
X99775976Y-131379340D01*
X99808780Y-131300142D01*
X99811691Y-131294697D01*
X99811693Y-131294691D01*
X99816429Y-131285831D01*
X99816432Y-131285827D01*
X99819340Y-131280386D01*
X99866971Y-131209101D01*
X99881172Y-131191796D01*
X99941796Y-131131172D01*
X99959101Y-131116971D01*
X100030386Y-131069340D01*
X100035827Y-131066432D01*
X100035831Y-131066429D01*
X100044691Y-131061693D01*
X100044697Y-131061691D01*
X100050142Y-131058780D01*
X100129340Y-131025976D01*
X100150767Y-131019476D01*
X100234851Y-131002750D01*
X100257131Y-131000556D01*
X100275550Y-131000556D01*
X100287801Y-130999954D01*
X100306139Y-130998148D01*
X100793860Y-130998148D01*
X100809999Y-130999737D01*
G37*
G36*
X112659928Y-131161764D02*
G01*
X112681009Y-131168160D01*
X112700445Y-131178548D01*
X112717476Y-131192524D01*
X112731452Y-131209555D01*
X112741840Y-131228991D01*
X112748236Y-131250072D01*
X112751000Y-131278140D01*
X112751000Y-131741860D01*
X112748236Y-131769928D01*
X112741840Y-131791009D01*
X112731452Y-131810445D01*
X112717476Y-131827476D01*
X112700445Y-131841452D01*
X112681009Y-131851840D01*
X112659928Y-131858236D01*
X112631860Y-131861000D01*
X110818140Y-131861000D01*
X110790072Y-131858236D01*
X110768991Y-131851840D01*
X110749555Y-131841452D01*
X110732524Y-131827476D01*
X110718548Y-131810445D01*
X110708160Y-131791009D01*
X110701764Y-131769928D01*
X110699000Y-131741860D01*
X110699000Y-131278140D01*
X110701764Y-131250072D01*
X110708160Y-131228991D01*
X110718548Y-131209555D01*
X110732524Y-131192524D01*
X110749555Y-131178548D01*
X110768991Y-131168160D01*
X110790072Y-131161764D01*
X110818140Y-131159000D01*
X112631860Y-131159000D01*
X112659928Y-131161764D01*
G37*
G36*
X117609928Y-131161764D02*
G01*
X117631009Y-131168160D01*
X117650445Y-131178548D01*
X117667476Y-131192524D01*
X117681452Y-131209555D01*
X117691840Y-131228991D01*
X117698236Y-131250072D01*
X117701000Y-131278140D01*
X117701000Y-131741860D01*
X117698236Y-131769928D01*
X117691840Y-131791009D01*
X117681452Y-131810445D01*
X117667476Y-131827476D01*
X117650445Y-131841452D01*
X117631009Y-131851840D01*
X117609928Y-131858236D01*
X117581860Y-131861000D01*
X115768140Y-131861000D01*
X115740072Y-131858236D01*
X115718991Y-131851840D01*
X115699555Y-131841452D01*
X115682524Y-131827476D01*
X115668548Y-131810445D01*
X115658160Y-131791009D01*
X115651764Y-131769928D01*
X115649000Y-131741860D01*
X115649000Y-131278140D01*
X115651764Y-131250072D01*
X115658160Y-131228991D01*
X115668548Y-131209555D01*
X115682524Y-131192524D01*
X115699555Y-131178548D01*
X115718991Y-131168160D01*
X115740072Y-131161764D01*
X115768140Y-131159000D01*
X117581860Y-131159000D01*
X117609928Y-131161764D01*
G37*
G36*
X106964499Y-130603445D02*
G01*
X107001995Y-130614820D01*
X107036554Y-130633292D01*
X107066847Y-130658153D01*
X107091708Y-130688446D01*
X107110180Y-130723005D01*
X107121555Y-130760501D01*
X107126000Y-130805638D01*
X107126000Y-131544362D01*
X107121555Y-131589499D01*
X107110180Y-131626995D01*
X107091708Y-131661554D01*
X107066847Y-131691847D01*
X107036554Y-131716708D01*
X107001995Y-131735180D01*
X106964499Y-131746555D01*
X106919362Y-131751000D01*
X106280638Y-131751000D01*
X106235501Y-131746555D01*
X106198005Y-131735180D01*
X106163446Y-131716708D01*
X106133153Y-131691847D01*
X106108292Y-131661554D01*
X106089820Y-131626995D01*
X106078445Y-131589499D01*
X106074000Y-131544362D01*
X106074000Y-130805638D01*
X106078445Y-130760501D01*
X106089820Y-130723005D01*
X106108292Y-130688446D01*
X106133153Y-130658153D01*
X106163446Y-130633292D01*
X106198005Y-130614820D01*
X106235501Y-130603445D01*
X106280638Y-130599000D01*
X106919362Y-130599000D01*
X106964499Y-130603445D01*
G37*
G36*
X117609928Y-129891764D02*
G01*
X117631009Y-129898160D01*
X117650445Y-129908548D01*
X117667476Y-129922524D01*
X117681452Y-129939555D01*
X117691840Y-129958991D01*
X117698236Y-129980072D01*
X117701000Y-130008140D01*
X117701000Y-130471860D01*
X117698236Y-130499928D01*
X117691840Y-130521009D01*
X117681452Y-130540445D01*
X117667476Y-130557476D01*
X117650445Y-130571452D01*
X117631009Y-130581840D01*
X117609928Y-130588236D01*
X117581860Y-130591000D01*
X115768140Y-130591000D01*
X115740072Y-130588236D01*
X115718991Y-130581840D01*
X115699555Y-130571452D01*
X115682524Y-130557476D01*
X115668548Y-130540445D01*
X115658160Y-130521009D01*
X115651764Y-130499928D01*
X115649000Y-130471860D01*
X115649000Y-130008140D01*
X115651764Y-129980072D01*
X115658160Y-129958991D01*
X115668548Y-129939555D01*
X115682524Y-129922524D01*
X115699555Y-129908548D01*
X115718991Y-129898160D01*
X115740072Y-129891764D01*
X115768140Y-129889000D01*
X117581860Y-129889000D01*
X117609928Y-129891764D01*
G37*
G36*
X112659928Y-129891764D02*
G01*
X112681009Y-129898160D01*
X112700445Y-129908548D01*
X112717476Y-129922524D01*
X112731452Y-129939555D01*
X112741840Y-129958991D01*
X112748236Y-129980072D01*
X112751000Y-130008140D01*
X112751000Y-130471860D01*
X112748236Y-130499928D01*
X112741840Y-130521009D01*
X112731452Y-130540445D01*
X112717476Y-130557476D01*
X112700445Y-130571452D01*
X112681009Y-130581840D01*
X112659928Y-130588236D01*
X112631860Y-130591000D01*
X110818140Y-130591000D01*
X110790072Y-130588236D01*
X110768991Y-130581840D01*
X110749555Y-130571452D01*
X110732524Y-130557476D01*
X110718548Y-130540445D01*
X110708160Y-130521009D01*
X110701764Y-130499928D01*
X110699000Y-130471860D01*
X110699000Y-130008140D01*
X110701764Y-129980072D01*
X110708160Y-129958991D01*
X110718548Y-129939555D01*
X110732524Y-129922524D01*
X110749555Y-129908548D01*
X110768991Y-129898160D01*
X110790072Y-129891764D01*
X110818140Y-129889000D01*
X112631860Y-129889000D01*
X112659928Y-129891764D01*
G37*
G36*
X100809999Y-128399737D02*
G01*
X100819608Y-128402652D01*
X100828472Y-128407390D01*
X100836237Y-128413763D01*
X100846448Y-128426206D01*
X100853378Y-128436575D01*
X100870705Y-128453902D01*
X100891080Y-128467515D01*
X100913720Y-128476891D01*
X100937753Y-128481671D01*
X100962257Y-128481670D01*
X100986290Y-128476888D01*
X101008929Y-128467510D01*
X101029302Y-128453895D01*
X101046629Y-128436568D01*
X101053558Y-128426198D01*
X101063763Y-128413763D01*
X101071528Y-128407390D01*
X101080392Y-128402652D01*
X101090001Y-128399737D01*
X101106140Y-128398148D01*
X101593861Y-128398148D01*
X101612199Y-128399954D01*
X101624450Y-128400556D01*
X101642869Y-128400556D01*
X101665149Y-128402750D01*
X101749233Y-128419476D01*
X101770660Y-128425976D01*
X101849858Y-128458780D01*
X101855303Y-128461691D01*
X101855309Y-128461693D01*
X101864169Y-128466429D01*
X101864173Y-128466432D01*
X101869614Y-128469340D01*
X101940899Y-128516971D01*
X101958204Y-128531172D01*
X102018828Y-128591796D01*
X102033029Y-128609101D01*
X102080660Y-128680386D01*
X102083568Y-128685827D01*
X102083571Y-128685831D01*
X102088307Y-128694691D01*
X102088309Y-128694697D01*
X102091220Y-128700142D01*
X102124024Y-128779340D01*
X102130524Y-128800767D01*
X102147250Y-128884851D01*
X102149444Y-128907131D01*
X102149444Y-128925550D01*
X102150046Y-128937801D01*
X102151852Y-128956139D01*
X102151852Y-129443862D01*
X102150046Y-129462199D01*
X102149444Y-129474450D01*
X102149444Y-129492869D01*
X102147250Y-129515149D01*
X102130524Y-129599233D01*
X102124024Y-129620660D01*
X102091220Y-129699858D01*
X102088309Y-129705303D01*
X102088307Y-129705309D01*
X102083571Y-129714169D01*
X102083568Y-129714173D01*
X102080660Y-129719614D01*
X102033029Y-129790899D01*
X102018828Y-129808204D01*
X101958204Y-129868828D01*
X101940899Y-129883029D01*
X101869614Y-129930660D01*
X101864173Y-129933568D01*
X101864169Y-129933571D01*
X101855309Y-129938307D01*
X101855303Y-129938309D01*
X101849858Y-129941220D01*
X101770660Y-129974024D01*
X101749233Y-129980524D01*
X101665149Y-129997250D01*
X101642869Y-129999444D01*
X101624450Y-129999444D01*
X101612199Y-130000046D01*
X101593862Y-130001852D01*
X101106140Y-130001852D01*
X101090001Y-130000263D01*
X101080392Y-129997348D01*
X101071528Y-129992610D01*
X101063763Y-129986237D01*
X101053552Y-129973794D01*
X101046622Y-129963425D01*
X101029295Y-129946098D01*
X101008920Y-129932485D01*
X100986280Y-129923109D01*
X100962247Y-129918329D01*
X100937743Y-129918330D01*
X100913710Y-129923112D01*
X100891071Y-129932490D01*
X100870698Y-129946105D01*
X100853371Y-129963432D01*
X100846442Y-129973802D01*
X100836237Y-129986237D01*
X100828472Y-129992610D01*
X100819608Y-129997348D01*
X100809999Y-130000263D01*
X100793860Y-130001852D01*
X100306138Y-130001852D01*
X100287801Y-130000046D01*
X100275550Y-129999444D01*
X100257131Y-129999444D01*
X100234851Y-129997250D01*
X100150767Y-129980524D01*
X100129340Y-129974024D01*
X100050142Y-129941220D01*
X100044697Y-129938309D01*
X100044691Y-129938307D01*
X100035831Y-129933571D01*
X100035827Y-129933568D01*
X100030386Y-129930660D01*
X99959101Y-129883029D01*
X99941796Y-129868828D01*
X99881172Y-129808204D01*
X99866971Y-129790899D01*
X99819340Y-129719614D01*
X99816432Y-129714173D01*
X99816429Y-129714169D01*
X99811693Y-129705309D01*
X99811691Y-129705303D01*
X99808780Y-129699858D01*
X99775976Y-129620660D01*
X99769476Y-129599233D01*
X99752750Y-129515149D01*
X99750556Y-129492869D01*
X99750556Y-129474450D01*
X99749954Y-129462199D01*
X99748148Y-129443862D01*
X99748148Y-128956139D01*
X99749954Y-128937801D01*
X99750556Y-128925550D01*
X99750556Y-128907131D01*
X99752750Y-128884851D01*
X99769476Y-128800767D01*
X99775976Y-128779340D01*
X99808780Y-128700142D01*
X99811691Y-128694697D01*
X99811693Y-128694691D01*
X99816429Y-128685831D01*
X99816432Y-128685827D01*
X99819340Y-128680386D01*
X99866971Y-128609101D01*
X99881172Y-128591796D01*
X99941796Y-128531172D01*
X99959101Y-128516971D01*
X100030386Y-128469340D01*
X100035827Y-128466432D01*
X100035831Y-128466429D01*
X100044691Y-128461693D01*
X100044697Y-128461691D01*
X100050142Y-128458780D01*
X100129340Y-128425976D01*
X100150767Y-128419476D01*
X100234851Y-128402750D01*
X100257131Y-128400556D01*
X100275550Y-128400556D01*
X100287801Y-128399954D01*
X100306139Y-128398148D01*
X100793860Y-128398148D01*
X100809999Y-128399737D01*
G37*
G36*
X106964499Y-128853445D02*
G01*
X107001995Y-128864820D01*
X107036554Y-128883292D01*
X107066847Y-128908153D01*
X107091708Y-128938446D01*
X107110180Y-128973005D01*
X107121555Y-129010501D01*
X107126000Y-129055638D01*
X107126000Y-129794362D01*
X107121555Y-129839499D01*
X107110180Y-129876995D01*
X107091708Y-129911554D01*
X107066847Y-129941847D01*
X107036554Y-129966708D01*
X107001995Y-129985180D01*
X106964499Y-129996555D01*
X106919362Y-130001000D01*
X106280638Y-130001000D01*
X106235501Y-129996555D01*
X106198005Y-129985180D01*
X106163446Y-129966708D01*
X106133153Y-129941847D01*
X106108292Y-129911554D01*
X106089820Y-129876995D01*
X106078445Y-129839499D01*
X106074000Y-129794362D01*
X106074000Y-129055638D01*
X106078445Y-129010501D01*
X106089820Y-128973005D01*
X106108292Y-128938446D01*
X106133153Y-128908153D01*
X106163446Y-128883292D01*
X106198005Y-128864820D01*
X106235501Y-128853445D01*
X106280638Y-128849000D01*
X106919362Y-128849000D01*
X106964499Y-128853445D01*
G37*
G36*
X112659928Y-128621764D02*
G01*
X112681009Y-128628160D01*
X112700445Y-128638548D01*
X112717476Y-128652524D01*
X112731452Y-128669555D01*
X112741840Y-128688991D01*
X112748236Y-128710072D01*
X112751000Y-128738140D01*
X112751000Y-129201860D01*
X112748236Y-129229928D01*
X112741840Y-129251009D01*
X112731452Y-129270445D01*
X112717476Y-129287476D01*
X112700445Y-129301452D01*
X112681009Y-129311840D01*
X112659928Y-129318236D01*
X112631860Y-129321000D01*
X110818140Y-129321000D01*
X110790072Y-129318236D01*
X110768991Y-129311840D01*
X110749555Y-129301452D01*
X110732524Y-129287476D01*
X110718548Y-129270445D01*
X110708160Y-129251009D01*
X110701764Y-129229928D01*
X110699000Y-129201860D01*
X110699000Y-128738140D01*
X110701764Y-128710072D01*
X110708160Y-128688991D01*
X110718548Y-128669555D01*
X110732524Y-128652524D01*
X110749555Y-128638548D01*
X110768991Y-128628160D01*
X110790072Y-128621764D01*
X110818140Y-128619000D01*
X112631860Y-128619000D01*
X112659928Y-128621764D01*
G37*
G36*
X117609928Y-128621764D02*
G01*
X117631009Y-128628160D01*
X117650445Y-128638548D01*
X117667476Y-128652524D01*
X117681452Y-128669555D01*
X117691840Y-128688991D01*
X117698236Y-128710072D01*
X117701000Y-128738140D01*
X117701000Y-129201860D01*
X117698236Y-129229928D01*
X117691840Y-129251009D01*
X117681452Y-129270445D01*
X117667476Y-129287476D01*
X117650445Y-129301452D01*
X117631009Y-129311840D01*
X117609928Y-129318236D01*
X117581860Y-129321000D01*
X115768140Y-129321000D01*
X115740072Y-129318236D01*
X115718991Y-129311840D01*
X115699555Y-129301452D01*
X115682524Y-129287476D01*
X115668548Y-129270445D01*
X115658160Y-129251009D01*
X115651764Y-129229928D01*
X115649000Y-129201860D01*
X115649000Y-128738140D01*
X115651764Y-128710072D01*
X115658160Y-128688991D01*
X115668548Y-128669555D01*
X115682524Y-128652524D01*
X115699555Y-128638548D01*
X115718991Y-128628160D01*
X115740072Y-128621764D01*
X115768140Y-128619000D01*
X117581860Y-128619000D01*
X117609928Y-128621764D01*
G37*
G36*
X126806564Y-126089389D02*
G01*
X126997833Y-126168615D01*
X126997835Y-126168616D01*
X127169973Y-126283635D01*
X127316365Y-126430027D01*
X127431385Y-126602167D01*
X127510611Y-126793436D01*
X127551000Y-126996484D01*
X127551000Y-127203516D01*
X127510611Y-127406564D01*
X127431385Y-127597833D01*
X127431384Y-127597835D01*
X127316365Y-127769973D01*
X127169973Y-127916365D01*
X126997835Y-128031384D01*
X126997834Y-128031385D01*
X126997833Y-128031385D01*
X126806564Y-128110611D01*
X126603516Y-128151000D01*
X126396484Y-128151000D01*
X126193436Y-128110611D01*
X126002167Y-128031385D01*
X126002166Y-128031385D01*
X126002165Y-128031384D01*
X125830027Y-127916365D01*
X125683635Y-127769973D01*
X125568616Y-127597835D01*
X125568615Y-127597833D01*
X125489389Y-127406564D01*
X125449000Y-127203516D01*
X125449000Y-126996484D01*
X125489389Y-126793436D01*
X125568615Y-126602167D01*
X125683635Y-126430027D01*
X125830027Y-126283635D01*
X126002165Y-126168616D01*
X126002167Y-126168615D01*
X126193436Y-126089389D01*
X126396484Y-126049000D01*
X126603516Y-126049000D01*
X126806564Y-126089389D01*
G37*
G36*
X108264499Y-125703445D02*
G01*
X108301995Y-125714820D01*
X108336554Y-125733292D01*
X108366847Y-125758153D01*
X108391708Y-125788446D01*
X108410180Y-125823005D01*
X108421555Y-125860501D01*
X108426000Y-125905638D01*
X108426000Y-126644362D01*
X108421555Y-126689499D01*
X108410180Y-126726995D01*
X108391708Y-126761554D01*
X108366847Y-126791847D01*
X108336554Y-126816708D01*
X108301995Y-126835180D01*
X108264499Y-126846555D01*
X108219362Y-126851000D01*
X107580638Y-126851000D01*
X107535501Y-126846555D01*
X107498005Y-126835180D01*
X107463446Y-126816708D01*
X107433153Y-126791847D01*
X107408292Y-126761554D01*
X107389820Y-126726995D01*
X107378445Y-126689499D01*
X107374000Y-126644362D01*
X107374000Y-125905638D01*
X107378445Y-125860501D01*
X107389820Y-125823005D01*
X107408292Y-125788446D01*
X107433153Y-125758153D01*
X107463446Y-125733292D01*
X107498005Y-125714820D01*
X107535501Y-125703445D01*
X107580638Y-125699000D01*
X108219362Y-125699000D01*
X108264499Y-125703445D01*
G37*
G36*
X114564499Y-125703445D02*
G01*
X114601995Y-125714820D01*
X114636554Y-125733292D01*
X114666847Y-125758153D01*
X114691708Y-125788446D01*
X114710180Y-125823005D01*
X114721555Y-125860501D01*
X114726000Y-125905638D01*
X114726000Y-126644362D01*
X114721555Y-126689499D01*
X114710180Y-126726995D01*
X114691708Y-126761554D01*
X114666847Y-126791847D01*
X114636554Y-126816708D01*
X114601995Y-126835180D01*
X114564499Y-126846555D01*
X114519362Y-126851000D01*
X113880638Y-126851000D01*
X113835501Y-126846555D01*
X113798005Y-126835180D01*
X113763446Y-126816708D01*
X113733153Y-126791847D01*
X113708292Y-126761554D01*
X113689820Y-126726995D01*
X113678445Y-126689499D01*
X113674000Y-126644362D01*
X113674000Y-125905638D01*
X113678445Y-125860501D01*
X113689820Y-125823005D01*
X113708292Y-125788446D01*
X113733153Y-125758153D01*
X113763446Y-125733292D01*
X113798005Y-125714820D01*
X113835501Y-125703445D01*
X113880638Y-125699000D01*
X114519362Y-125699000D01*
X114564499Y-125703445D01*
G37*
G36*
X111464499Y-125703445D02*
G01*
X111501995Y-125714820D01*
X111536554Y-125733292D01*
X111566847Y-125758153D01*
X111591708Y-125788446D01*
X111610180Y-125823005D01*
X111621555Y-125860501D01*
X111626000Y-125905638D01*
X111626000Y-126644362D01*
X111621555Y-126689499D01*
X111610180Y-126726995D01*
X111591708Y-126761554D01*
X111566847Y-126791847D01*
X111536554Y-126816708D01*
X111501995Y-126835180D01*
X111464499Y-126846555D01*
X111419362Y-126851000D01*
X110780638Y-126851000D01*
X110735501Y-126846555D01*
X110698005Y-126835180D01*
X110663446Y-126816708D01*
X110633153Y-126791847D01*
X110608292Y-126761554D01*
X110589820Y-126726995D01*
X110578445Y-126689499D01*
X110574000Y-126644362D01*
X110574000Y-125905638D01*
X110578445Y-125860501D01*
X110589820Y-125823005D01*
X110608292Y-125788446D01*
X110633153Y-125758153D01*
X110663446Y-125733292D01*
X110698005Y-125714820D01*
X110735501Y-125703445D01*
X110780638Y-125699000D01*
X111419362Y-125699000D01*
X111464499Y-125703445D01*
G37*
G36*
X108264499Y-123953445D02*
G01*
X108301995Y-123964820D01*
X108336554Y-123983292D01*
X108366847Y-124008153D01*
X108391708Y-124038446D01*
X108410180Y-124073005D01*
X108421555Y-124110501D01*
X108426000Y-124155638D01*
X108426000Y-124894362D01*
X108421555Y-124939499D01*
X108410180Y-124976995D01*
X108391708Y-125011554D01*
X108366847Y-125041847D01*
X108336554Y-125066708D01*
X108301995Y-125085180D01*
X108264499Y-125096555D01*
X108219362Y-125101000D01*
X107580638Y-125101000D01*
X107535501Y-125096555D01*
X107498005Y-125085180D01*
X107463446Y-125066708D01*
X107433153Y-125041847D01*
X107408292Y-125011554D01*
X107389820Y-124976995D01*
X107378445Y-124939499D01*
X107374000Y-124894362D01*
X107374000Y-124155638D01*
X107378445Y-124110501D01*
X107389820Y-124073005D01*
X107408292Y-124038446D01*
X107433153Y-124008153D01*
X107463446Y-123983292D01*
X107498005Y-123964820D01*
X107535501Y-123953445D01*
X107580638Y-123949000D01*
X108219362Y-123949000D01*
X108264499Y-123953445D01*
G37*
G36*
X111464499Y-123953445D02*
G01*
X111501995Y-123964820D01*
X111536554Y-123983292D01*
X111566847Y-124008153D01*
X111591708Y-124038446D01*
X111610180Y-124073005D01*
X111621555Y-124110501D01*
X111626000Y-124155638D01*
X111626000Y-124894362D01*
X111621555Y-124939499D01*
X111610180Y-124976995D01*
X111591708Y-125011554D01*
X111566847Y-125041847D01*
X111536554Y-125066708D01*
X111501995Y-125085180D01*
X111464499Y-125096555D01*
X111419362Y-125101000D01*
X110780638Y-125101000D01*
X110735501Y-125096555D01*
X110698005Y-125085180D01*
X110663446Y-125066708D01*
X110633153Y-125041847D01*
X110608292Y-125011554D01*
X110589820Y-124976995D01*
X110578445Y-124939499D01*
X110574000Y-124894362D01*
X110574000Y-124155638D01*
X110578445Y-124110501D01*
X110589820Y-124073005D01*
X110608292Y-124038446D01*
X110633153Y-124008153D01*
X110663446Y-123983292D01*
X110698005Y-123964820D01*
X110735501Y-123953445D01*
X110780638Y-123949000D01*
X111419362Y-123949000D01*
X111464499Y-123953445D01*
G37*
G36*
X114564499Y-123953445D02*
G01*
X114601995Y-123964820D01*
X114636554Y-123983292D01*
X114666847Y-124008153D01*
X114691708Y-124038446D01*
X114710180Y-124073005D01*
X114721555Y-124110501D01*
X114726000Y-124155638D01*
X114726000Y-124894362D01*
X114721555Y-124939499D01*
X114710180Y-124976995D01*
X114691708Y-125011554D01*
X114666847Y-125041847D01*
X114636554Y-125066708D01*
X114601995Y-125085180D01*
X114564499Y-125096555D01*
X114519362Y-125101000D01*
X113880638Y-125101000D01*
X113835501Y-125096555D01*
X113798005Y-125085180D01*
X113763446Y-125066708D01*
X113733153Y-125041847D01*
X113708292Y-125011554D01*
X113689820Y-124976995D01*
X113678445Y-124939499D01*
X113674000Y-124894362D01*
X113674000Y-124155638D01*
X113678445Y-124110501D01*
X113689820Y-124073005D01*
X113708292Y-124038446D01*
X113733153Y-124008153D01*
X113763446Y-123983292D01*
X113798005Y-123964820D01*
X113835501Y-123953445D01*
X113880638Y-123949000D01*
X114519362Y-123949000D01*
X114564499Y-123953445D01*
G37*
G36*
X122606564Y-122989389D02*
G01*
X122797833Y-123068615D01*
X122797835Y-123068616D01*
X122969973Y-123183635D01*
X123116365Y-123330027D01*
X123185365Y-123433292D01*
X123231385Y-123502167D01*
X123310611Y-123693436D01*
X123351000Y-123896484D01*
X123351000Y-124103516D01*
X123310611Y-124306564D01*
X123246412Y-124461554D01*
X123231384Y-124497835D01*
X123116365Y-124669973D01*
X122969973Y-124816365D01*
X122797835Y-124931384D01*
X122797834Y-124931385D01*
X122797833Y-124931385D01*
X122606564Y-125010611D01*
X122403516Y-125051000D01*
X122196484Y-125051000D01*
X121993436Y-125010611D01*
X121802167Y-124931385D01*
X121802166Y-124931385D01*
X121802165Y-124931384D01*
X121630027Y-124816365D01*
X121483635Y-124669973D01*
X121368616Y-124497835D01*
X121353588Y-124461554D01*
X121289389Y-124306564D01*
X121249000Y-124103516D01*
X121249000Y-123896484D01*
X121289389Y-123693436D01*
X121368615Y-123502167D01*
X121414636Y-123433292D01*
X121483635Y-123330027D01*
X121630027Y-123183635D01*
X121802165Y-123068616D01*
X121802167Y-123068615D01*
X121993436Y-122989389D01*
X122196484Y-122949000D01*
X122403516Y-122949000D01*
X122606564Y-122989389D01*
G37*
G36*
X117664499Y-123403445D02*
G01*
X117701995Y-123414820D01*
X117736554Y-123433292D01*
X117766847Y-123458153D01*
X117791708Y-123488446D01*
X117810180Y-123523005D01*
X117821555Y-123560501D01*
X117826000Y-123605638D01*
X117826000Y-124344362D01*
X117821555Y-124389499D01*
X117810180Y-124426995D01*
X117791708Y-124461554D01*
X117766847Y-124491847D01*
X117736554Y-124516708D01*
X117701995Y-124535180D01*
X117664499Y-124546555D01*
X117619362Y-124551000D01*
X116980638Y-124551000D01*
X116935501Y-124546555D01*
X116898005Y-124535180D01*
X116863446Y-124516708D01*
X116833153Y-124491847D01*
X116808292Y-124461554D01*
X116789820Y-124426995D01*
X116778445Y-124389499D01*
X116774000Y-124344362D01*
X116774000Y-123605638D01*
X116778445Y-123560501D01*
X116789820Y-123523005D01*
X116808292Y-123488446D01*
X116833153Y-123458153D01*
X116863446Y-123433292D01*
X116898005Y-123414820D01*
X116935501Y-123403445D01*
X116980638Y-123399000D01*
X117619362Y-123399000D01*
X117664499Y-123403445D01*
G37*
G36*
X117664499Y-121653445D02*
G01*
X117701995Y-121664820D01*
X117736554Y-121683292D01*
X117766847Y-121708153D01*
X117791708Y-121738446D01*
X117810180Y-121773005D01*
X117821555Y-121810501D01*
X117826000Y-121855638D01*
X117826000Y-122594362D01*
X117821555Y-122639499D01*
X117810180Y-122676995D01*
X117791708Y-122711554D01*
X117766847Y-122741847D01*
X117736554Y-122766708D01*
X117701995Y-122785180D01*
X117664499Y-122796555D01*
X117619362Y-122801000D01*
X116980638Y-122801000D01*
X116935501Y-122796555D01*
X116898005Y-122785180D01*
X116863446Y-122766708D01*
X116833153Y-122741847D01*
X116808292Y-122711554D01*
X116789820Y-122676995D01*
X116778445Y-122639499D01*
X116774000Y-122594362D01*
X116774000Y-121855638D01*
X116778445Y-121810501D01*
X116789820Y-121773005D01*
X116808292Y-121738446D01*
X116833153Y-121708153D01*
X116863446Y-121683292D01*
X116898005Y-121664820D01*
X116935501Y-121653445D01*
X116980638Y-121649000D01*
X117619362Y-121649000D01*
X117664499Y-121653445D01*
G37*
G36*
X102234239Y-116191467D02*
G01*
X102548282Y-116253934D01*
X103139926Y-116499001D01*
X103672392Y-116854784D01*
X104125216Y-117307608D01*
X104480999Y-117840074D01*
X104726066Y-118431718D01*
X104726066Y-118431719D01*
X104851000Y-119059803D01*
X104851000Y-119700197D01*
X104800445Y-119954353D01*
X104726066Y-120328282D01*
X104480999Y-120919926D01*
X104125216Y-121452392D01*
X103672392Y-121905216D01*
X103139926Y-122260999D01*
X102548282Y-122506066D01*
X102234239Y-122568533D01*
X101920197Y-122631000D01*
X101279803Y-122631000D01*
X100965761Y-122568533D01*
X100651718Y-122506066D01*
X100060074Y-122260999D01*
X99527608Y-121905216D01*
X99074784Y-121452392D01*
X98719001Y-120919926D01*
X98473934Y-120328282D01*
X98399555Y-119954353D01*
X98349000Y-119700197D01*
X98349000Y-119059803D01*
X98473934Y-118431719D01*
X98473934Y-118431718D01*
X98719001Y-117840074D01*
X99074784Y-117307608D01*
X99527608Y-116854784D01*
X100060074Y-116499001D01*
X100651718Y-116253934D01*
X100965761Y-116191467D01*
X101279803Y-116129000D01*
X101920197Y-116129000D01*
X102234239Y-116191467D01*
G37*
G36*
X127634239Y-116191467D02*
G01*
X127948282Y-116253934D01*
X128539926Y-116499001D01*
X129072392Y-116854784D01*
X129525216Y-117307608D01*
X129880999Y-117840074D01*
X130126066Y-118431718D01*
X130126066Y-118431719D01*
X130251000Y-119059803D01*
X130251000Y-119700197D01*
X130200445Y-119954353D01*
X130126066Y-120328282D01*
X129880999Y-120919926D01*
X129525216Y-121452392D01*
X129072392Y-121905216D01*
X128539926Y-122260999D01*
X127948282Y-122506066D01*
X127634239Y-122568533D01*
X127320197Y-122631000D01*
X126679803Y-122631000D01*
X126365761Y-122568533D01*
X126051718Y-122506066D01*
X125460074Y-122260999D01*
X124927608Y-121905216D01*
X124474784Y-121452392D01*
X124119001Y-120919926D01*
X123873934Y-120328282D01*
X123799555Y-119954353D01*
X123749000Y-119700197D01*
X123749000Y-119059803D01*
X123873934Y-118431719D01*
X123873934Y-118431718D01*
X124119001Y-117840074D01*
X124474784Y-117307608D01*
X124927608Y-116854784D01*
X125460074Y-116499001D01*
X126051718Y-116253934D01*
X126365761Y-116191467D01*
X126679803Y-116129000D01*
X127320197Y-116129000D01*
X127634239Y-116191467D01*
G37*
G36*
X114413512Y-118483927D02*
G01*
X114562812Y-118513624D01*
X114726784Y-118581544D01*
X114874354Y-118680147D01*
X114999853Y-118805646D01*
X115098456Y-118953216D01*
X115166376Y-119117188D01*
X115201000Y-119291259D01*
X115201000Y-119468741D01*
X115166376Y-119642812D01*
X115098456Y-119806784D01*
X114999853Y-119954354D01*
X114874354Y-120079853D01*
X114726784Y-120178456D01*
X114562812Y-120246376D01*
X114413512Y-120276073D01*
X114388742Y-120281000D01*
X114211258Y-120281000D01*
X114186488Y-120276073D01*
X114037188Y-120246376D01*
X113873216Y-120178456D01*
X113725646Y-120079853D01*
X113600147Y-119954354D01*
X113501544Y-119806784D01*
X113433624Y-119642812D01*
X113399000Y-119468741D01*
X113399000Y-119291259D01*
X113433624Y-119117188D01*
X113501544Y-118953216D01*
X113600147Y-118805646D01*
X113725646Y-118680147D01*
X113873216Y-118581544D01*
X114037188Y-118513624D01*
X114186488Y-118483927D01*
X114211258Y-118479000D01*
X114388742Y-118479000D01*
X114413512Y-118483927D01*
G37*
G36*
X116953512Y-118483927D02*
G01*
X117102812Y-118513624D01*
X117266784Y-118581544D01*
X117414354Y-118680147D01*
X117539853Y-118805646D01*
X117638456Y-118953216D01*
X117706376Y-119117188D01*
X117741000Y-119291259D01*
X117741000Y-119468741D01*
X117706376Y-119642812D01*
X117638456Y-119806784D01*
X117539853Y-119954354D01*
X117414354Y-120079853D01*
X117266784Y-120178456D01*
X117102812Y-120246376D01*
X116953512Y-120276073D01*
X116928742Y-120281000D01*
X116751258Y-120281000D01*
X116726488Y-120276073D01*
X116577188Y-120246376D01*
X116413216Y-120178456D01*
X116265646Y-120079853D01*
X116140147Y-119954354D01*
X116041544Y-119806784D01*
X115973624Y-119642812D01*
X115939000Y-119468741D01*
X115939000Y-119291259D01*
X115973624Y-119117188D01*
X116041544Y-118953216D01*
X116140147Y-118805646D01*
X116265646Y-118680147D01*
X116413216Y-118581544D01*
X116577188Y-118513624D01*
X116726488Y-118483927D01*
X116751258Y-118479000D01*
X116928742Y-118479000D01*
X116953512Y-118483927D01*
G37*
G36*
X119493512Y-118483927D02*
G01*
X119642812Y-118513624D01*
X119806784Y-118581544D01*
X119954354Y-118680147D01*
X120079853Y-118805646D01*
X120178456Y-118953216D01*
X120246376Y-119117188D01*
X120281000Y-119291259D01*
X120281000Y-119468741D01*
X120246376Y-119642812D01*
X120178456Y-119806784D01*
X120079853Y-119954354D01*
X119954354Y-120079853D01*
X119806784Y-120178456D01*
X119642812Y-120246376D01*
X119493512Y-120276073D01*
X119468742Y-120281000D01*
X119291258Y-120281000D01*
X119266488Y-120276073D01*
X119117188Y-120246376D01*
X118953216Y-120178456D01*
X118805646Y-120079853D01*
X118680147Y-119954354D01*
X118581544Y-119806784D01*
X118513624Y-119642812D01*
X118479000Y-119468741D01*
X118479000Y-119291259D01*
X118513624Y-119117188D01*
X118581544Y-118953216D01*
X118680147Y-118805646D01*
X118805646Y-118680147D01*
X118953216Y-118581544D01*
X119117188Y-118513624D01*
X119266488Y-118483927D01*
X119291258Y-118479000D01*
X119468742Y-118479000D01*
X119493512Y-118483927D01*
G37*
G36*
X111873512Y-118483927D02*
G01*
X112022812Y-118513624D01*
X112186784Y-118581544D01*
X112334354Y-118680147D01*
X112459853Y-118805646D01*
X112558456Y-118953216D01*
X112626376Y-119117188D01*
X112661000Y-119291259D01*
X112661000Y-119468741D01*
X112626376Y-119642812D01*
X112558456Y-119806784D01*
X112459853Y-119954354D01*
X112334354Y-120079853D01*
X112186784Y-120178456D01*
X112022812Y-120246376D01*
X111873512Y-120276073D01*
X111848742Y-120281000D01*
X111671258Y-120281000D01*
X111646488Y-120276073D01*
X111497188Y-120246376D01*
X111333216Y-120178456D01*
X111185646Y-120079853D01*
X111060147Y-119954354D01*
X110961544Y-119806784D01*
X110893624Y-119642812D01*
X110859000Y-119468741D01*
X110859000Y-119291259D01*
X110893624Y-119117188D01*
X110961544Y-118953216D01*
X111060147Y-118805646D01*
X111185646Y-118680147D01*
X111333216Y-118581544D01*
X111497188Y-118513624D01*
X111646488Y-118483927D01*
X111671258Y-118479000D01*
X111848742Y-118479000D01*
X111873512Y-118483927D01*
G37*
G36*
X110121000Y-120281000D02*
G01*
X108319000Y-120281000D01*
X108319000Y-118479000D01*
X110121000Y-118479000D01*
X110121000Y-120281000D01*
G37*
M02*
