M48
; DRILL file {KiCad (5.1.5)-3} date 27/10/2020 23:36:26
; FORMAT={-:-/ absolute / inch / decimal}
; #@! TF.CreationDate,2020-10-27T23:36:26+01:00
; #@! TF.GenerationSoftware,Kicad,Pcbnew,(5.1.5)-3
; #@! TF.FileFunction,Plated,1,2,PTH
FMAT,2
INCH
T1C0.0157
T2C0.0197
T3C0.0394
T4C0.0630
T5C0.0866
T6C0.1260
%
G90
G05
T1
X3.9921Y-4.9764
X4.0827Y-5.378
X4.315Y-5.0354
X4.3268Y-4.8819
X4.3346Y-5.2795
X4.3661Y-4.815
X4.3661Y-6.1417
X4.378Y-5.4449
X4.4528Y-4.9961
X4.5039Y-5.8504
X4.6399Y-5.4564
X4.6811Y-5.2362
X4.7205Y-4.9331
X4.7717Y-5.9134
X4.7992Y-5.5079
X4.8307Y-5.3189
X5.0217Y-5.2047
X5.0407Y-5.1588
X5.0407Y-5.2507
X5.0866Y-5.1398
X5.0866Y-5.2697
X5.1325Y-5.1588
X5.1325Y-5.2507
X5.1516Y-5.2047
T2
X3.9055Y-6.0
X3.9332Y-5.9332
X3.9332Y-6.0668
X4.0Y-5.9055
X4.0Y-6.0945
X4.0668Y-5.9332
X4.0668Y-6.0668
X4.0945Y-6.0
X3.9055Y-4.7
X3.9332Y-4.6332
X3.9332Y-4.7668
X4.0Y-4.6055
X4.0Y-4.7945
X4.0668Y-4.6332
X4.0668Y-4.7668
X4.0945Y-4.7
X4.9055Y-4.7
X4.9332Y-4.6332
X4.9332Y-4.7668
X5.0Y-4.6055
X5.0Y-4.7945
X5.0668Y-4.6332
X5.0668Y-4.7668
X5.0945Y-4.7
X4.9055Y-6.0
X4.9332Y-5.9332
X4.9332Y-6.0668
X5.0Y-5.9055
X5.0Y-6.0945
X5.0668Y-5.9332
X5.0668Y-6.0668
X5.0945Y-6.0
T3
X4.3Y-4.7
X4.4Y-4.7
X4.5Y-4.7
X4.6Y-4.7
X4.7Y-4.7
X4.3Y-6.0
X4.4Y-6.0
X4.5Y-6.0
X4.6Y-6.0
X4.7Y-6.0
T4
X3.9843Y-5.6181
T5
X5.0866Y-5.2047
T6
X4.0Y-6.0
X4.0Y-4.7
X5.0Y-4.7
X5.0Y-6.0
T0
M30
