G04 #@! TF.GenerationSoftware,KiCad,Pcbnew,(5.1.5)-3*
G04 #@! TF.CreationDate,2020-10-27T23:36:23+01:00*
G04 #@! TF.ProjectId,error_amplifier_1,6572726f-725f-4616-9d70-6c6966696572,rev?*
G04 #@! TF.SameCoordinates,Original*
G04 #@! TF.FileFunction,Legend,Bot*
G04 #@! TF.FilePolarity,Positive*
%FSLAX46Y46*%
G04 Gerber Fmt 4.6, Leading zero omitted, Abs format (unit mm)*
G04 Created by KiCad (PCBNEW (5.1.5)-3) date 2020-10-27 23:36:23*
%MOMM*%
%LPD*%
G04 APERTURE LIST*
%ADD10C,0.150000*%
%ADD11C,0.120000*%
G04 APERTURE END LIST*
D10*
X129233333Y-145452380D02*
X129233333Y-144452380D01*
X129233333Y-144928571D02*
X128661904Y-144928571D01*
X128661904Y-145452380D02*
X128661904Y-144452380D01*
X128328571Y-144452380D02*
X127757142Y-144452380D01*
X128042857Y-145452380D02*
X128042857Y-144452380D01*
X127090476Y-144928571D02*
X126947619Y-144976190D01*
X126900000Y-145023809D01*
X126852380Y-145119047D01*
X126852380Y-145261904D01*
X126900000Y-145357142D01*
X126947619Y-145404761D01*
X127042857Y-145452380D01*
X127423809Y-145452380D01*
X127423809Y-144452380D01*
X127090476Y-144452380D01*
X126995238Y-144500000D01*
X126947619Y-144547619D01*
X126900000Y-144642857D01*
X126900000Y-144738095D01*
X126947619Y-144833333D01*
X126995238Y-144880952D01*
X127090476Y-144928571D01*
X127423809Y-144928571D01*
X126280952Y-145452380D02*
X126376190Y-145404761D01*
X126423809Y-145309523D01*
X126423809Y-144452380D01*
X125757142Y-145452380D02*
X125852380Y-145404761D01*
X125900000Y-145357142D01*
X125947619Y-145261904D01*
X125947619Y-144976190D01*
X125900000Y-144880952D01*
X125852380Y-144833333D01*
X125757142Y-144785714D01*
X125614285Y-144785714D01*
X125519047Y-144833333D01*
X125471428Y-144880952D01*
X125423809Y-144976190D01*
X125423809Y-145261904D01*
X125471428Y-145357142D01*
X125519047Y-145404761D01*
X125614285Y-145452380D01*
X125757142Y-145452380D01*
X124566666Y-144785714D02*
X124566666Y-145595238D01*
X124614285Y-145690476D01*
X124661904Y-145738095D01*
X124757142Y-145785714D01*
X124900000Y-145785714D01*
X124995238Y-145738095D01*
X124566666Y-145404761D02*
X124661904Y-145452380D01*
X124852380Y-145452380D01*
X124947619Y-145404761D01*
X124995238Y-145357142D01*
X125042857Y-145261904D01*
X125042857Y-144976190D01*
X124995238Y-144880952D01*
X124947619Y-144833333D01*
X124852380Y-144785714D01*
X124661904Y-144785714D01*
X124566666Y-144833333D01*
X119000000Y-121738095D02*
X118952380Y-121642857D01*
X118952380Y-121500000D01*
X119000000Y-121357142D01*
X119095238Y-121261904D01*
X119190476Y-121214285D01*
X119380952Y-121166666D01*
X119523809Y-121166666D01*
X119714285Y-121214285D01*
X119809523Y-121261904D01*
X119904761Y-121357142D01*
X119952380Y-121500000D01*
X119952380Y-121595238D01*
X119904761Y-121738095D01*
X119857142Y-121785714D01*
X119523809Y-121785714D01*
X119523809Y-121595238D01*
X119952380Y-122214285D02*
X118952380Y-122214285D01*
X119952380Y-122785714D01*
X118952380Y-122785714D01*
X119952380Y-123261904D02*
X118952380Y-123261904D01*
X118952380Y-123500000D01*
X119000000Y-123642857D01*
X119095238Y-123738095D01*
X119190476Y-123785714D01*
X119380952Y-123833333D01*
X119523809Y-123833333D01*
X119714285Y-123785714D01*
X119809523Y-123738095D01*
X119904761Y-123642857D01*
X119952380Y-123500000D01*
X119952380Y-123261904D01*
X117257142Y-122340952D02*
X117304761Y-122293333D01*
X117352380Y-122150476D01*
X117352380Y-122055238D01*
X117304761Y-121912380D01*
X117209523Y-121817142D01*
X117114285Y-121769523D01*
X116923809Y-121721904D01*
X116780952Y-121721904D01*
X116590476Y-121769523D01*
X116495238Y-121817142D01*
X116400000Y-121912380D01*
X116352380Y-122055238D01*
X116352380Y-122150476D01*
X116400000Y-122293333D01*
X116447619Y-122340952D01*
X116352380Y-122626666D02*
X116352380Y-123198095D01*
X117352380Y-122912380D02*
X116352380Y-122912380D01*
X117352380Y-124102857D02*
X116876190Y-123769523D01*
X117352380Y-123531428D02*
X116352380Y-123531428D01*
X116352380Y-123912380D01*
X116400000Y-124007619D01*
X116447619Y-124055238D01*
X116542857Y-124102857D01*
X116685714Y-124102857D01*
X116780952Y-124055238D01*
X116828571Y-124007619D01*
X116876190Y-123912380D01*
X116876190Y-123531428D01*
X117352380Y-125007619D02*
X117352380Y-124531428D01*
X116352380Y-124531428D01*
X117447619Y-125102857D02*
X117447619Y-125864761D01*
X117352380Y-126102857D02*
X116352380Y-126102857D01*
X117352380Y-126579047D02*
X116352380Y-126579047D01*
X117352380Y-127150476D01*
X116352380Y-127150476D01*
X114852380Y-121547619D02*
X114852380Y-121071428D01*
X113852380Y-121071428D01*
X114947619Y-121642857D02*
X114947619Y-122404761D01*
X114757142Y-123214285D02*
X114804761Y-123166666D01*
X114852380Y-123023809D01*
X114852380Y-122928571D01*
X114804761Y-122785714D01*
X114709523Y-122690476D01*
X114614285Y-122642857D01*
X114423809Y-122595238D01*
X114280952Y-122595238D01*
X114090476Y-122642857D01*
X113995238Y-122690476D01*
X113900000Y-122785714D01*
X113852380Y-122928571D01*
X113852380Y-123023809D01*
X113900000Y-123166666D01*
X113947619Y-123214285D01*
X114852380Y-124119047D02*
X114852380Y-123642857D01*
X113852380Y-123642857D01*
X114566666Y-124404761D02*
X114566666Y-124880952D01*
X114852380Y-124309523D02*
X113852380Y-124642857D01*
X114852380Y-124976190D01*
X114852380Y-125309523D02*
X113852380Y-125309523D01*
X114566666Y-125642857D01*
X113852380Y-125976190D01*
X114852380Y-125976190D01*
X114852380Y-126452380D02*
X113852380Y-126452380D01*
X113852380Y-126833333D01*
X113900000Y-126928571D01*
X113947619Y-126976190D01*
X114042857Y-127023809D01*
X114185714Y-127023809D01*
X114280952Y-126976190D01*
X114328571Y-126928571D01*
X114376190Y-126833333D01*
X114376190Y-126452380D01*
X114804761Y-127404761D02*
X114852380Y-127547619D01*
X114852380Y-127785714D01*
X114804761Y-127880952D01*
X114757142Y-127928571D01*
X114661904Y-127976190D01*
X114566666Y-127976190D01*
X114471428Y-127928571D01*
X114423809Y-127880952D01*
X114376190Y-127785714D01*
X114328571Y-127595238D01*
X114280952Y-127500000D01*
X114233333Y-127452380D01*
X114138095Y-127404761D01*
X114042857Y-127404761D01*
X113947619Y-127452380D01*
X113900000Y-127500000D01*
X113852380Y-127595238D01*
X113852380Y-127833333D01*
X113900000Y-127976190D01*
X112157142Y-121619047D02*
X112204761Y-121571428D01*
X112252380Y-121428571D01*
X112252380Y-121333333D01*
X112204761Y-121190476D01*
X112109523Y-121095238D01*
X112014285Y-121047619D01*
X111823809Y-121000000D01*
X111680952Y-121000000D01*
X111490476Y-121047619D01*
X111395238Y-121095238D01*
X111300000Y-121190476D01*
X111252380Y-121333333D01*
X111252380Y-121428571D01*
X111300000Y-121571428D01*
X111347619Y-121619047D01*
X111252380Y-121904761D02*
X111252380Y-122476190D01*
X112252380Y-122190476D02*
X111252380Y-122190476D01*
X112252380Y-123380952D02*
X111776190Y-123047619D01*
X112252380Y-122809523D02*
X111252380Y-122809523D01*
X111252380Y-123190476D01*
X111300000Y-123285714D01*
X111347619Y-123333333D01*
X111442857Y-123380952D01*
X111585714Y-123380952D01*
X111680952Y-123333333D01*
X111728571Y-123285714D01*
X111776190Y-123190476D01*
X111776190Y-122809523D01*
X112347619Y-123571428D02*
X112347619Y-124333333D01*
X111252380Y-124761904D02*
X111252380Y-124952380D01*
X111300000Y-125047619D01*
X111395238Y-125142857D01*
X111585714Y-125190476D01*
X111919047Y-125190476D01*
X112109523Y-125142857D01*
X112204761Y-125047619D01*
X112252380Y-124952380D01*
X112252380Y-124761904D01*
X112204761Y-124666666D01*
X112109523Y-124571428D01*
X111919047Y-124523809D01*
X111585714Y-124523809D01*
X111395238Y-124571428D01*
X111300000Y-124666666D01*
X111252380Y-124761904D01*
X111252380Y-125619047D02*
X112061904Y-125619047D01*
X112157142Y-125666666D01*
X112204761Y-125714285D01*
X112252380Y-125809523D01*
X112252380Y-126000000D01*
X112204761Y-126095238D01*
X112157142Y-126142857D01*
X112061904Y-126190476D01*
X111252380Y-126190476D01*
X111252380Y-126523809D02*
X111252380Y-127095238D01*
X112252380Y-126809523D02*
X111252380Y-126809523D01*
X108800000Y-121738095D02*
X108752380Y-121642857D01*
X108752380Y-121500000D01*
X108800000Y-121357142D01*
X108895238Y-121261904D01*
X108990476Y-121214285D01*
X109180952Y-121166666D01*
X109323809Y-121166666D01*
X109514285Y-121214285D01*
X109609523Y-121261904D01*
X109704761Y-121357142D01*
X109752380Y-121500000D01*
X109752380Y-121595238D01*
X109704761Y-121738095D01*
X109657142Y-121785714D01*
X109323809Y-121785714D01*
X109323809Y-121595238D01*
X109752380Y-122214285D02*
X108752380Y-122214285D01*
X109752380Y-122785714D01*
X108752380Y-122785714D01*
X109752380Y-123261904D02*
X108752380Y-123261904D01*
X108752380Y-123500000D01*
X108800000Y-123642857D01*
X108895238Y-123738095D01*
X108990476Y-123785714D01*
X109180952Y-123833333D01*
X109323809Y-123833333D01*
X109514285Y-123785714D01*
X109609523Y-123738095D01*
X109704761Y-123642857D01*
X109752380Y-123500000D01*
X109752380Y-123261904D01*
X119100000Y-148238095D02*
X119052380Y-148142857D01*
X119052380Y-148000000D01*
X119100000Y-147857142D01*
X119195238Y-147761904D01*
X119290476Y-147714285D01*
X119480952Y-147666666D01*
X119623809Y-147666666D01*
X119814285Y-147714285D01*
X119909523Y-147761904D01*
X120004761Y-147857142D01*
X120052380Y-148000000D01*
X120052380Y-148095238D01*
X120004761Y-148238095D01*
X119957142Y-148285714D01*
X119623809Y-148285714D01*
X119623809Y-148095238D01*
X120052380Y-148714285D02*
X119052380Y-148714285D01*
X120052380Y-149285714D01*
X119052380Y-149285714D01*
X120052380Y-149761904D02*
X119052380Y-149761904D01*
X119052380Y-150000000D01*
X119100000Y-150142857D01*
X119195238Y-150238095D01*
X119290476Y-150285714D01*
X119480952Y-150333333D01*
X119623809Y-150333333D01*
X119814285Y-150285714D01*
X119909523Y-150238095D01*
X120004761Y-150142857D01*
X120052380Y-150000000D01*
X120052380Y-149761904D01*
X116971428Y-146838095D02*
X116971428Y-147600000D01*
X117352380Y-148600000D02*
X117352380Y-148028571D01*
X117352380Y-148314285D02*
X116352380Y-148314285D01*
X116495238Y-148219047D01*
X116590476Y-148123809D01*
X116638095Y-148028571D01*
X116352380Y-149504761D02*
X116352380Y-149028571D01*
X116828571Y-148980952D01*
X116780952Y-149028571D01*
X116733333Y-149123809D01*
X116733333Y-149361904D01*
X116780952Y-149457142D01*
X116828571Y-149504761D01*
X116923809Y-149552380D01*
X117161904Y-149552380D01*
X117257142Y-149504761D01*
X117304761Y-149457142D01*
X117352380Y-149361904D01*
X117352380Y-149123809D01*
X117304761Y-149028571D01*
X117257142Y-148980952D01*
X116352380Y-149838095D02*
X117352380Y-150171428D01*
X116352380Y-150504761D01*
X114471428Y-147714285D02*
X114471428Y-148476190D01*
X113852380Y-149428571D02*
X113852380Y-148952380D01*
X114328571Y-148904761D01*
X114280952Y-148952380D01*
X114233333Y-149047619D01*
X114233333Y-149285714D01*
X114280952Y-149380952D01*
X114328571Y-149428571D01*
X114423809Y-149476190D01*
X114661904Y-149476190D01*
X114757142Y-149428571D01*
X114804761Y-149380952D01*
X114852380Y-149285714D01*
X114852380Y-149047619D01*
X114804761Y-148952380D01*
X114757142Y-148904761D01*
X113852380Y-149761904D02*
X114852380Y-150095238D01*
X113852380Y-150428571D01*
X111771428Y-147714285D02*
X111771428Y-148476190D01*
X112152380Y-148095238D02*
X111390476Y-148095238D01*
X111152380Y-149428571D02*
X111152380Y-148952380D01*
X111628571Y-148904761D01*
X111580952Y-148952380D01*
X111533333Y-149047619D01*
X111533333Y-149285714D01*
X111580952Y-149380952D01*
X111628571Y-149428571D01*
X111723809Y-149476190D01*
X111961904Y-149476190D01*
X112057142Y-149428571D01*
X112104761Y-149380952D01*
X112152380Y-149285714D01*
X112152380Y-149047619D01*
X112104761Y-148952380D01*
X112057142Y-148904761D01*
X111152380Y-149761904D02*
X112152380Y-150095238D01*
X111152380Y-150428571D01*
X109271428Y-146938095D02*
X109271428Y-147700000D01*
X109652380Y-147319047D02*
X108890476Y-147319047D01*
X109652380Y-148700000D02*
X109652380Y-148128571D01*
X109652380Y-148414285D02*
X108652380Y-148414285D01*
X108795238Y-148319047D01*
X108890476Y-148223809D01*
X108938095Y-148128571D01*
X108652380Y-149604761D02*
X108652380Y-149128571D01*
X109128571Y-149080952D01*
X109080952Y-149128571D01*
X109033333Y-149223809D01*
X109033333Y-149461904D01*
X109080952Y-149557142D01*
X109128571Y-149604761D01*
X109223809Y-149652380D01*
X109461904Y-149652380D01*
X109557142Y-149604761D01*
X109604761Y-149557142D01*
X109652380Y-149461904D01*
X109652380Y-149223809D01*
X109604761Y-149128571D01*
X109557142Y-149080952D01*
X108652380Y-149938095D02*
X109652380Y-150271428D01*
X108652380Y-150604761D01*
X129871428Y-147252380D02*
X130442857Y-147252380D01*
X130157142Y-147252380D02*
X130157142Y-146252380D01*
X130252380Y-146395238D01*
X130347619Y-146490476D01*
X130442857Y-146538095D01*
X128919047Y-147252380D02*
X129490476Y-147252380D01*
X129204761Y-147252380D02*
X129204761Y-146252380D01*
X129300000Y-146395238D01*
X129395238Y-146490476D01*
X129490476Y-146538095D01*
X128490476Y-147157142D02*
X128442857Y-147204761D01*
X128490476Y-147252380D01*
X128538095Y-147204761D01*
X128490476Y-147157142D01*
X128490476Y-147252380D01*
X127490476Y-147252380D02*
X128061904Y-147252380D01*
X127776190Y-147252380D02*
X127776190Y-146252380D01*
X127871428Y-146395238D01*
X127966666Y-146490476D01*
X128061904Y-146538095D01*
X126871428Y-146252380D02*
X126776190Y-146252380D01*
X126680952Y-146300000D01*
X126633333Y-146347619D01*
X126585714Y-146442857D01*
X126538095Y-146633333D01*
X126538095Y-146871428D01*
X126585714Y-147061904D01*
X126633333Y-147157142D01*
X126680952Y-147204761D01*
X126776190Y-147252380D01*
X126871428Y-147252380D01*
X126966666Y-147204761D01*
X127014285Y-147157142D01*
X127061904Y-147061904D01*
X127109523Y-146871428D01*
X127109523Y-146633333D01*
X127061904Y-146442857D01*
X127014285Y-146347619D01*
X126966666Y-146300000D01*
X126871428Y-146252380D01*
X126109523Y-147157142D02*
X126061904Y-147204761D01*
X126109523Y-147252380D01*
X126157142Y-147204761D01*
X126109523Y-147157142D01*
X126109523Y-147252380D01*
X125680952Y-146347619D02*
X125633333Y-146300000D01*
X125538095Y-146252380D01*
X125300000Y-146252380D01*
X125204761Y-146300000D01*
X125157142Y-146347619D01*
X125109523Y-146442857D01*
X125109523Y-146538095D01*
X125157142Y-146680952D01*
X125728571Y-147252380D01*
X125109523Y-147252380D01*
X124490476Y-146252380D02*
X124395238Y-146252380D01*
X124300000Y-146300000D01*
X124252380Y-146347619D01*
X124204761Y-146442857D01*
X124157142Y-146633333D01*
X124157142Y-146871428D01*
X124204761Y-147061904D01*
X124252380Y-147157142D01*
X124300000Y-147204761D01*
X124395238Y-147252380D01*
X124490476Y-147252380D01*
X124585714Y-147204761D01*
X124633333Y-147157142D01*
X124680952Y-147061904D01*
X124728571Y-146871428D01*
X124728571Y-146633333D01*
X124680952Y-146442857D01*
X124633333Y-146347619D01*
X124585714Y-146300000D01*
X124490476Y-146252380D01*
D11*
X107890000Y-152400000D02*
X107890000Y-153730000D01*
X107890000Y-153730000D02*
X109220000Y-153730000D01*
X110490000Y-153730000D02*
X120710000Y-153730000D01*
X120710000Y-151070000D02*
X120710000Y-153730000D01*
X110490000Y-151070000D02*
X120710000Y-151070000D01*
X110490000Y-151070000D02*
X110490000Y-153730000D01*
X107890000Y-119380000D02*
X107890000Y-120710000D01*
X107890000Y-120710000D02*
X109220000Y-120710000D01*
X110490000Y-120710000D02*
X120710000Y-120710000D01*
X120710000Y-118050000D02*
X120710000Y-120710000D01*
X110490000Y-118050000D02*
X120710000Y-118050000D01*
X110490000Y-118050000D02*
X110490000Y-120710000D01*
D10*
X105902380Y-152066666D02*
X106616666Y-152066666D01*
X106759523Y-152019047D01*
X106854761Y-151923809D01*
X106902380Y-151780952D01*
X106902380Y-151685714D01*
X105997619Y-152495238D02*
X105950000Y-152542857D01*
X105902380Y-152638095D01*
X105902380Y-152876190D01*
X105950000Y-152971428D01*
X105997619Y-153019047D01*
X106092857Y-153066666D01*
X106188095Y-153066666D01*
X106330952Y-153019047D01*
X106902380Y-152447619D01*
X106902380Y-153066666D01*
X105902380Y-119046666D02*
X106616666Y-119046666D01*
X106759523Y-118999047D01*
X106854761Y-118903809D01*
X106902380Y-118760952D01*
X106902380Y-118665714D01*
X106902380Y-120046666D02*
X106902380Y-119475238D01*
X106902380Y-119760952D02*
X105902380Y-119760952D01*
X106045238Y-119665714D01*
X106140476Y-119570476D01*
X106188095Y-119475238D01*
M02*
