G04 #@! TF.GenerationSoftware,KiCad,Pcbnew,(5.1.5)-3*
G04 #@! TF.CreationDate,2020-10-27T23:36:23+01:00*
G04 #@! TF.ProjectId,error_amplifier_1,6572726f-725f-4616-9d70-6c6966696572,rev?*
G04 #@! TF.SameCoordinates,Original*
G04 #@! TF.FileFunction,Soldermask,Bot*
G04 #@! TF.FilePolarity,Negative*
%FSLAX46Y46*%
G04 Gerber Fmt 4.6, Leading zero omitted, Abs format (unit mm)*
G04 Created by KiCad (PCBNEW (5.1.5)-3) date 2020-10-27 23:36:23*
%MOMM*%
%LPD*%
G04 APERTURE LIST*
%ADD10C,0.100000*%
G04 APERTURE END LIST*
D10*
G36*
X102234239Y-149211467D02*
G01*
X102548282Y-149273934D01*
X103139926Y-149519001D01*
X103672392Y-149874784D01*
X104125216Y-150327608D01*
X104480999Y-150860074D01*
X104726066Y-151451718D01*
X104726066Y-151451719D01*
X104851000Y-152079803D01*
X104851000Y-152720197D01*
X104800445Y-152974353D01*
X104726066Y-153348282D01*
X104480999Y-153939926D01*
X104125216Y-154472392D01*
X103672392Y-154925216D01*
X103139926Y-155280999D01*
X102548282Y-155526066D01*
X102234239Y-155588533D01*
X101920197Y-155651000D01*
X101279803Y-155651000D01*
X100965761Y-155588533D01*
X100651718Y-155526066D01*
X100060074Y-155280999D01*
X99527608Y-154925216D01*
X99074784Y-154472392D01*
X98719001Y-153939926D01*
X98473934Y-153348282D01*
X98399555Y-152974353D01*
X98349000Y-152720197D01*
X98349000Y-152079803D01*
X98473934Y-151451719D01*
X98473934Y-151451718D01*
X98719001Y-150860074D01*
X99074784Y-150327608D01*
X99527608Y-149874784D01*
X100060074Y-149519001D01*
X100651718Y-149273934D01*
X100965761Y-149211467D01*
X101279803Y-149149000D01*
X101920197Y-149149000D01*
X102234239Y-149211467D01*
G37*
G36*
X127634239Y-149211467D02*
G01*
X127948282Y-149273934D01*
X128539926Y-149519001D01*
X129072392Y-149874784D01*
X129525216Y-150327608D01*
X129880999Y-150860074D01*
X130126066Y-151451718D01*
X130126066Y-151451719D01*
X130251000Y-152079803D01*
X130251000Y-152720197D01*
X130200445Y-152974353D01*
X130126066Y-153348282D01*
X129880999Y-153939926D01*
X129525216Y-154472392D01*
X129072392Y-154925216D01*
X128539926Y-155280999D01*
X127948282Y-155526066D01*
X127634239Y-155588533D01*
X127320197Y-155651000D01*
X126679803Y-155651000D01*
X126365761Y-155588533D01*
X126051718Y-155526066D01*
X125460074Y-155280999D01*
X124927608Y-154925216D01*
X124474784Y-154472392D01*
X124119001Y-153939926D01*
X123873934Y-153348282D01*
X123799555Y-152974353D01*
X123749000Y-152720197D01*
X123749000Y-152079803D01*
X123873934Y-151451719D01*
X123873934Y-151451718D01*
X124119001Y-150860074D01*
X124474784Y-150327608D01*
X124927608Y-149874784D01*
X125460074Y-149519001D01*
X126051718Y-149273934D01*
X126365761Y-149211467D01*
X126679803Y-149149000D01*
X127320197Y-149149000D01*
X127634239Y-149211467D01*
G37*
G36*
X116953512Y-151503927D02*
G01*
X117102812Y-151533624D01*
X117266784Y-151601544D01*
X117414354Y-151700147D01*
X117539853Y-151825646D01*
X117638456Y-151973216D01*
X117706376Y-152137188D01*
X117741000Y-152311259D01*
X117741000Y-152488741D01*
X117706376Y-152662812D01*
X117638456Y-152826784D01*
X117539853Y-152974354D01*
X117414354Y-153099853D01*
X117266784Y-153198456D01*
X117102812Y-153266376D01*
X116953512Y-153296073D01*
X116928742Y-153301000D01*
X116751258Y-153301000D01*
X116726488Y-153296073D01*
X116577188Y-153266376D01*
X116413216Y-153198456D01*
X116265646Y-153099853D01*
X116140147Y-152974354D01*
X116041544Y-152826784D01*
X115973624Y-152662812D01*
X115939000Y-152488741D01*
X115939000Y-152311259D01*
X115973624Y-152137188D01*
X116041544Y-151973216D01*
X116140147Y-151825646D01*
X116265646Y-151700147D01*
X116413216Y-151601544D01*
X116577188Y-151533624D01*
X116726488Y-151503927D01*
X116751258Y-151499000D01*
X116928742Y-151499000D01*
X116953512Y-151503927D01*
G37*
G36*
X119493512Y-151503927D02*
G01*
X119642812Y-151533624D01*
X119806784Y-151601544D01*
X119954354Y-151700147D01*
X120079853Y-151825646D01*
X120178456Y-151973216D01*
X120246376Y-152137188D01*
X120281000Y-152311259D01*
X120281000Y-152488741D01*
X120246376Y-152662812D01*
X120178456Y-152826784D01*
X120079853Y-152974354D01*
X119954354Y-153099853D01*
X119806784Y-153198456D01*
X119642812Y-153266376D01*
X119493512Y-153296073D01*
X119468742Y-153301000D01*
X119291258Y-153301000D01*
X119266488Y-153296073D01*
X119117188Y-153266376D01*
X118953216Y-153198456D01*
X118805646Y-153099853D01*
X118680147Y-152974354D01*
X118581544Y-152826784D01*
X118513624Y-152662812D01*
X118479000Y-152488741D01*
X118479000Y-152311259D01*
X118513624Y-152137188D01*
X118581544Y-151973216D01*
X118680147Y-151825646D01*
X118805646Y-151700147D01*
X118953216Y-151601544D01*
X119117188Y-151533624D01*
X119266488Y-151503927D01*
X119291258Y-151499000D01*
X119468742Y-151499000D01*
X119493512Y-151503927D01*
G37*
G36*
X114413512Y-151503927D02*
G01*
X114562812Y-151533624D01*
X114726784Y-151601544D01*
X114874354Y-151700147D01*
X114999853Y-151825646D01*
X115098456Y-151973216D01*
X115166376Y-152137188D01*
X115201000Y-152311259D01*
X115201000Y-152488741D01*
X115166376Y-152662812D01*
X115098456Y-152826784D01*
X114999853Y-152974354D01*
X114874354Y-153099853D01*
X114726784Y-153198456D01*
X114562812Y-153266376D01*
X114413512Y-153296073D01*
X114388742Y-153301000D01*
X114211258Y-153301000D01*
X114186488Y-153296073D01*
X114037188Y-153266376D01*
X113873216Y-153198456D01*
X113725646Y-153099853D01*
X113600147Y-152974354D01*
X113501544Y-152826784D01*
X113433624Y-152662812D01*
X113399000Y-152488741D01*
X113399000Y-152311259D01*
X113433624Y-152137188D01*
X113501544Y-151973216D01*
X113600147Y-151825646D01*
X113725646Y-151700147D01*
X113873216Y-151601544D01*
X114037188Y-151533624D01*
X114186488Y-151503927D01*
X114211258Y-151499000D01*
X114388742Y-151499000D01*
X114413512Y-151503927D01*
G37*
G36*
X111873512Y-151503927D02*
G01*
X112022812Y-151533624D01*
X112186784Y-151601544D01*
X112334354Y-151700147D01*
X112459853Y-151825646D01*
X112558456Y-151973216D01*
X112626376Y-152137188D01*
X112661000Y-152311259D01*
X112661000Y-152488741D01*
X112626376Y-152662812D01*
X112558456Y-152826784D01*
X112459853Y-152974354D01*
X112334354Y-153099853D01*
X112186784Y-153198456D01*
X112022812Y-153266376D01*
X111873512Y-153296073D01*
X111848742Y-153301000D01*
X111671258Y-153301000D01*
X111646488Y-153296073D01*
X111497188Y-153266376D01*
X111333216Y-153198456D01*
X111185646Y-153099853D01*
X111060147Y-152974354D01*
X110961544Y-152826784D01*
X110893624Y-152662812D01*
X110859000Y-152488741D01*
X110859000Y-152311259D01*
X110893624Y-152137188D01*
X110961544Y-151973216D01*
X111060147Y-151825646D01*
X111185646Y-151700147D01*
X111333216Y-151601544D01*
X111497188Y-151533624D01*
X111646488Y-151503927D01*
X111671258Y-151499000D01*
X111848742Y-151499000D01*
X111873512Y-151503927D01*
G37*
G36*
X110121000Y-153301000D02*
G01*
X108319000Y-153301000D01*
X108319000Y-151499000D01*
X110121000Y-151499000D01*
X110121000Y-153301000D01*
G37*
G36*
X101623241Y-141304760D02*
G01*
X101887305Y-141414139D01*
X102124958Y-141572934D01*
X102327066Y-141775042D01*
X102485861Y-142012695D01*
X102595240Y-142276759D01*
X102651000Y-142557088D01*
X102651000Y-142842912D01*
X102595240Y-143123241D01*
X102485861Y-143387305D01*
X102327066Y-143624958D01*
X102124958Y-143827066D01*
X101887305Y-143985861D01*
X101623241Y-144095240D01*
X101342912Y-144151000D01*
X101057088Y-144151000D01*
X100776759Y-144095240D01*
X100512695Y-143985861D01*
X100275042Y-143827066D01*
X100072934Y-143624958D01*
X99914139Y-143387305D01*
X99804760Y-143123241D01*
X99749000Y-142842912D01*
X99749000Y-142557088D01*
X99804760Y-142276759D01*
X99914139Y-142012695D01*
X100072934Y-141775042D01*
X100275042Y-141572934D01*
X100512695Y-141414139D01*
X100776759Y-141304760D01*
X101057088Y-141249000D01*
X101342912Y-141249000D01*
X101623241Y-141304760D01*
G37*
G36*
X129475880Y-129959776D02*
G01*
X129856593Y-130035504D01*
X130266249Y-130205189D01*
X130634929Y-130451534D01*
X130948466Y-130765071D01*
X131194811Y-131133751D01*
X131364496Y-131543407D01*
X131451000Y-131978296D01*
X131451000Y-132421704D01*
X131364496Y-132856593D01*
X131194811Y-133266249D01*
X130948466Y-133634929D01*
X130634929Y-133948466D01*
X130266249Y-134194811D01*
X129856593Y-134364496D01*
X129475880Y-134440224D01*
X129421705Y-134451000D01*
X128978295Y-134451000D01*
X128924120Y-134440224D01*
X128543407Y-134364496D01*
X128133751Y-134194811D01*
X127765071Y-133948466D01*
X127451534Y-133634929D01*
X127205189Y-133266249D01*
X127035504Y-132856593D01*
X126949000Y-132421704D01*
X126949000Y-131978296D01*
X127035504Y-131543407D01*
X127205189Y-131133751D01*
X127451534Y-130765071D01*
X127765071Y-130451534D01*
X128133751Y-130205189D01*
X128543407Y-130035504D01*
X128924120Y-129959776D01*
X128978295Y-129949000D01*
X129421705Y-129949000D01*
X129475880Y-129959776D01*
G37*
G36*
X102234239Y-116191467D02*
G01*
X102548282Y-116253934D01*
X103139926Y-116499001D01*
X103672392Y-116854784D01*
X104125216Y-117307608D01*
X104480999Y-117840074D01*
X104726066Y-118431718D01*
X104726066Y-118431719D01*
X104851000Y-119059803D01*
X104851000Y-119700197D01*
X104800445Y-119954353D01*
X104726066Y-120328282D01*
X104480999Y-120919926D01*
X104125216Y-121452392D01*
X103672392Y-121905216D01*
X103139926Y-122260999D01*
X102548282Y-122506066D01*
X102234239Y-122568533D01*
X101920197Y-122631000D01*
X101279803Y-122631000D01*
X100965761Y-122568533D01*
X100651718Y-122506066D01*
X100060074Y-122260999D01*
X99527608Y-121905216D01*
X99074784Y-121452392D01*
X98719001Y-120919926D01*
X98473934Y-120328282D01*
X98399555Y-119954353D01*
X98349000Y-119700197D01*
X98349000Y-119059803D01*
X98473934Y-118431719D01*
X98473934Y-118431718D01*
X98719001Y-117840074D01*
X99074784Y-117307608D01*
X99527608Y-116854784D01*
X100060074Y-116499001D01*
X100651718Y-116253934D01*
X100965761Y-116191467D01*
X101279803Y-116129000D01*
X101920197Y-116129000D01*
X102234239Y-116191467D01*
G37*
G36*
X127634239Y-116191467D02*
G01*
X127948282Y-116253934D01*
X128539926Y-116499001D01*
X129072392Y-116854784D01*
X129525216Y-117307608D01*
X129880999Y-117840074D01*
X130126066Y-118431718D01*
X130126066Y-118431719D01*
X130251000Y-119059803D01*
X130251000Y-119700197D01*
X130200445Y-119954353D01*
X130126066Y-120328282D01*
X129880999Y-120919926D01*
X129525216Y-121452392D01*
X129072392Y-121905216D01*
X128539926Y-122260999D01*
X127948282Y-122506066D01*
X127634239Y-122568533D01*
X127320197Y-122631000D01*
X126679803Y-122631000D01*
X126365761Y-122568533D01*
X126051718Y-122506066D01*
X125460074Y-122260999D01*
X124927608Y-121905216D01*
X124474784Y-121452392D01*
X124119001Y-120919926D01*
X123873934Y-120328282D01*
X123799555Y-119954353D01*
X123749000Y-119700197D01*
X123749000Y-119059803D01*
X123873934Y-118431719D01*
X123873934Y-118431718D01*
X124119001Y-117840074D01*
X124474784Y-117307608D01*
X124927608Y-116854784D01*
X125460074Y-116499001D01*
X126051718Y-116253934D01*
X126365761Y-116191467D01*
X126679803Y-116129000D01*
X127320197Y-116129000D01*
X127634239Y-116191467D01*
G37*
G36*
X110121000Y-120281000D02*
G01*
X108319000Y-120281000D01*
X108319000Y-118479000D01*
X110121000Y-118479000D01*
X110121000Y-120281000D01*
G37*
G36*
X119493512Y-118483927D02*
G01*
X119642812Y-118513624D01*
X119806784Y-118581544D01*
X119954354Y-118680147D01*
X120079853Y-118805646D01*
X120178456Y-118953216D01*
X120246376Y-119117188D01*
X120281000Y-119291259D01*
X120281000Y-119468741D01*
X120246376Y-119642812D01*
X120178456Y-119806784D01*
X120079853Y-119954354D01*
X119954354Y-120079853D01*
X119806784Y-120178456D01*
X119642812Y-120246376D01*
X119493512Y-120276073D01*
X119468742Y-120281000D01*
X119291258Y-120281000D01*
X119266488Y-120276073D01*
X119117188Y-120246376D01*
X118953216Y-120178456D01*
X118805646Y-120079853D01*
X118680147Y-119954354D01*
X118581544Y-119806784D01*
X118513624Y-119642812D01*
X118479000Y-119468741D01*
X118479000Y-119291259D01*
X118513624Y-119117188D01*
X118581544Y-118953216D01*
X118680147Y-118805646D01*
X118805646Y-118680147D01*
X118953216Y-118581544D01*
X119117188Y-118513624D01*
X119266488Y-118483927D01*
X119291258Y-118479000D01*
X119468742Y-118479000D01*
X119493512Y-118483927D01*
G37*
G36*
X116953512Y-118483927D02*
G01*
X117102812Y-118513624D01*
X117266784Y-118581544D01*
X117414354Y-118680147D01*
X117539853Y-118805646D01*
X117638456Y-118953216D01*
X117706376Y-119117188D01*
X117741000Y-119291259D01*
X117741000Y-119468741D01*
X117706376Y-119642812D01*
X117638456Y-119806784D01*
X117539853Y-119954354D01*
X117414354Y-120079853D01*
X117266784Y-120178456D01*
X117102812Y-120246376D01*
X116953512Y-120276073D01*
X116928742Y-120281000D01*
X116751258Y-120281000D01*
X116726488Y-120276073D01*
X116577188Y-120246376D01*
X116413216Y-120178456D01*
X116265646Y-120079853D01*
X116140147Y-119954354D01*
X116041544Y-119806784D01*
X115973624Y-119642812D01*
X115939000Y-119468741D01*
X115939000Y-119291259D01*
X115973624Y-119117188D01*
X116041544Y-118953216D01*
X116140147Y-118805646D01*
X116265646Y-118680147D01*
X116413216Y-118581544D01*
X116577188Y-118513624D01*
X116726488Y-118483927D01*
X116751258Y-118479000D01*
X116928742Y-118479000D01*
X116953512Y-118483927D01*
G37*
G36*
X114413512Y-118483927D02*
G01*
X114562812Y-118513624D01*
X114726784Y-118581544D01*
X114874354Y-118680147D01*
X114999853Y-118805646D01*
X115098456Y-118953216D01*
X115166376Y-119117188D01*
X115201000Y-119291259D01*
X115201000Y-119468741D01*
X115166376Y-119642812D01*
X115098456Y-119806784D01*
X114999853Y-119954354D01*
X114874354Y-120079853D01*
X114726784Y-120178456D01*
X114562812Y-120246376D01*
X114413512Y-120276073D01*
X114388742Y-120281000D01*
X114211258Y-120281000D01*
X114186488Y-120276073D01*
X114037188Y-120246376D01*
X113873216Y-120178456D01*
X113725646Y-120079853D01*
X113600147Y-119954354D01*
X113501544Y-119806784D01*
X113433624Y-119642812D01*
X113399000Y-119468741D01*
X113399000Y-119291259D01*
X113433624Y-119117188D01*
X113501544Y-118953216D01*
X113600147Y-118805646D01*
X113725646Y-118680147D01*
X113873216Y-118581544D01*
X114037188Y-118513624D01*
X114186488Y-118483927D01*
X114211258Y-118479000D01*
X114388742Y-118479000D01*
X114413512Y-118483927D01*
G37*
G36*
X111873512Y-118483927D02*
G01*
X112022812Y-118513624D01*
X112186784Y-118581544D01*
X112334354Y-118680147D01*
X112459853Y-118805646D01*
X112558456Y-118953216D01*
X112626376Y-119117188D01*
X112661000Y-119291259D01*
X112661000Y-119468741D01*
X112626376Y-119642812D01*
X112558456Y-119806784D01*
X112459853Y-119954354D01*
X112334354Y-120079853D01*
X112186784Y-120178456D01*
X112022812Y-120246376D01*
X111873512Y-120276073D01*
X111848742Y-120281000D01*
X111671258Y-120281000D01*
X111646488Y-120276073D01*
X111497188Y-120246376D01*
X111333216Y-120178456D01*
X111185646Y-120079853D01*
X111060147Y-119954354D01*
X110961544Y-119806784D01*
X110893624Y-119642812D01*
X110859000Y-119468741D01*
X110859000Y-119291259D01*
X110893624Y-119117188D01*
X110961544Y-118953216D01*
X111060147Y-118805646D01*
X111185646Y-118680147D01*
X111333216Y-118581544D01*
X111497188Y-118513624D01*
X111646488Y-118483927D01*
X111671258Y-118479000D01*
X111848742Y-118479000D01*
X111873512Y-118483927D01*
G37*
M02*
