G04 #@! TF.GenerationSoftware,KiCad,Pcbnew,(5.1.5)-3*
G04 #@! TF.CreationDate,2020-10-27T23:36:23+01:00*
G04 #@! TF.ProjectId,error_amplifier_1,6572726f-725f-4616-9d70-6c6966696572,rev?*
G04 #@! TF.SameCoordinates,Original*
G04 #@! TF.FileFunction,Copper,L2,Bot*
G04 #@! TF.FilePolarity,Positive*
%FSLAX46Y46*%
G04 Gerber Fmt 4.6, Leading zero omitted, Abs format (unit mm)*
G04 Created by KiCad (PCBNEW (5.1.5)-3) date 2020-10-27 23:36:23*
%MOMM*%
%LPD*%
G04 APERTURE LIST*
%ADD10C,2.800000*%
%ADD11C,0.700000*%
%ADD12C,4.400000*%
%ADD13O,1.700000X1.700000*%
%ADD14R,1.700000X1.700000*%
%ADD15C,0.800000*%
%ADD16C,6.400000*%
%ADD17C,0.400000*%
%ADD18C,0.300000*%
%ADD19C,0.254000*%
G04 APERTURE END LIST*
D10*
X101200000Y-142700000D03*
D11*
X130366726Y-131033274D03*
X129200000Y-130550000D03*
X128033274Y-131033274D03*
X127550000Y-132200000D03*
X128033274Y-133366726D03*
X129200000Y-133850000D03*
X130366726Y-133366726D03*
X130850000Y-132200000D03*
D12*
X129200000Y-132200000D03*
D13*
X119380000Y-152400000D03*
X116840000Y-152400000D03*
X114300000Y-152400000D03*
X111760000Y-152400000D03*
D14*
X109220000Y-152400000D03*
D13*
X119380000Y-119380000D03*
X116840000Y-119380000D03*
X114300000Y-119380000D03*
X111760000Y-119380000D03*
D14*
X109220000Y-119380000D03*
D15*
X128697056Y-150702944D03*
X127000000Y-150000000D03*
X125302944Y-150702944D03*
X124600000Y-152400000D03*
X125302944Y-154097056D03*
X127000000Y-154800000D03*
X128697056Y-154097056D03*
X129400000Y-152400000D03*
D16*
X127000000Y-152400000D03*
D15*
X103297056Y-117682944D03*
X101600000Y-116980000D03*
X99902944Y-117682944D03*
X99200000Y-119380000D03*
X99902944Y-121077056D03*
X101600000Y-121780000D03*
X103297056Y-121077056D03*
X104000000Y-119380000D03*
D16*
X101600000Y-119380000D03*
D15*
X103297056Y-150702944D03*
X101600000Y-150000000D03*
X99902944Y-150702944D03*
X99200000Y-152400000D03*
X99902944Y-154097056D03*
X101600000Y-154800000D03*
X103297056Y-154097056D03*
X104000000Y-152400000D03*
D16*
X101600000Y-152400000D03*
D15*
X128697056Y-117682944D03*
X127000000Y-116980000D03*
X125302944Y-117682944D03*
X124600000Y-119380000D03*
X125302944Y-121077056D03*
X127000000Y-121780000D03*
X128697056Y-121077056D03*
X129400000Y-119380000D03*
D16*
X127000000Y-119380000D03*
D15*
X121200000Y-150200000D03*
X114400000Y-148600000D03*
X103700000Y-136600000D03*
X109900000Y-124000000D03*
X113100000Y-126900000D03*
X109600000Y-127900000D03*
X110900000Y-156000000D03*
X121900000Y-139900000D03*
X122700000Y-135100000D03*
X110900000Y-122300000D03*
X101400000Y-126400000D03*
X119900000Y-125300000D03*
X110100000Y-134100000D03*
X118900000Y-133000000D03*
X111200000Y-138300000D03*
X117852951Y-138592276D03*
D17*
X104799999Y-155599999D02*
X107799999Y-155599999D01*
X101600000Y-152400000D02*
X104799999Y-155599999D01*
X107799999Y-155599999D02*
X109100000Y-156900000D01*
X122500000Y-156900000D02*
X127000000Y-152400000D01*
X109100000Y-156900000D02*
X122500000Y-156900000D01*
X120229999Y-153249999D02*
X120229999Y-155870001D01*
X119380000Y-152400000D02*
X120229999Y-153249999D01*
X120229999Y-155870001D02*
X119200000Y-156900000D01*
X121200000Y-150200000D02*
X119700000Y-148700000D01*
X119700000Y-148700000D02*
X114500000Y-148700000D01*
X114500000Y-148700000D02*
X114400000Y-148600000D01*
D18*
X103700000Y-136600000D02*
X103700000Y-130200000D01*
X103700000Y-130200000D02*
X109900000Y-124000000D01*
X112534315Y-126900000D02*
X111534315Y-127900000D01*
X113100000Y-126900000D02*
X112534315Y-126900000D01*
X111534315Y-127900000D02*
X109600000Y-127900000D01*
D17*
X113450001Y-153449999D02*
X113450001Y-153249999D01*
X113450001Y-153249999D02*
X114300000Y-152400000D01*
X110900000Y-156000000D02*
X113450001Y-153449999D01*
D18*
X121900000Y-139334315D02*
X122700000Y-138534315D01*
X121900000Y-139900000D02*
X121900000Y-139334315D01*
X122700000Y-138534315D02*
X122700000Y-135100000D01*
D17*
X110334315Y-122300000D02*
X106234315Y-126400000D01*
X110900000Y-122300000D02*
X110334315Y-122300000D01*
X106234315Y-126400000D02*
X101400000Y-126400000D01*
D18*
X111760000Y-120582081D02*
X112777919Y-121600000D01*
X111760000Y-119380000D02*
X111760000Y-120582081D01*
X112777919Y-121600000D02*
X116200000Y-121600000D01*
X116200000Y-121600000D02*
X119900000Y-125300000D01*
X110665685Y-134100000D02*
X111765685Y-133000000D01*
X110100000Y-134100000D02*
X110665685Y-134100000D01*
X111765685Y-133000000D02*
X118900000Y-133000000D01*
D17*
X128400000Y-133000000D02*
X129200000Y-132200000D01*
X118900000Y-133000000D02*
X128400000Y-133000000D01*
D18*
X111200000Y-138300000D02*
X117560675Y-138300000D01*
X117560675Y-138300000D02*
X117852951Y-138592276D01*
D19*
G36*
X129904545Y-114998909D02*
G01*
X130255208Y-115104780D01*
X130578625Y-115276744D01*
X130862484Y-115508254D01*
X131095965Y-115790486D01*
X131270183Y-116112695D01*
X131378502Y-116462614D01*
X131420000Y-116857443D01*
X131420000Y-130419601D01*
X131402088Y-130392793D01*
X131007207Y-129997912D01*
X130542876Y-129687656D01*
X130026939Y-129473948D01*
X129479223Y-129365000D01*
X128920777Y-129365000D01*
X128373061Y-129473948D01*
X127857124Y-129687656D01*
X127392793Y-129997912D01*
X126997912Y-130392793D01*
X126687656Y-130857124D01*
X126473948Y-131373061D01*
X126365000Y-131920777D01*
X126365000Y-132165000D01*
X119513285Y-132165000D01*
X119390256Y-132082795D01*
X119201898Y-132004774D01*
X119001939Y-131965000D01*
X118798061Y-131965000D01*
X118598102Y-132004774D01*
X118409744Y-132082795D01*
X118240226Y-132196063D01*
X118221289Y-132215000D01*
X111804240Y-132215000D01*
X111765685Y-132211203D01*
X111727129Y-132215000D01*
X111727124Y-132215000D01*
X111686711Y-132218980D01*
X111611798Y-132226358D01*
X111463825Y-132271246D01*
X111327452Y-132344138D01*
X111281652Y-132381726D01*
X111237872Y-132417655D01*
X111237869Y-132417658D01*
X111207921Y-132442236D01*
X111183343Y-132472185D01*
X110507155Y-133148373D01*
X110401898Y-133104774D01*
X110201939Y-133065000D01*
X109998061Y-133065000D01*
X109798102Y-133104774D01*
X109609744Y-133182795D01*
X109440226Y-133296063D01*
X109296063Y-133440226D01*
X109182795Y-133609744D01*
X109104774Y-133798102D01*
X109065000Y-133998061D01*
X109065000Y-134201939D01*
X109104774Y-134401898D01*
X109182795Y-134590256D01*
X109296063Y-134759774D01*
X109440226Y-134903937D01*
X109609744Y-135017205D01*
X109798102Y-135095226D01*
X109998061Y-135135000D01*
X110201939Y-135135000D01*
X110401898Y-135095226D01*
X110590256Y-135017205D01*
X110759774Y-134903937D01*
X110786847Y-134876864D01*
X110819572Y-134873641D01*
X110967545Y-134828754D01*
X111103918Y-134755862D01*
X111223449Y-134657764D01*
X111248032Y-134627810D01*
X112090843Y-133785000D01*
X118221289Y-133785000D01*
X118240226Y-133803937D01*
X118409744Y-133917205D01*
X118598102Y-133995226D01*
X118798061Y-134035000D01*
X119001939Y-134035000D01*
X119201898Y-133995226D01*
X119390256Y-133917205D01*
X119513285Y-133835000D01*
X126882847Y-133835000D01*
X126997912Y-134007207D01*
X127392793Y-134402088D01*
X127857124Y-134712344D01*
X128373061Y-134926052D01*
X128920777Y-135035000D01*
X129479223Y-135035000D01*
X130026939Y-134926052D01*
X130542876Y-134712344D01*
X131007207Y-134402088D01*
X131402088Y-134007207D01*
X131420000Y-133980399D01*
X131420001Y-154907711D01*
X131381091Y-155304545D01*
X131275220Y-155655206D01*
X131103257Y-155978623D01*
X130871748Y-156262482D01*
X130589514Y-156495965D01*
X130267304Y-156670184D01*
X129917385Y-156778502D01*
X129522557Y-156820000D01*
X111535734Y-156820000D01*
X111559774Y-156803937D01*
X111703937Y-156659774D01*
X111817205Y-156490256D01*
X111895226Y-156301898D01*
X111924093Y-156156775D01*
X112979987Y-155100881D01*
X124478724Y-155100881D01*
X124838912Y-155590548D01*
X125502882Y-155950849D01*
X126224385Y-156174694D01*
X126975695Y-156253480D01*
X127727938Y-156184178D01*
X128452208Y-155969452D01*
X129120670Y-155617555D01*
X129161088Y-155590548D01*
X129521276Y-155100881D01*
X127000000Y-152579605D01*
X124478724Y-155100881D01*
X112979987Y-155100881D01*
X114011429Y-154069439D01*
X114043292Y-154043290D01*
X114147637Y-153916145D01*
X114164284Y-153885000D01*
X114446260Y-153885000D01*
X114733158Y-153827932D01*
X115003411Y-153715990D01*
X115246632Y-153553475D01*
X115453475Y-153346632D01*
X115570000Y-153172240D01*
X115686525Y-153346632D01*
X115893368Y-153553475D01*
X116136589Y-153715990D01*
X116406842Y-153827932D01*
X116693740Y-153885000D01*
X116986260Y-153885000D01*
X117273158Y-153827932D01*
X117543411Y-153715990D01*
X117786632Y-153553475D01*
X117993475Y-153346632D01*
X118115195Y-153164466D01*
X118184822Y-153281355D01*
X118379731Y-153497588D01*
X118613080Y-153671641D01*
X118875901Y-153796825D01*
X119023110Y-153841476D01*
X119253000Y-153720155D01*
X119253000Y-152527000D01*
X119507000Y-152527000D01*
X119507000Y-153720155D01*
X119736890Y-153841476D01*
X119884099Y-153796825D01*
X120146920Y-153671641D01*
X120380269Y-153497588D01*
X120575178Y-153281355D01*
X120724157Y-153031252D01*
X120821481Y-152756891D01*
X120700814Y-152527000D01*
X119507000Y-152527000D01*
X119253000Y-152527000D01*
X119233000Y-152527000D01*
X119233000Y-152375695D01*
X123146520Y-152375695D01*
X123215822Y-153127938D01*
X123430548Y-153852208D01*
X123782445Y-154520670D01*
X123809452Y-154561088D01*
X124299119Y-154921276D01*
X126820395Y-152400000D01*
X127179605Y-152400000D01*
X129700881Y-154921276D01*
X130190548Y-154561088D01*
X130550849Y-153897118D01*
X130774694Y-153175615D01*
X130853480Y-152424305D01*
X130784178Y-151672062D01*
X130569452Y-150947792D01*
X130217555Y-150279330D01*
X130190548Y-150238912D01*
X129700881Y-149878724D01*
X127179605Y-152400000D01*
X126820395Y-152400000D01*
X124299119Y-149878724D01*
X123809452Y-150238912D01*
X123449151Y-150902882D01*
X123225306Y-151624385D01*
X123146520Y-152375695D01*
X119233000Y-152375695D01*
X119233000Y-152273000D01*
X119253000Y-152273000D01*
X119253000Y-151079845D01*
X119507000Y-151079845D01*
X119507000Y-152273000D01*
X120700814Y-152273000D01*
X120821481Y-152043109D01*
X120724157Y-151768748D01*
X120575178Y-151518645D01*
X120380269Y-151302412D01*
X120146920Y-151128359D01*
X119884099Y-151003175D01*
X119736890Y-150958524D01*
X119507000Y-151079845D01*
X119253000Y-151079845D01*
X119023110Y-150958524D01*
X118875901Y-151003175D01*
X118613080Y-151128359D01*
X118379731Y-151302412D01*
X118184822Y-151518645D01*
X118115195Y-151635534D01*
X117993475Y-151453368D01*
X117786632Y-151246525D01*
X117543411Y-151084010D01*
X117273158Y-150972068D01*
X116986260Y-150915000D01*
X116693740Y-150915000D01*
X116406842Y-150972068D01*
X116136589Y-151084010D01*
X115893368Y-151246525D01*
X115686525Y-151453368D01*
X115570000Y-151627760D01*
X115453475Y-151453368D01*
X115246632Y-151246525D01*
X115003411Y-151084010D01*
X114733158Y-150972068D01*
X114446260Y-150915000D01*
X114153740Y-150915000D01*
X113866842Y-150972068D01*
X113596589Y-151084010D01*
X113353368Y-151246525D01*
X113146525Y-151453368D01*
X113030000Y-151627760D01*
X112913475Y-151453368D01*
X112706632Y-151246525D01*
X112463411Y-151084010D01*
X112193158Y-150972068D01*
X111906260Y-150915000D01*
X111613740Y-150915000D01*
X111326842Y-150972068D01*
X111056589Y-151084010D01*
X110813368Y-151246525D01*
X110681513Y-151378380D01*
X110659502Y-151305820D01*
X110600537Y-151195506D01*
X110521185Y-151098815D01*
X110424494Y-151019463D01*
X110314180Y-150960498D01*
X110194482Y-150924188D01*
X110070000Y-150911928D01*
X108370000Y-150911928D01*
X108245518Y-150924188D01*
X108125820Y-150960498D01*
X108015506Y-151019463D01*
X107918815Y-151098815D01*
X107839463Y-151195506D01*
X107780498Y-151305820D01*
X107744188Y-151425518D01*
X107731928Y-151550000D01*
X107731928Y-153250000D01*
X107744188Y-153374482D01*
X107780498Y-153494180D01*
X107839463Y-153604494D01*
X107918815Y-153701185D01*
X108015506Y-153780537D01*
X108125820Y-153839502D01*
X108245518Y-153875812D01*
X108370000Y-153888072D01*
X110070000Y-153888072D01*
X110194482Y-153875812D01*
X110314180Y-153839502D01*
X110424494Y-153780537D01*
X110521185Y-153701185D01*
X110600537Y-153604494D01*
X110659502Y-153494180D01*
X110681513Y-153421620D01*
X110813368Y-153553475D01*
X111056589Y-153715990D01*
X111326842Y-153827932D01*
X111613740Y-153885000D01*
X111834132Y-153885000D01*
X110743225Y-154975907D01*
X110598102Y-155004774D01*
X110409744Y-155082795D01*
X110240226Y-155196063D01*
X110096063Y-155340226D01*
X109982795Y-155509744D01*
X109904774Y-155698102D01*
X109865000Y-155898061D01*
X109865000Y-156101939D01*
X109904774Y-156301898D01*
X109982795Y-156490256D01*
X110096063Y-156659774D01*
X110240226Y-156803937D01*
X110264266Y-156820000D01*
X99092279Y-156820000D01*
X98695455Y-156781091D01*
X98344794Y-156675220D01*
X98021377Y-156503257D01*
X97737518Y-156271748D01*
X97504035Y-155989514D01*
X97329816Y-155667304D01*
X97221498Y-155317385D01*
X97198743Y-155100881D01*
X99078724Y-155100881D01*
X99438912Y-155590548D01*
X100102882Y-155950849D01*
X100824385Y-156174694D01*
X101575695Y-156253480D01*
X102327938Y-156184178D01*
X103052208Y-155969452D01*
X103720670Y-155617555D01*
X103761088Y-155590548D01*
X104121276Y-155100881D01*
X101600000Y-152579605D01*
X99078724Y-155100881D01*
X97198743Y-155100881D01*
X97180000Y-154922557D01*
X97180000Y-152375695D01*
X97746520Y-152375695D01*
X97815822Y-153127938D01*
X98030548Y-153852208D01*
X98382445Y-154520670D01*
X98409452Y-154561088D01*
X98899119Y-154921276D01*
X101420395Y-152400000D01*
X101779605Y-152400000D01*
X104300881Y-154921276D01*
X104790548Y-154561088D01*
X105150849Y-153897118D01*
X105374694Y-153175615D01*
X105453480Y-152424305D01*
X105384178Y-151672062D01*
X105169452Y-150947792D01*
X104817555Y-150279330D01*
X104790548Y-150238912D01*
X104300881Y-149878724D01*
X101779605Y-152400000D01*
X101420395Y-152400000D01*
X98899119Y-149878724D01*
X98409452Y-150238912D01*
X98049151Y-150902882D01*
X97825306Y-151624385D01*
X97746520Y-152375695D01*
X97180000Y-152375695D01*
X97180000Y-149699119D01*
X99078724Y-149699119D01*
X101600000Y-152220395D01*
X104121276Y-149699119D01*
X124478724Y-149699119D01*
X127000000Y-152220395D01*
X129521276Y-149699119D01*
X129161088Y-149209452D01*
X128497118Y-148849151D01*
X127775615Y-148625306D01*
X127024305Y-148546520D01*
X126272062Y-148615822D01*
X125547792Y-148830548D01*
X124879330Y-149182445D01*
X124838912Y-149209452D01*
X124478724Y-149699119D01*
X104121276Y-149699119D01*
X103761088Y-149209452D01*
X103097118Y-148849151D01*
X102375615Y-148625306D01*
X101624305Y-148546520D01*
X100872062Y-148615822D01*
X100147792Y-148830548D01*
X99479330Y-149182445D01*
X99438912Y-149209452D01*
X99078724Y-149699119D01*
X97180000Y-149699119D01*
X97180000Y-144120447D01*
X99959158Y-144120447D01*
X100103135Y-144425770D01*
X100460892Y-144606597D01*
X100847053Y-144714155D01*
X101246777Y-144744310D01*
X101644704Y-144695904D01*
X102025540Y-144570795D01*
X102296865Y-144425770D01*
X102440842Y-144120447D01*
X101200000Y-142879605D01*
X99959158Y-144120447D01*
X97180000Y-144120447D01*
X97180000Y-142746777D01*
X99155690Y-142746777D01*
X99204096Y-143144704D01*
X99329205Y-143525540D01*
X99474230Y-143796865D01*
X99779553Y-143940842D01*
X101020395Y-142700000D01*
X101379605Y-142700000D01*
X102620447Y-143940842D01*
X102925770Y-143796865D01*
X103106597Y-143439108D01*
X103214155Y-143052947D01*
X103244310Y-142653223D01*
X103195904Y-142255296D01*
X103070795Y-141874460D01*
X102925770Y-141603135D01*
X102620447Y-141459158D01*
X101379605Y-142700000D01*
X101020395Y-142700000D01*
X99779553Y-141459158D01*
X99474230Y-141603135D01*
X99293403Y-141960892D01*
X99185845Y-142347053D01*
X99155690Y-142746777D01*
X97180000Y-142746777D01*
X97180000Y-141279553D01*
X99959158Y-141279553D01*
X101200000Y-142520395D01*
X102440842Y-141279553D01*
X102296865Y-140974230D01*
X101939108Y-140793403D01*
X101552947Y-140685845D01*
X101153223Y-140655690D01*
X100755296Y-140704096D01*
X100374460Y-140829205D01*
X100103135Y-140974230D01*
X99959158Y-141279553D01*
X97180000Y-141279553D01*
X97180000Y-139798061D01*
X120865000Y-139798061D01*
X120865000Y-140001939D01*
X120904774Y-140201898D01*
X120982795Y-140390256D01*
X121096063Y-140559774D01*
X121240226Y-140703937D01*
X121409744Y-140817205D01*
X121598102Y-140895226D01*
X121798061Y-140935000D01*
X122001939Y-140935000D01*
X122201898Y-140895226D01*
X122390256Y-140817205D01*
X122559774Y-140703937D01*
X122703937Y-140559774D01*
X122817205Y-140390256D01*
X122895226Y-140201898D01*
X122935000Y-140001939D01*
X122935000Y-139798061D01*
X122895226Y-139598102D01*
X122851627Y-139492845D01*
X123227811Y-139116661D01*
X123257764Y-139092079D01*
X123355862Y-138972548D01*
X123428754Y-138836175D01*
X123437755Y-138806503D01*
X123473642Y-138688202D01*
X123483089Y-138592276D01*
X123485000Y-138572876D01*
X123485000Y-138572871D01*
X123488797Y-138534315D01*
X123485000Y-138495759D01*
X123485000Y-135778711D01*
X123503937Y-135759774D01*
X123617205Y-135590256D01*
X123695226Y-135401898D01*
X123735000Y-135201939D01*
X123735000Y-134998061D01*
X123695226Y-134798102D01*
X123617205Y-134609744D01*
X123503937Y-134440226D01*
X123359774Y-134296063D01*
X123190256Y-134182795D01*
X123001898Y-134104774D01*
X122801939Y-134065000D01*
X122598061Y-134065000D01*
X122398102Y-134104774D01*
X122209744Y-134182795D01*
X122040226Y-134296063D01*
X121896063Y-134440226D01*
X121782795Y-134609744D01*
X121704774Y-134798102D01*
X121665000Y-134998061D01*
X121665000Y-135201939D01*
X121704774Y-135401898D01*
X121782795Y-135590256D01*
X121896063Y-135759774D01*
X121915001Y-135778712D01*
X121915000Y-138209158D01*
X121372185Y-138751973D01*
X121342237Y-138776551D01*
X121317659Y-138806499D01*
X121317655Y-138806503D01*
X121293305Y-138836174D01*
X121244139Y-138896082D01*
X121171246Y-139032455D01*
X121126359Y-139180428D01*
X121123136Y-139213153D01*
X121096063Y-139240226D01*
X120982795Y-139409744D01*
X120904774Y-139598102D01*
X120865000Y-139798061D01*
X97180000Y-139798061D01*
X97180000Y-138198061D01*
X110165000Y-138198061D01*
X110165000Y-138401939D01*
X110204774Y-138601898D01*
X110282795Y-138790256D01*
X110396063Y-138959774D01*
X110540226Y-139103937D01*
X110709744Y-139217205D01*
X110898102Y-139295226D01*
X111098061Y-139335000D01*
X111301939Y-139335000D01*
X111501898Y-139295226D01*
X111690256Y-139217205D01*
X111859774Y-139103937D01*
X111878711Y-139085000D01*
X116937395Y-139085000D01*
X117049014Y-139252050D01*
X117193177Y-139396213D01*
X117362695Y-139509481D01*
X117551053Y-139587502D01*
X117751012Y-139627276D01*
X117954890Y-139627276D01*
X118154849Y-139587502D01*
X118343207Y-139509481D01*
X118512725Y-139396213D01*
X118656888Y-139252050D01*
X118770156Y-139082532D01*
X118848177Y-138894174D01*
X118887951Y-138694215D01*
X118887951Y-138490337D01*
X118848177Y-138290378D01*
X118770156Y-138102020D01*
X118656888Y-137932502D01*
X118512725Y-137788339D01*
X118343207Y-137675071D01*
X118154849Y-137597050D01*
X117954890Y-137557276D01*
X117816482Y-137557276D01*
X117714562Y-137526359D01*
X117599236Y-137515000D01*
X117599228Y-137515000D01*
X117560675Y-137511203D01*
X117522122Y-137515000D01*
X111878711Y-137515000D01*
X111859774Y-137496063D01*
X111690256Y-137382795D01*
X111501898Y-137304774D01*
X111301939Y-137265000D01*
X111098061Y-137265000D01*
X110898102Y-137304774D01*
X110709744Y-137382795D01*
X110540226Y-137496063D01*
X110396063Y-137640226D01*
X110282795Y-137809744D01*
X110204774Y-137998102D01*
X110165000Y-138198061D01*
X97180000Y-138198061D01*
X97180000Y-126298061D01*
X100365000Y-126298061D01*
X100365000Y-126501939D01*
X100404774Y-126701898D01*
X100482795Y-126890256D01*
X100596063Y-127059774D01*
X100740226Y-127203937D01*
X100909744Y-127317205D01*
X101098102Y-127395226D01*
X101298061Y-127435000D01*
X101501939Y-127435000D01*
X101701898Y-127395226D01*
X101890256Y-127317205D01*
X102013285Y-127235000D01*
X105554843Y-127235000D01*
X103172185Y-129617658D01*
X103142237Y-129642236D01*
X103117659Y-129672184D01*
X103117655Y-129672188D01*
X103113621Y-129677104D01*
X103044139Y-129761767D01*
X103031774Y-129784901D01*
X102971246Y-129898141D01*
X102926359Y-130046114D01*
X102911203Y-130200000D01*
X102915001Y-130238563D01*
X102915000Y-135921289D01*
X102896063Y-135940226D01*
X102782795Y-136109744D01*
X102704774Y-136298102D01*
X102665000Y-136498061D01*
X102665000Y-136701939D01*
X102704774Y-136901898D01*
X102782795Y-137090256D01*
X102896063Y-137259774D01*
X103040226Y-137403937D01*
X103209744Y-137517205D01*
X103398102Y-137595226D01*
X103598061Y-137635000D01*
X103801939Y-137635000D01*
X104001898Y-137595226D01*
X104190256Y-137517205D01*
X104359774Y-137403937D01*
X104503937Y-137259774D01*
X104617205Y-137090256D01*
X104695226Y-136901898D01*
X104735000Y-136701939D01*
X104735000Y-136498061D01*
X104695226Y-136298102D01*
X104617205Y-136109744D01*
X104503937Y-135940226D01*
X104485000Y-135921289D01*
X104485000Y-130525157D01*
X107212096Y-127798061D01*
X108565000Y-127798061D01*
X108565000Y-128001939D01*
X108604774Y-128201898D01*
X108682795Y-128390256D01*
X108796063Y-128559774D01*
X108940226Y-128703937D01*
X109109744Y-128817205D01*
X109298102Y-128895226D01*
X109498061Y-128935000D01*
X109701939Y-128935000D01*
X109901898Y-128895226D01*
X110090256Y-128817205D01*
X110259774Y-128703937D01*
X110278711Y-128685000D01*
X111495762Y-128685000D01*
X111534315Y-128688797D01*
X111572868Y-128685000D01*
X111572876Y-128685000D01*
X111688202Y-128673641D01*
X111836175Y-128628754D01*
X111972548Y-128555862D01*
X112092079Y-128457764D01*
X112116662Y-128427810D01*
X112692845Y-127851627D01*
X112798102Y-127895226D01*
X112998061Y-127935000D01*
X113201939Y-127935000D01*
X113401898Y-127895226D01*
X113590256Y-127817205D01*
X113759774Y-127703937D01*
X113903937Y-127559774D01*
X114017205Y-127390256D01*
X114095226Y-127201898D01*
X114135000Y-127001939D01*
X114135000Y-126798061D01*
X114095226Y-126598102D01*
X114017205Y-126409744D01*
X113903937Y-126240226D01*
X113759774Y-126096063D01*
X113590256Y-125982795D01*
X113401898Y-125904774D01*
X113201939Y-125865000D01*
X112998061Y-125865000D01*
X112798102Y-125904774D01*
X112609744Y-125982795D01*
X112440226Y-126096063D01*
X112413154Y-126123135D01*
X112380428Y-126126358D01*
X112232455Y-126171246D01*
X112096082Y-126244138D01*
X111976551Y-126342236D01*
X111951968Y-126372190D01*
X111209158Y-127115000D01*
X110278711Y-127115000D01*
X110259774Y-127096063D01*
X110090256Y-126982795D01*
X109901898Y-126904774D01*
X109701939Y-126865000D01*
X109498061Y-126865000D01*
X109298102Y-126904774D01*
X109109744Y-126982795D01*
X108940226Y-127096063D01*
X108796063Y-127240226D01*
X108682795Y-127409744D01*
X108604774Y-127598102D01*
X108565000Y-127798061D01*
X107212096Y-127798061D01*
X109975158Y-125035000D01*
X110001939Y-125035000D01*
X110201898Y-124995226D01*
X110390256Y-124917205D01*
X110559774Y-124803937D01*
X110703937Y-124659774D01*
X110817205Y-124490256D01*
X110895226Y-124301898D01*
X110935000Y-124101939D01*
X110935000Y-123898061D01*
X110895226Y-123698102D01*
X110817205Y-123509744D01*
X110703937Y-123340226D01*
X110674042Y-123310331D01*
X110798061Y-123335000D01*
X111001939Y-123335000D01*
X111201898Y-123295226D01*
X111390256Y-123217205D01*
X111559774Y-123103937D01*
X111703937Y-122959774D01*
X111817205Y-122790256D01*
X111895226Y-122601898D01*
X111935000Y-122401939D01*
X111935000Y-122198061D01*
X111895226Y-121998102D01*
X111817205Y-121809744D01*
X111703937Y-121640226D01*
X111559774Y-121496063D01*
X111390256Y-121382795D01*
X111201898Y-121304774D01*
X111001939Y-121265000D01*
X110798061Y-121265000D01*
X110598102Y-121304774D01*
X110409744Y-121382795D01*
X110285577Y-121465760D01*
X110170626Y-121477082D01*
X110013228Y-121524828D01*
X109868169Y-121602364D01*
X109741024Y-121706709D01*
X109714878Y-121738568D01*
X105888448Y-125565000D01*
X102013285Y-125565000D01*
X101890256Y-125482795D01*
X101701898Y-125404774D01*
X101501939Y-125365000D01*
X101298061Y-125365000D01*
X101098102Y-125404774D01*
X100909744Y-125482795D01*
X100740226Y-125596063D01*
X100596063Y-125740226D01*
X100482795Y-125909744D01*
X100404774Y-126098102D01*
X100365000Y-126298061D01*
X97180000Y-126298061D01*
X97180000Y-122080881D01*
X99078724Y-122080881D01*
X99438912Y-122570548D01*
X100102882Y-122930849D01*
X100824385Y-123154694D01*
X101575695Y-123233480D01*
X102327938Y-123164178D01*
X103052208Y-122949452D01*
X103720670Y-122597555D01*
X103761088Y-122570548D01*
X104121276Y-122080881D01*
X101600000Y-119559605D01*
X99078724Y-122080881D01*
X97180000Y-122080881D01*
X97180000Y-119355695D01*
X97746520Y-119355695D01*
X97815822Y-120107938D01*
X98030548Y-120832208D01*
X98382445Y-121500670D01*
X98409452Y-121541088D01*
X98899119Y-121901276D01*
X101420395Y-119380000D01*
X101779605Y-119380000D01*
X104300881Y-121901276D01*
X104790548Y-121541088D01*
X105150849Y-120877118D01*
X105351616Y-120230000D01*
X107731928Y-120230000D01*
X107744188Y-120354482D01*
X107780498Y-120474180D01*
X107839463Y-120584494D01*
X107918815Y-120681185D01*
X108015506Y-120760537D01*
X108125820Y-120819502D01*
X108245518Y-120855812D01*
X108370000Y-120868072D01*
X108934250Y-120865000D01*
X109093000Y-120706250D01*
X109093000Y-119507000D01*
X107893750Y-119507000D01*
X107735000Y-119665750D01*
X107731928Y-120230000D01*
X105351616Y-120230000D01*
X105374694Y-120155615D01*
X105453480Y-119404305D01*
X105384178Y-118652062D01*
X105347990Y-118530000D01*
X107731928Y-118530000D01*
X107735000Y-119094250D01*
X107893750Y-119253000D01*
X109093000Y-119253000D01*
X109093000Y-118053750D01*
X109347000Y-118053750D01*
X109347000Y-119253000D01*
X109367000Y-119253000D01*
X109367000Y-119507000D01*
X109347000Y-119507000D01*
X109347000Y-120706250D01*
X109505750Y-120865000D01*
X110070000Y-120868072D01*
X110194482Y-120855812D01*
X110314180Y-120819502D01*
X110424494Y-120760537D01*
X110521185Y-120681185D01*
X110600537Y-120584494D01*
X110659502Y-120474180D01*
X110681513Y-120401620D01*
X110813368Y-120533475D01*
X110977197Y-120642942D01*
X110986359Y-120735967D01*
X111031246Y-120883940D01*
X111031247Y-120883941D01*
X111104139Y-121020314D01*
X111144690Y-121069725D01*
X111177655Y-121109893D01*
X111177659Y-121109897D01*
X111202237Y-121139845D01*
X111232185Y-121164423D01*
X112195572Y-122127810D01*
X112220155Y-122157764D01*
X112339686Y-122255862D01*
X112435053Y-122306836D01*
X112476059Y-122328754D01*
X112624032Y-122373642D01*
X112698945Y-122381020D01*
X112739358Y-122385000D01*
X112739363Y-122385000D01*
X112777919Y-122388797D01*
X112816475Y-122385000D01*
X115874843Y-122385000D01*
X118865000Y-125375158D01*
X118865000Y-125401939D01*
X118904774Y-125601898D01*
X118982795Y-125790256D01*
X119096063Y-125959774D01*
X119240226Y-126103937D01*
X119409744Y-126217205D01*
X119598102Y-126295226D01*
X119798061Y-126335000D01*
X120001939Y-126335000D01*
X120201898Y-126295226D01*
X120390256Y-126217205D01*
X120559774Y-126103937D01*
X120703937Y-125959774D01*
X120817205Y-125790256D01*
X120895226Y-125601898D01*
X120935000Y-125401939D01*
X120935000Y-125198061D01*
X120895226Y-124998102D01*
X120817205Y-124809744D01*
X120703937Y-124640226D01*
X120559774Y-124496063D01*
X120390256Y-124382795D01*
X120201898Y-124304774D01*
X120001939Y-124265000D01*
X119975158Y-124265000D01*
X117791039Y-122080881D01*
X124478724Y-122080881D01*
X124838912Y-122570548D01*
X125502882Y-122930849D01*
X126224385Y-123154694D01*
X126975695Y-123233480D01*
X127727938Y-123164178D01*
X128452208Y-122949452D01*
X129120670Y-122597555D01*
X129161088Y-122570548D01*
X129521276Y-122080881D01*
X127000000Y-119559605D01*
X124478724Y-122080881D01*
X117791039Y-122080881D01*
X116782345Y-121072188D01*
X116757764Y-121042236D01*
X116638233Y-120944138D01*
X116501860Y-120871246D01*
X116353887Y-120826359D01*
X116238561Y-120815000D01*
X116238553Y-120815000D01*
X116200000Y-120811203D01*
X116161447Y-120815000D01*
X114697625Y-120815000D01*
X114733158Y-120807932D01*
X115003411Y-120695990D01*
X115246632Y-120533475D01*
X115453475Y-120326632D01*
X115570000Y-120152240D01*
X115686525Y-120326632D01*
X115893368Y-120533475D01*
X116136589Y-120695990D01*
X116406842Y-120807932D01*
X116693740Y-120865000D01*
X116986260Y-120865000D01*
X117273158Y-120807932D01*
X117543411Y-120695990D01*
X117786632Y-120533475D01*
X117993475Y-120326632D01*
X118115195Y-120144466D01*
X118184822Y-120261355D01*
X118379731Y-120477588D01*
X118613080Y-120651641D01*
X118875901Y-120776825D01*
X119023110Y-120821476D01*
X119253000Y-120700155D01*
X119253000Y-119507000D01*
X119507000Y-119507000D01*
X119507000Y-120700155D01*
X119736890Y-120821476D01*
X119884099Y-120776825D01*
X120146920Y-120651641D01*
X120380269Y-120477588D01*
X120575178Y-120261355D01*
X120724157Y-120011252D01*
X120821481Y-119736891D01*
X120700814Y-119507000D01*
X119507000Y-119507000D01*
X119253000Y-119507000D01*
X119233000Y-119507000D01*
X119233000Y-119355695D01*
X123146520Y-119355695D01*
X123215822Y-120107938D01*
X123430548Y-120832208D01*
X123782445Y-121500670D01*
X123809452Y-121541088D01*
X124299119Y-121901276D01*
X126820395Y-119380000D01*
X127179605Y-119380000D01*
X129700881Y-121901276D01*
X130190548Y-121541088D01*
X130550849Y-120877118D01*
X130774694Y-120155615D01*
X130853480Y-119404305D01*
X130784178Y-118652062D01*
X130569452Y-117927792D01*
X130217555Y-117259330D01*
X130190548Y-117218912D01*
X129700881Y-116858724D01*
X127179605Y-119380000D01*
X126820395Y-119380000D01*
X124299119Y-116858724D01*
X123809452Y-117218912D01*
X123449151Y-117882882D01*
X123225306Y-118604385D01*
X123146520Y-119355695D01*
X119233000Y-119355695D01*
X119233000Y-119253000D01*
X119253000Y-119253000D01*
X119253000Y-118059845D01*
X119507000Y-118059845D01*
X119507000Y-119253000D01*
X120700814Y-119253000D01*
X120821481Y-119023109D01*
X120724157Y-118748748D01*
X120575178Y-118498645D01*
X120380269Y-118282412D01*
X120146920Y-118108359D01*
X119884099Y-117983175D01*
X119736890Y-117938524D01*
X119507000Y-118059845D01*
X119253000Y-118059845D01*
X119023110Y-117938524D01*
X118875901Y-117983175D01*
X118613080Y-118108359D01*
X118379731Y-118282412D01*
X118184822Y-118498645D01*
X118115195Y-118615534D01*
X117993475Y-118433368D01*
X117786632Y-118226525D01*
X117543411Y-118064010D01*
X117273158Y-117952068D01*
X116986260Y-117895000D01*
X116693740Y-117895000D01*
X116406842Y-117952068D01*
X116136589Y-118064010D01*
X115893368Y-118226525D01*
X115686525Y-118433368D01*
X115570000Y-118607760D01*
X115453475Y-118433368D01*
X115246632Y-118226525D01*
X115003411Y-118064010D01*
X114733158Y-117952068D01*
X114446260Y-117895000D01*
X114153740Y-117895000D01*
X113866842Y-117952068D01*
X113596589Y-118064010D01*
X113353368Y-118226525D01*
X113146525Y-118433368D01*
X113030000Y-118607760D01*
X112913475Y-118433368D01*
X112706632Y-118226525D01*
X112463411Y-118064010D01*
X112193158Y-117952068D01*
X111906260Y-117895000D01*
X111613740Y-117895000D01*
X111326842Y-117952068D01*
X111056589Y-118064010D01*
X110813368Y-118226525D01*
X110681513Y-118358380D01*
X110659502Y-118285820D01*
X110600537Y-118175506D01*
X110521185Y-118078815D01*
X110424494Y-117999463D01*
X110314180Y-117940498D01*
X110194482Y-117904188D01*
X110070000Y-117891928D01*
X109505750Y-117895000D01*
X109347000Y-118053750D01*
X109093000Y-118053750D01*
X108934250Y-117895000D01*
X108370000Y-117891928D01*
X108245518Y-117904188D01*
X108125820Y-117940498D01*
X108015506Y-117999463D01*
X107918815Y-118078815D01*
X107839463Y-118175506D01*
X107780498Y-118285820D01*
X107744188Y-118405518D01*
X107731928Y-118530000D01*
X105347990Y-118530000D01*
X105169452Y-117927792D01*
X104817555Y-117259330D01*
X104790548Y-117218912D01*
X104300881Y-116858724D01*
X101779605Y-119380000D01*
X101420395Y-119380000D01*
X98899119Y-116858724D01*
X98409452Y-117218912D01*
X98049151Y-117882882D01*
X97825306Y-118604385D01*
X97746520Y-119355695D01*
X97180000Y-119355695D01*
X97180000Y-116872279D01*
X97198939Y-116679119D01*
X99078724Y-116679119D01*
X101600000Y-119200395D01*
X104121276Y-116679119D01*
X124478724Y-116679119D01*
X127000000Y-119200395D01*
X129521276Y-116679119D01*
X129161088Y-116189452D01*
X128497118Y-115829151D01*
X127775615Y-115605306D01*
X127024305Y-115526520D01*
X126272062Y-115595822D01*
X125547792Y-115810548D01*
X124879330Y-116162445D01*
X124838912Y-116189452D01*
X124478724Y-116679119D01*
X104121276Y-116679119D01*
X103761088Y-116189452D01*
X103097118Y-115829151D01*
X102375615Y-115605306D01*
X101624305Y-115526520D01*
X100872062Y-115595822D01*
X100147792Y-115810548D01*
X99479330Y-116162445D01*
X99438912Y-116189452D01*
X99078724Y-116679119D01*
X97198939Y-116679119D01*
X97218909Y-116475455D01*
X97324780Y-116124792D01*
X97496744Y-115801375D01*
X97728254Y-115517516D01*
X98010486Y-115284035D01*
X98332695Y-115109817D01*
X98682614Y-115001498D01*
X99077443Y-114960000D01*
X129507721Y-114960000D01*
X129904545Y-114998909D01*
G37*
X129904545Y-114998909D02*
X130255208Y-115104780D01*
X130578625Y-115276744D01*
X130862484Y-115508254D01*
X131095965Y-115790486D01*
X131270183Y-116112695D01*
X131378502Y-116462614D01*
X131420000Y-116857443D01*
X131420000Y-130419601D01*
X131402088Y-130392793D01*
X131007207Y-129997912D01*
X130542876Y-129687656D01*
X130026939Y-129473948D01*
X129479223Y-129365000D01*
X128920777Y-129365000D01*
X128373061Y-129473948D01*
X127857124Y-129687656D01*
X127392793Y-129997912D01*
X126997912Y-130392793D01*
X126687656Y-130857124D01*
X126473948Y-131373061D01*
X126365000Y-131920777D01*
X126365000Y-132165000D01*
X119513285Y-132165000D01*
X119390256Y-132082795D01*
X119201898Y-132004774D01*
X119001939Y-131965000D01*
X118798061Y-131965000D01*
X118598102Y-132004774D01*
X118409744Y-132082795D01*
X118240226Y-132196063D01*
X118221289Y-132215000D01*
X111804240Y-132215000D01*
X111765685Y-132211203D01*
X111727129Y-132215000D01*
X111727124Y-132215000D01*
X111686711Y-132218980D01*
X111611798Y-132226358D01*
X111463825Y-132271246D01*
X111327452Y-132344138D01*
X111281652Y-132381726D01*
X111237872Y-132417655D01*
X111237869Y-132417658D01*
X111207921Y-132442236D01*
X111183343Y-132472185D01*
X110507155Y-133148373D01*
X110401898Y-133104774D01*
X110201939Y-133065000D01*
X109998061Y-133065000D01*
X109798102Y-133104774D01*
X109609744Y-133182795D01*
X109440226Y-133296063D01*
X109296063Y-133440226D01*
X109182795Y-133609744D01*
X109104774Y-133798102D01*
X109065000Y-133998061D01*
X109065000Y-134201939D01*
X109104774Y-134401898D01*
X109182795Y-134590256D01*
X109296063Y-134759774D01*
X109440226Y-134903937D01*
X109609744Y-135017205D01*
X109798102Y-135095226D01*
X109998061Y-135135000D01*
X110201939Y-135135000D01*
X110401898Y-135095226D01*
X110590256Y-135017205D01*
X110759774Y-134903937D01*
X110786847Y-134876864D01*
X110819572Y-134873641D01*
X110967545Y-134828754D01*
X111103918Y-134755862D01*
X111223449Y-134657764D01*
X111248032Y-134627810D01*
X112090843Y-133785000D01*
X118221289Y-133785000D01*
X118240226Y-133803937D01*
X118409744Y-133917205D01*
X118598102Y-133995226D01*
X118798061Y-134035000D01*
X119001939Y-134035000D01*
X119201898Y-133995226D01*
X119390256Y-133917205D01*
X119513285Y-133835000D01*
X126882847Y-133835000D01*
X126997912Y-134007207D01*
X127392793Y-134402088D01*
X127857124Y-134712344D01*
X128373061Y-134926052D01*
X128920777Y-135035000D01*
X129479223Y-135035000D01*
X130026939Y-134926052D01*
X130542876Y-134712344D01*
X131007207Y-134402088D01*
X131402088Y-134007207D01*
X131420000Y-133980399D01*
X131420001Y-154907711D01*
X131381091Y-155304545D01*
X131275220Y-155655206D01*
X131103257Y-155978623D01*
X130871748Y-156262482D01*
X130589514Y-156495965D01*
X130267304Y-156670184D01*
X129917385Y-156778502D01*
X129522557Y-156820000D01*
X111535734Y-156820000D01*
X111559774Y-156803937D01*
X111703937Y-156659774D01*
X111817205Y-156490256D01*
X111895226Y-156301898D01*
X111924093Y-156156775D01*
X112979987Y-155100881D01*
X124478724Y-155100881D01*
X124838912Y-155590548D01*
X125502882Y-155950849D01*
X126224385Y-156174694D01*
X126975695Y-156253480D01*
X127727938Y-156184178D01*
X128452208Y-155969452D01*
X129120670Y-155617555D01*
X129161088Y-155590548D01*
X129521276Y-155100881D01*
X127000000Y-152579605D01*
X124478724Y-155100881D01*
X112979987Y-155100881D01*
X114011429Y-154069439D01*
X114043292Y-154043290D01*
X114147637Y-153916145D01*
X114164284Y-153885000D01*
X114446260Y-153885000D01*
X114733158Y-153827932D01*
X115003411Y-153715990D01*
X115246632Y-153553475D01*
X115453475Y-153346632D01*
X115570000Y-153172240D01*
X115686525Y-153346632D01*
X115893368Y-153553475D01*
X116136589Y-153715990D01*
X116406842Y-153827932D01*
X116693740Y-153885000D01*
X116986260Y-153885000D01*
X117273158Y-153827932D01*
X117543411Y-153715990D01*
X117786632Y-153553475D01*
X117993475Y-153346632D01*
X118115195Y-153164466D01*
X118184822Y-153281355D01*
X118379731Y-153497588D01*
X118613080Y-153671641D01*
X118875901Y-153796825D01*
X119023110Y-153841476D01*
X119253000Y-153720155D01*
X119253000Y-152527000D01*
X119507000Y-152527000D01*
X119507000Y-153720155D01*
X119736890Y-153841476D01*
X119884099Y-153796825D01*
X120146920Y-153671641D01*
X120380269Y-153497588D01*
X120575178Y-153281355D01*
X120724157Y-153031252D01*
X120821481Y-152756891D01*
X120700814Y-152527000D01*
X119507000Y-152527000D01*
X119253000Y-152527000D01*
X119233000Y-152527000D01*
X119233000Y-152375695D01*
X123146520Y-152375695D01*
X123215822Y-153127938D01*
X123430548Y-153852208D01*
X123782445Y-154520670D01*
X123809452Y-154561088D01*
X124299119Y-154921276D01*
X126820395Y-152400000D01*
X127179605Y-152400000D01*
X129700881Y-154921276D01*
X130190548Y-154561088D01*
X130550849Y-153897118D01*
X130774694Y-153175615D01*
X130853480Y-152424305D01*
X130784178Y-151672062D01*
X130569452Y-150947792D01*
X130217555Y-150279330D01*
X130190548Y-150238912D01*
X129700881Y-149878724D01*
X127179605Y-152400000D01*
X126820395Y-152400000D01*
X124299119Y-149878724D01*
X123809452Y-150238912D01*
X123449151Y-150902882D01*
X123225306Y-151624385D01*
X123146520Y-152375695D01*
X119233000Y-152375695D01*
X119233000Y-152273000D01*
X119253000Y-152273000D01*
X119253000Y-151079845D01*
X119507000Y-151079845D01*
X119507000Y-152273000D01*
X120700814Y-152273000D01*
X120821481Y-152043109D01*
X120724157Y-151768748D01*
X120575178Y-151518645D01*
X120380269Y-151302412D01*
X120146920Y-151128359D01*
X119884099Y-151003175D01*
X119736890Y-150958524D01*
X119507000Y-151079845D01*
X119253000Y-151079845D01*
X119023110Y-150958524D01*
X118875901Y-151003175D01*
X118613080Y-151128359D01*
X118379731Y-151302412D01*
X118184822Y-151518645D01*
X118115195Y-151635534D01*
X117993475Y-151453368D01*
X117786632Y-151246525D01*
X117543411Y-151084010D01*
X117273158Y-150972068D01*
X116986260Y-150915000D01*
X116693740Y-150915000D01*
X116406842Y-150972068D01*
X116136589Y-151084010D01*
X115893368Y-151246525D01*
X115686525Y-151453368D01*
X115570000Y-151627760D01*
X115453475Y-151453368D01*
X115246632Y-151246525D01*
X115003411Y-151084010D01*
X114733158Y-150972068D01*
X114446260Y-150915000D01*
X114153740Y-150915000D01*
X113866842Y-150972068D01*
X113596589Y-151084010D01*
X113353368Y-151246525D01*
X113146525Y-151453368D01*
X113030000Y-151627760D01*
X112913475Y-151453368D01*
X112706632Y-151246525D01*
X112463411Y-151084010D01*
X112193158Y-150972068D01*
X111906260Y-150915000D01*
X111613740Y-150915000D01*
X111326842Y-150972068D01*
X111056589Y-151084010D01*
X110813368Y-151246525D01*
X110681513Y-151378380D01*
X110659502Y-151305820D01*
X110600537Y-151195506D01*
X110521185Y-151098815D01*
X110424494Y-151019463D01*
X110314180Y-150960498D01*
X110194482Y-150924188D01*
X110070000Y-150911928D01*
X108370000Y-150911928D01*
X108245518Y-150924188D01*
X108125820Y-150960498D01*
X108015506Y-151019463D01*
X107918815Y-151098815D01*
X107839463Y-151195506D01*
X107780498Y-151305820D01*
X107744188Y-151425518D01*
X107731928Y-151550000D01*
X107731928Y-153250000D01*
X107744188Y-153374482D01*
X107780498Y-153494180D01*
X107839463Y-153604494D01*
X107918815Y-153701185D01*
X108015506Y-153780537D01*
X108125820Y-153839502D01*
X108245518Y-153875812D01*
X108370000Y-153888072D01*
X110070000Y-153888072D01*
X110194482Y-153875812D01*
X110314180Y-153839502D01*
X110424494Y-153780537D01*
X110521185Y-153701185D01*
X110600537Y-153604494D01*
X110659502Y-153494180D01*
X110681513Y-153421620D01*
X110813368Y-153553475D01*
X111056589Y-153715990D01*
X111326842Y-153827932D01*
X111613740Y-153885000D01*
X111834132Y-153885000D01*
X110743225Y-154975907D01*
X110598102Y-155004774D01*
X110409744Y-155082795D01*
X110240226Y-155196063D01*
X110096063Y-155340226D01*
X109982795Y-155509744D01*
X109904774Y-155698102D01*
X109865000Y-155898061D01*
X109865000Y-156101939D01*
X109904774Y-156301898D01*
X109982795Y-156490256D01*
X110096063Y-156659774D01*
X110240226Y-156803937D01*
X110264266Y-156820000D01*
X99092279Y-156820000D01*
X98695455Y-156781091D01*
X98344794Y-156675220D01*
X98021377Y-156503257D01*
X97737518Y-156271748D01*
X97504035Y-155989514D01*
X97329816Y-155667304D01*
X97221498Y-155317385D01*
X97198743Y-155100881D01*
X99078724Y-155100881D01*
X99438912Y-155590548D01*
X100102882Y-155950849D01*
X100824385Y-156174694D01*
X101575695Y-156253480D01*
X102327938Y-156184178D01*
X103052208Y-155969452D01*
X103720670Y-155617555D01*
X103761088Y-155590548D01*
X104121276Y-155100881D01*
X101600000Y-152579605D01*
X99078724Y-155100881D01*
X97198743Y-155100881D01*
X97180000Y-154922557D01*
X97180000Y-152375695D01*
X97746520Y-152375695D01*
X97815822Y-153127938D01*
X98030548Y-153852208D01*
X98382445Y-154520670D01*
X98409452Y-154561088D01*
X98899119Y-154921276D01*
X101420395Y-152400000D01*
X101779605Y-152400000D01*
X104300881Y-154921276D01*
X104790548Y-154561088D01*
X105150849Y-153897118D01*
X105374694Y-153175615D01*
X105453480Y-152424305D01*
X105384178Y-151672062D01*
X105169452Y-150947792D01*
X104817555Y-150279330D01*
X104790548Y-150238912D01*
X104300881Y-149878724D01*
X101779605Y-152400000D01*
X101420395Y-152400000D01*
X98899119Y-149878724D01*
X98409452Y-150238912D01*
X98049151Y-150902882D01*
X97825306Y-151624385D01*
X97746520Y-152375695D01*
X97180000Y-152375695D01*
X97180000Y-149699119D01*
X99078724Y-149699119D01*
X101600000Y-152220395D01*
X104121276Y-149699119D01*
X124478724Y-149699119D01*
X127000000Y-152220395D01*
X129521276Y-149699119D01*
X129161088Y-149209452D01*
X128497118Y-148849151D01*
X127775615Y-148625306D01*
X127024305Y-148546520D01*
X126272062Y-148615822D01*
X125547792Y-148830548D01*
X124879330Y-149182445D01*
X124838912Y-149209452D01*
X124478724Y-149699119D01*
X104121276Y-149699119D01*
X103761088Y-149209452D01*
X103097118Y-148849151D01*
X102375615Y-148625306D01*
X101624305Y-148546520D01*
X100872062Y-148615822D01*
X100147792Y-148830548D01*
X99479330Y-149182445D01*
X99438912Y-149209452D01*
X99078724Y-149699119D01*
X97180000Y-149699119D01*
X97180000Y-144120447D01*
X99959158Y-144120447D01*
X100103135Y-144425770D01*
X100460892Y-144606597D01*
X100847053Y-144714155D01*
X101246777Y-144744310D01*
X101644704Y-144695904D01*
X102025540Y-144570795D01*
X102296865Y-144425770D01*
X102440842Y-144120447D01*
X101200000Y-142879605D01*
X99959158Y-144120447D01*
X97180000Y-144120447D01*
X97180000Y-142746777D01*
X99155690Y-142746777D01*
X99204096Y-143144704D01*
X99329205Y-143525540D01*
X99474230Y-143796865D01*
X99779553Y-143940842D01*
X101020395Y-142700000D01*
X101379605Y-142700000D01*
X102620447Y-143940842D01*
X102925770Y-143796865D01*
X103106597Y-143439108D01*
X103214155Y-143052947D01*
X103244310Y-142653223D01*
X103195904Y-142255296D01*
X103070795Y-141874460D01*
X102925770Y-141603135D01*
X102620447Y-141459158D01*
X101379605Y-142700000D01*
X101020395Y-142700000D01*
X99779553Y-141459158D01*
X99474230Y-141603135D01*
X99293403Y-141960892D01*
X99185845Y-142347053D01*
X99155690Y-142746777D01*
X97180000Y-142746777D01*
X97180000Y-141279553D01*
X99959158Y-141279553D01*
X101200000Y-142520395D01*
X102440842Y-141279553D01*
X102296865Y-140974230D01*
X101939108Y-140793403D01*
X101552947Y-140685845D01*
X101153223Y-140655690D01*
X100755296Y-140704096D01*
X100374460Y-140829205D01*
X100103135Y-140974230D01*
X99959158Y-141279553D01*
X97180000Y-141279553D01*
X97180000Y-139798061D01*
X120865000Y-139798061D01*
X120865000Y-140001939D01*
X120904774Y-140201898D01*
X120982795Y-140390256D01*
X121096063Y-140559774D01*
X121240226Y-140703937D01*
X121409744Y-140817205D01*
X121598102Y-140895226D01*
X121798061Y-140935000D01*
X122001939Y-140935000D01*
X122201898Y-140895226D01*
X122390256Y-140817205D01*
X122559774Y-140703937D01*
X122703937Y-140559774D01*
X122817205Y-140390256D01*
X122895226Y-140201898D01*
X122935000Y-140001939D01*
X122935000Y-139798061D01*
X122895226Y-139598102D01*
X122851627Y-139492845D01*
X123227811Y-139116661D01*
X123257764Y-139092079D01*
X123355862Y-138972548D01*
X123428754Y-138836175D01*
X123437755Y-138806503D01*
X123473642Y-138688202D01*
X123483089Y-138592276D01*
X123485000Y-138572876D01*
X123485000Y-138572871D01*
X123488797Y-138534315D01*
X123485000Y-138495759D01*
X123485000Y-135778711D01*
X123503937Y-135759774D01*
X123617205Y-135590256D01*
X123695226Y-135401898D01*
X123735000Y-135201939D01*
X123735000Y-134998061D01*
X123695226Y-134798102D01*
X123617205Y-134609744D01*
X123503937Y-134440226D01*
X123359774Y-134296063D01*
X123190256Y-134182795D01*
X123001898Y-134104774D01*
X122801939Y-134065000D01*
X122598061Y-134065000D01*
X122398102Y-134104774D01*
X122209744Y-134182795D01*
X122040226Y-134296063D01*
X121896063Y-134440226D01*
X121782795Y-134609744D01*
X121704774Y-134798102D01*
X121665000Y-134998061D01*
X121665000Y-135201939D01*
X121704774Y-135401898D01*
X121782795Y-135590256D01*
X121896063Y-135759774D01*
X121915001Y-135778712D01*
X121915000Y-138209158D01*
X121372185Y-138751973D01*
X121342237Y-138776551D01*
X121317659Y-138806499D01*
X121317655Y-138806503D01*
X121293305Y-138836174D01*
X121244139Y-138896082D01*
X121171246Y-139032455D01*
X121126359Y-139180428D01*
X121123136Y-139213153D01*
X121096063Y-139240226D01*
X120982795Y-139409744D01*
X120904774Y-139598102D01*
X120865000Y-139798061D01*
X97180000Y-139798061D01*
X97180000Y-138198061D01*
X110165000Y-138198061D01*
X110165000Y-138401939D01*
X110204774Y-138601898D01*
X110282795Y-138790256D01*
X110396063Y-138959774D01*
X110540226Y-139103937D01*
X110709744Y-139217205D01*
X110898102Y-139295226D01*
X111098061Y-139335000D01*
X111301939Y-139335000D01*
X111501898Y-139295226D01*
X111690256Y-139217205D01*
X111859774Y-139103937D01*
X111878711Y-139085000D01*
X116937395Y-139085000D01*
X117049014Y-139252050D01*
X117193177Y-139396213D01*
X117362695Y-139509481D01*
X117551053Y-139587502D01*
X117751012Y-139627276D01*
X117954890Y-139627276D01*
X118154849Y-139587502D01*
X118343207Y-139509481D01*
X118512725Y-139396213D01*
X118656888Y-139252050D01*
X118770156Y-139082532D01*
X118848177Y-138894174D01*
X118887951Y-138694215D01*
X118887951Y-138490337D01*
X118848177Y-138290378D01*
X118770156Y-138102020D01*
X118656888Y-137932502D01*
X118512725Y-137788339D01*
X118343207Y-137675071D01*
X118154849Y-137597050D01*
X117954890Y-137557276D01*
X117816482Y-137557276D01*
X117714562Y-137526359D01*
X117599236Y-137515000D01*
X117599228Y-137515000D01*
X117560675Y-137511203D01*
X117522122Y-137515000D01*
X111878711Y-137515000D01*
X111859774Y-137496063D01*
X111690256Y-137382795D01*
X111501898Y-137304774D01*
X111301939Y-137265000D01*
X111098061Y-137265000D01*
X110898102Y-137304774D01*
X110709744Y-137382795D01*
X110540226Y-137496063D01*
X110396063Y-137640226D01*
X110282795Y-137809744D01*
X110204774Y-137998102D01*
X110165000Y-138198061D01*
X97180000Y-138198061D01*
X97180000Y-126298061D01*
X100365000Y-126298061D01*
X100365000Y-126501939D01*
X100404774Y-126701898D01*
X100482795Y-126890256D01*
X100596063Y-127059774D01*
X100740226Y-127203937D01*
X100909744Y-127317205D01*
X101098102Y-127395226D01*
X101298061Y-127435000D01*
X101501939Y-127435000D01*
X101701898Y-127395226D01*
X101890256Y-127317205D01*
X102013285Y-127235000D01*
X105554843Y-127235000D01*
X103172185Y-129617658D01*
X103142237Y-129642236D01*
X103117659Y-129672184D01*
X103117655Y-129672188D01*
X103113621Y-129677104D01*
X103044139Y-129761767D01*
X103031774Y-129784901D01*
X102971246Y-129898141D01*
X102926359Y-130046114D01*
X102911203Y-130200000D01*
X102915001Y-130238563D01*
X102915000Y-135921289D01*
X102896063Y-135940226D01*
X102782795Y-136109744D01*
X102704774Y-136298102D01*
X102665000Y-136498061D01*
X102665000Y-136701939D01*
X102704774Y-136901898D01*
X102782795Y-137090256D01*
X102896063Y-137259774D01*
X103040226Y-137403937D01*
X103209744Y-137517205D01*
X103398102Y-137595226D01*
X103598061Y-137635000D01*
X103801939Y-137635000D01*
X104001898Y-137595226D01*
X104190256Y-137517205D01*
X104359774Y-137403937D01*
X104503937Y-137259774D01*
X104617205Y-137090256D01*
X104695226Y-136901898D01*
X104735000Y-136701939D01*
X104735000Y-136498061D01*
X104695226Y-136298102D01*
X104617205Y-136109744D01*
X104503937Y-135940226D01*
X104485000Y-135921289D01*
X104485000Y-130525157D01*
X107212096Y-127798061D01*
X108565000Y-127798061D01*
X108565000Y-128001939D01*
X108604774Y-128201898D01*
X108682795Y-128390256D01*
X108796063Y-128559774D01*
X108940226Y-128703937D01*
X109109744Y-128817205D01*
X109298102Y-128895226D01*
X109498061Y-128935000D01*
X109701939Y-128935000D01*
X109901898Y-128895226D01*
X110090256Y-128817205D01*
X110259774Y-128703937D01*
X110278711Y-128685000D01*
X111495762Y-128685000D01*
X111534315Y-128688797D01*
X111572868Y-128685000D01*
X111572876Y-128685000D01*
X111688202Y-128673641D01*
X111836175Y-128628754D01*
X111972548Y-128555862D01*
X112092079Y-128457764D01*
X112116662Y-128427810D01*
X112692845Y-127851627D01*
X112798102Y-127895226D01*
X112998061Y-127935000D01*
X113201939Y-127935000D01*
X113401898Y-127895226D01*
X113590256Y-127817205D01*
X113759774Y-127703937D01*
X113903937Y-127559774D01*
X114017205Y-127390256D01*
X114095226Y-127201898D01*
X114135000Y-127001939D01*
X114135000Y-126798061D01*
X114095226Y-126598102D01*
X114017205Y-126409744D01*
X113903937Y-126240226D01*
X113759774Y-126096063D01*
X113590256Y-125982795D01*
X113401898Y-125904774D01*
X113201939Y-125865000D01*
X112998061Y-125865000D01*
X112798102Y-125904774D01*
X112609744Y-125982795D01*
X112440226Y-126096063D01*
X112413154Y-126123135D01*
X112380428Y-126126358D01*
X112232455Y-126171246D01*
X112096082Y-126244138D01*
X111976551Y-126342236D01*
X111951968Y-126372190D01*
X111209158Y-127115000D01*
X110278711Y-127115000D01*
X110259774Y-127096063D01*
X110090256Y-126982795D01*
X109901898Y-126904774D01*
X109701939Y-126865000D01*
X109498061Y-126865000D01*
X109298102Y-126904774D01*
X109109744Y-126982795D01*
X108940226Y-127096063D01*
X108796063Y-127240226D01*
X108682795Y-127409744D01*
X108604774Y-127598102D01*
X108565000Y-127798061D01*
X107212096Y-127798061D01*
X109975158Y-125035000D01*
X110001939Y-125035000D01*
X110201898Y-124995226D01*
X110390256Y-124917205D01*
X110559774Y-124803937D01*
X110703937Y-124659774D01*
X110817205Y-124490256D01*
X110895226Y-124301898D01*
X110935000Y-124101939D01*
X110935000Y-123898061D01*
X110895226Y-123698102D01*
X110817205Y-123509744D01*
X110703937Y-123340226D01*
X110674042Y-123310331D01*
X110798061Y-123335000D01*
X111001939Y-123335000D01*
X111201898Y-123295226D01*
X111390256Y-123217205D01*
X111559774Y-123103937D01*
X111703937Y-122959774D01*
X111817205Y-122790256D01*
X111895226Y-122601898D01*
X111935000Y-122401939D01*
X111935000Y-122198061D01*
X111895226Y-121998102D01*
X111817205Y-121809744D01*
X111703937Y-121640226D01*
X111559774Y-121496063D01*
X111390256Y-121382795D01*
X111201898Y-121304774D01*
X111001939Y-121265000D01*
X110798061Y-121265000D01*
X110598102Y-121304774D01*
X110409744Y-121382795D01*
X110285577Y-121465760D01*
X110170626Y-121477082D01*
X110013228Y-121524828D01*
X109868169Y-121602364D01*
X109741024Y-121706709D01*
X109714878Y-121738568D01*
X105888448Y-125565000D01*
X102013285Y-125565000D01*
X101890256Y-125482795D01*
X101701898Y-125404774D01*
X101501939Y-125365000D01*
X101298061Y-125365000D01*
X101098102Y-125404774D01*
X100909744Y-125482795D01*
X100740226Y-125596063D01*
X100596063Y-125740226D01*
X100482795Y-125909744D01*
X100404774Y-126098102D01*
X100365000Y-126298061D01*
X97180000Y-126298061D01*
X97180000Y-122080881D01*
X99078724Y-122080881D01*
X99438912Y-122570548D01*
X100102882Y-122930849D01*
X100824385Y-123154694D01*
X101575695Y-123233480D01*
X102327938Y-123164178D01*
X103052208Y-122949452D01*
X103720670Y-122597555D01*
X103761088Y-122570548D01*
X104121276Y-122080881D01*
X101600000Y-119559605D01*
X99078724Y-122080881D01*
X97180000Y-122080881D01*
X97180000Y-119355695D01*
X97746520Y-119355695D01*
X97815822Y-120107938D01*
X98030548Y-120832208D01*
X98382445Y-121500670D01*
X98409452Y-121541088D01*
X98899119Y-121901276D01*
X101420395Y-119380000D01*
X101779605Y-119380000D01*
X104300881Y-121901276D01*
X104790548Y-121541088D01*
X105150849Y-120877118D01*
X105351616Y-120230000D01*
X107731928Y-120230000D01*
X107744188Y-120354482D01*
X107780498Y-120474180D01*
X107839463Y-120584494D01*
X107918815Y-120681185D01*
X108015506Y-120760537D01*
X108125820Y-120819502D01*
X108245518Y-120855812D01*
X108370000Y-120868072D01*
X108934250Y-120865000D01*
X109093000Y-120706250D01*
X109093000Y-119507000D01*
X107893750Y-119507000D01*
X107735000Y-119665750D01*
X107731928Y-120230000D01*
X105351616Y-120230000D01*
X105374694Y-120155615D01*
X105453480Y-119404305D01*
X105384178Y-118652062D01*
X105347990Y-118530000D01*
X107731928Y-118530000D01*
X107735000Y-119094250D01*
X107893750Y-119253000D01*
X109093000Y-119253000D01*
X109093000Y-118053750D01*
X109347000Y-118053750D01*
X109347000Y-119253000D01*
X109367000Y-119253000D01*
X109367000Y-119507000D01*
X109347000Y-119507000D01*
X109347000Y-120706250D01*
X109505750Y-120865000D01*
X110070000Y-120868072D01*
X110194482Y-120855812D01*
X110314180Y-120819502D01*
X110424494Y-120760537D01*
X110521185Y-120681185D01*
X110600537Y-120584494D01*
X110659502Y-120474180D01*
X110681513Y-120401620D01*
X110813368Y-120533475D01*
X110977197Y-120642942D01*
X110986359Y-120735967D01*
X111031246Y-120883940D01*
X111031247Y-120883941D01*
X111104139Y-121020314D01*
X111144690Y-121069725D01*
X111177655Y-121109893D01*
X111177659Y-121109897D01*
X111202237Y-121139845D01*
X111232185Y-121164423D01*
X112195572Y-122127810D01*
X112220155Y-122157764D01*
X112339686Y-122255862D01*
X112435053Y-122306836D01*
X112476059Y-122328754D01*
X112624032Y-122373642D01*
X112698945Y-122381020D01*
X112739358Y-122385000D01*
X112739363Y-122385000D01*
X112777919Y-122388797D01*
X112816475Y-122385000D01*
X115874843Y-122385000D01*
X118865000Y-125375158D01*
X118865000Y-125401939D01*
X118904774Y-125601898D01*
X118982795Y-125790256D01*
X119096063Y-125959774D01*
X119240226Y-126103937D01*
X119409744Y-126217205D01*
X119598102Y-126295226D01*
X119798061Y-126335000D01*
X120001939Y-126335000D01*
X120201898Y-126295226D01*
X120390256Y-126217205D01*
X120559774Y-126103937D01*
X120703937Y-125959774D01*
X120817205Y-125790256D01*
X120895226Y-125601898D01*
X120935000Y-125401939D01*
X120935000Y-125198061D01*
X120895226Y-124998102D01*
X120817205Y-124809744D01*
X120703937Y-124640226D01*
X120559774Y-124496063D01*
X120390256Y-124382795D01*
X120201898Y-124304774D01*
X120001939Y-124265000D01*
X119975158Y-124265000D01*
X117791039Y-122080881D01*
X124478724Y-122080881D01*
X124838912Y-122570548D01*
X125502882Y-122930849D01*
X126224385Y-123154694D01*
X126975695Y-123233480D01*
X127727938Y-123164178D01*
X128452208Y-122949452D01*
X129120670Y-122597555D01*
X129161088Y-122570548D01*
X129521276Y-122080881D01*
X127000000Y-119559605D01*
X124478724Y-122080881D01*
X117791039Y-122080881D01*
X116782345Y-121072188D01*
X116757764Y-121042236D01*
X116638233Y-120944138D01*
X116501860Y-120871246D01*
X116353887Y-120826359D01*
X116238561Y-120815000D01*
X116238553Y-120815000D01*
X116200000Y-120811203D01*
X116161447Y-120815000D01*
X114697625Y-120815000D01*
X114733158Y-120807932D01*
X115003411Y-120695990D01*
X115246632Y-120533475D01*
X115453475Y-120326632D01*
X115570000Y-120152240D01*
X115686525Y-120326632D01*
X115893368Y-120533475D01*
X116136589Y-120695990D01*
X116406842Y-120807932D01*
X116693740Y-120865000D01*
X116986260Y-120865000D01*
X117273158Y-120807932D01*
X117543411Y-120695990D01*
X117786632Y-120533475D01*
X117993475Y-120326632D01*
X118115195Y-120144466D01*
X118184822Y-120261355D01*
X118379731Y-120477588D01*
X118613080Y-120651641D01*
X118875901Y-120776825D01*
X119023110Y-120821476D01*
X119253000Y-120700155D01*
X119253000Y-119507000D01*
X119507000Y-119507000D01*
X119507000Y-120700155D01*
X119736890Y-120821476D01*
X119884099Y-120776825D01*
X120146920Y-120651641D01*
X120380269Y-120477588D01*
X120575178Y-120261355D01*
X120724157Y-120011252D01*
X120821481Y-119736891D01*
X120700814Y-119507000D01*
X119507000Y-119507000D01*
X119253000Y-119507000D01*
X119233000Y-119507000D01*
X119233000Y-119355695D01*
X123146520Y-119355695D01*
X123215822Y-120107938D01*
X123430548Y-120832208D01*
X123782445Y-121500670D01*
X123809452Y-121541088D01*
X124299119Y-121901276D01*
X126820395Y-119380000D01*
X127179605Y-119380000D01*
X129700881Y-121901276D01*
X130190548Y-121541088D01*
X130550849Y-120877118D01*
X130774694Y-120155615D01*
X130853480Y-119404305D01*
X130784178Y-118652062D01*
X130569452Y-117927792D01*
X130217555Y-117259330D01*
X130190548Y-117218912D01*
X129700881Y-116858724D01*
X127179605Y-119380000D01*
X126820395Y-119380000D01*
X124299119Y-116858724D01*
X123809452Y-117218912D01*
X123449151Y-117882882D01*
X123225306Y-118604385D01*
X123146520Y-119355695D01*
X119233000Y-119355695D01*
X119233000Y-119253000D01*
X119253000Y-119253000D01*
X119253000Y-118059845D01*
X119507000Y-118059845D01*
X119507000Y-119253000D01*
X120700814Y-119253000D01*
X120821481Y-119023109D01*
X120724157Y-118748748D01*
X120575178Y-118498645D01*
X120380269Y-118282412D01*
X120146920Y-118108359D01*
X119884099Y-117983175D01*
X119736890Y-117938524D01*
X119507000Y-118059845D01*
X119253000Y-118059845D01*
X119023110Y-117938524D01*
X118875901Y-117983175D01*
X118613080Y-118108359D01*
X118379731Y-118282412D01*
X118184822Y-118498645D01*
X118115195Y-118615534D01*
X117993475Y-118433368D01*
X117786632Y-118226525D01*
X117543411Y-118064010D01*
X117273158Y-117952068D01*
X116986260Y-117895000D01*
X116693740Y-117895000D01*
X116406842Y-117952068D01*
X116136589Y-118064010D01*
X115893368Y-118226525D01*
X115686525Y-118433368D01*
X115570000Y-118607760D01*
X115453475Y-118433368D01*
X115246632Y-118226525D01*
X115003411Y-118064010D01*
X114733158Y-117952068D01*
X114446260Y-117895000D01*
X114153740Y-117895000D01*
X113866842Y-117952068D01*
X113596589Y-118064010D01*
X113353368Y-118226525D01*
X113146525Y-118433368D01*
X113030000Y-118607760D01*
X112913475Y-118433368D01*
X112706632Y-118226525D01*
X112463411Y-118064010D01*
X112193158Y-117952068D01*
X111906260Y-117895000D01*
X111613740Y-117895000D01*
X111326842Y-117952068D01*
X111056589Y-118064010D01*
X110813368Y-118226525D01*
X110681513Y-118358380D01*
X110659502Y-118285820D01*
X110600537Y-118175506D01*
X110521185Y-118078815D01*
X110424494Y-117999463D01*
X110314180Y-117940498D01*
X110194482Y-117904188D01*
X110070000Y-117891928D01*
X109505750Y-117895000D01*
X109347000Y-118053750D01*
X109093000Y-118053750D01*
X108934250Y-117895000D01*
X108370000Y-117891928D01*
X108245518Y-117904188D01*
X108125820Y-117940498D01*
X108015506Y-117999463D01*
X107918815Y-118078815D01*
X107839463Y-118175506D01*
X107780498Y-118285820D01*
X107744188Y-118405518D01*
X107731928Y-118530000D01*
X105347990Y-118530000D01*
X105169452Y-117927792D01*
X104817555Y-117259330D01*
X104790548Y-117218912D01*
X104300881Y-116858724D01*
X101779605Y-119380000D01*
X101420395Y-119380000D01*
X98899119Y-116858724D01*
X98409452Y-117218912D01*
X98049151Y-117882882D01*
X97825306Y-118604385D01*
X97746520Y-119355695D01*
X97180000Y-119355695D01*
X97180000Y-116872279D01*
X97198939Y-116679119D01*
X99078724Y-116679119D01*
X101600000Y-119200395D01*
X104121276Y-116679119D01*
X124478724Y-116679119D01*
X127000000Y-119200395D01*
X129521276Y-116679119D01*
X129161088Y-116189452D01*
X128497118Y-115829151D01*
X127775615Y-115605306D01*
X127024305Y-115526520D01*
X126272062Y-115595822D01*
X125547792Y-115810548D01*
X124879330Y-116162445D01*
X124838912Y-116189452D01*
X124478724Y-116679119D01*
X104121276Y-116679119D01*
X103761088Y-116189452D01*
X103097118Y-115829151D01*
X102375615Y-115605306D01*
X101624305Y-115526520D01*
X100872062Y-115595822D01*
X100147792Y-115810548D01*
X99479330Y-116162445D01*
X99438912Y-116189452D01*
X99078724Y-116679119D01*
X97198939Y-116679119D01*
X97218909Y-116475455D01*
X97324780Y-116124792D01*
X97496744Y-115801375D01*
X97728254Y-115517516D01*
X98010486Y-115284035D01*
X98332695Y-115109817D01*
X98682614Y-115001498D01*
X99077443Y-114960000D01*
X129507721Y-114960000D01*
X129904545Y-114998909D01*
M02*
