G04 #@! TF.GenerationSoftware,KiCad,Pcbnew,(5.1.5)-3*
G04 #@! TF.CreationDate,2020-10-27T23:36:23+01:00*
G04 #@! TF.ProjectId,error_amplifier_1,6572726f-725f-4616-9d70-6c6966696572,rev?*
G04 #@! TF.SameCoordinates,Original*
G04 #@! TF.FileFunction,Legend,Top*
G04 #@! TF.FilePolarity,Positive*
%FSLAX46Y46*%
G04 Gerber Fmt 4.6, Leading zero omitted, Abs format (unit mm)*
G04 Created by KiCad (PCBNEW (5.1.5)-3) date 2020-10-27 23:36:23*
%MOMM*%
%LPD*%
G04 APERTURE LIST*
%ADD10C,0.400000*%
%ADD11C,0.120000*%
%ADD12C,0.150000*%
G04 APERTURE END LIST*
D10*
X107361904Y-116221428D02*
X108195238Y-116221428D01*
X108552380Y-117530952D02*
X107361904Y-117530952D01*
X107361904Y-115030952D01*
X108552380Y-115030952D01*
X111052380Y-117530952D02*
X110219047Y-116340476D01*
X109623809Y-117530952D02*
X109623809Y-115030952D01*
X110576190Y-115030952D01*
X110814285Y-115150000D01*
X110933333Y-115269047D01*
X111052380Y-115507142D01*
X111052380Y-115864285D01*
X110933333Y-116102380D01*
X110814285Y-116221428D01*
X110576190Y-116340476D01*
X109623809Y-116340476D01*
X113552380Y-117530952D02*
X112719047Y-116340476D01*
X112123809Y-117530952D02*
X112123809Y-115030952D01*
X113076190Y-115030952D01*
X113314285Y-115150000D01*
X113433333Y-115269047D01*
X113552380Y-115507142D01*
X113552380Y-115864285D01*
X113433333Y-116102380D01*
X113314285Y-116221428D01*
X113076190Y-116340476D01*
X112123809Y-116340476D01*
X116409523Y-116816666D02*
X117600000Y-116816666D01*
X116171428Y-117530952D02*
X117004761Y-115030952D01*
X117838095Y-117530952D01*
X118671428Y-117530952D02*
X118671428Y-115030952D01*
X119504761Y-116816666D01*
X120338095Y-115030952D01*
X120338095Y-117530952D01*
X121528571Y-117530952D02*
X121528571Y-115030952D01*
X122480952Y-115030952D01*
X122719047Y-115150000D01*
X122838095Y-115269047D01*
X122957142Y-115507142D01*
X122957142Y-115864285D01*
X122838095Y-116102380D01*
X122719047Y-116221428D01*
X122480952Y-116340476D01*
X121528571Y-116340476D01*
D11*
X127700000Y-127100000D02*
G75*
G03X127700000Y-127100000I-1200000J0D01*
G01*
X131500000Y-141600000D02*
G75*
G03X131500000Y-141600000I-1200000J0D01*
G01*
X110100000Y-132100000D02*
G75*
G03X110100000Y-132100000I-1200000J0D01*
G01*
X123500000Y-124000000D02*
G75*
G03X123500000Y-124000000I-1200000J0D01*
G01*
X114200000Y-128345000D02*
X110750000Y-128345000D01*
X114200000Y-128345000D02*
X116150000Y-128345000D01*
X114200000Y-137215000D02*
X112250000Y-137215000D01*
X114200000Y-137215000D02*
X116150000Y-137215000D01*
D12*
X102950000Y-142700000D02*
G75*
G03X102950000Y-142700000I-1750000J0D01*
G01*
D11*
X120028733Y-136210000D02*
X120371267Y-136210000D01*
X120028733Y-135190000D02*
X120371267Y-135190000D01*
X122890000Y-137428733D02*
X122890000Y-137771267D01*
X123910000Y-137428733D02*
X123910000Y-137771267D01*
X107790000Y-137128733D02*
X107790000Y-137471267D01*
X108810000Y-137128733D02*
X108810000Y-137471267D01*
X118388733Y-156830000D02*
X118731267Y-156830000D01*
X118388733Y-155810000D02*
X118731267Y-155810000D01*
X115371267Y-154130000D02*
X115028733Y-154130000D01*
X115371267Y-155150000D02*
X115028733Y-155150000D01*
X107110000Y-133971267D02*
X107110000Y-133628733D01*
X106090000Y-133971267D02*
X106090000Y-133628733D01*
X107110000Y-130471267D02*
X107110000Y-130128733D01*
X106090000Y-130471267D02*
X106090000Y-130128733D01*
X111610000Y-125571267D02*
X111610000Y-125228733D01*
X110590000Y-125571267D02*
X110590000Y-125228733D01*
X117810000Y-123271267D02*
X117810000Y-122928733D01*
X116790000Y-123271267D02*
X116790000Y-122928733D01*
X125100000Y-134100000D02*
X123700000Y-134100000D01*
X123000000Y-133400000D02*
X123000000Y-132800000D01*
X123700000Y-132100000D02*
X125100000Y-132100000D01*
X125800000Y-132800000D02*
X125800000Y-133400000D01*
X125800000Y-133400000D02*
G75*
G02X125100000Y-134100000I-700000J0D01*
G01*
X125100000Y-132100000D02*
G75*
G02X125800000Y-132800000I0J-700000D01*
G01*
X123000000Y-132800000D02*
G75*
G02X123700000Y-132100000I700000J0D01*
G01*
X123700000Y-134100000D02*
G75*
G02X123000000Y-133400000I0J700000D01*
G01*
X126100000Y-135550000D02*
G75*
G02X126800000Y-136250000I0J-700000D01*
G01*
X124800000Y-136250000D02*
G75*
G02X125500000Y-135550000I700000J0D01*
G01*
X125500000Y-139650000D02*
G75*
G02X124800000Y-138950000I0J700000D01*
G01*
X126800000Y-138950000D02*
G75*
G02X126100000Y-139650000I-700000J0D01*
G01*
X126800000Y-136200000D02*
X126800000Y-139000000D01*
X126100000Y-139650000D02*
X125500000Y-139650000D01*
X124800000Y-139000000D02*
X124800000Y-136200000D01*
X125500000Y-135550000D02*
X126100000Y-135550000D01*
X120000000Y-132500000D02*
X120000000Y-131100000D01*
X120700000Y-130400000D02*
X121300000Y-130400000D01*
X122000000Y-131100000D02*
X122000000Y-132500000D01*
X121300000Y-133200000D02*
X120700000Y-133200000D01*
X120700000Y-133200000D02*
G75*
G02X120000000Y-132500000I0J700000D01*
G01*
X122000000Y-132500000D02*
G75*
G02X121300000Y-133200000I-700000J0D01*
G01*
X121300000Y-130400000D02*
G75*
G02X122000000Y-131100000I0J-700000D01*
G01*
X120000000Y-131100000D02*
G75*
G02X120700000Y-130400000I700000J0D01*
G01*
X100250000Y-133400000D02*
X101650000Y-133400000D01*
X102350000Y-134100000D02*
X102350000Y-134700000D01*
X101650000Y-135400000D02*
X100250000Y-135400000D01*
X99550000Y-134700000D02*
X99550000Y-134100000D01*
X99550000Y-134100000D02*
G75*
G02X100250000Y-133400000I700000J0D01*
G01*
X100250000Y-135400000D02*
G75*
G02X99550000Y-134700000I0J700000D01*
G01*
X102350000Y-134700000D02*
G75*
G02X101650000Y-135400000I-700000J0D01*
G01*
X101650000Y-133400000D02*
G75*
G02X102350000Y-134100000I0J-700000D01*
G01*
X100250000Y-130800000D02*
X101650000Y-130800000D01*
X102350000Y-131500000D02*
X102350000Y-132100000D01*
X101650000Y-132800000D02*
X100250000Y-132800000D01*
X99550000Y-132100000D02*
X99550000Y-131500000D01*
X99550000Y-131500000D02*
G75*
G02X100250000Y-130800000I700000J0D01*
G01*
X100250000Y-132800000D02*
G75*
G02X99550000Y-132100000I0J700000D01*
G01*
X102350000Y-132100000D02*
G75*
G02X101650000Y-132800000I-700000J0D01*
G01*
X101650000Y-130800000D02*
G75*
G02X102350000Y-131500000I0J-700000D01*
G01*
X100250000Y-136000000D02*
X101650000Y-136000000D01*
X102350000Y-136700000D02*
X102350000Y-137300000D01*
X101650000Y-138000000D02*
X100250000Y-138000000D01*
X99550000Y-137300000D02*
X99550000Y-136700000D01*
X99550000Y-136700000D02*
G75*
G02X100250000Y-136000000I700000J0D01*
G01*
X100250000Y-138000000D02*
G75*
G02X99550000Y-137300000I0J700000D01*
G01*
X102350000Y-137300000D02*
G75*
G02X101650000Y-138000000I-700000J0D01*
G01*
X101650000Y-136000000D02*
G75*
G02X102350000Y-136700000I0J-700000D01*
G01*
X100250000Y-128200000D02*
X101650000Y-128200000D01*
X102350000Y-128900000D02*
X102350000Y-129500000D01*
X101650000Y-130200000D02*
X100250000Y-130200000D01*
X99550000Y-129500000D02*
X99550000Y-128900000D01*
X99550000Y-128900000D02*
G75*
G02X100250000Y-128200000I700000J0D01*
G01*
X100250000Y-130200000D02*
G75*
G02X99550000Y-129500000I0J700000D01*
G01*
X102350000Y-129500000D02*
G75*
G02X101650000Y-130200000I-700000J0D01*
G01*
X101650000Y-128200000D02*
G75*
G02X102350000Y-128900000I0J-700000D01*
G01*
X113540000Y-157055000D02*
X116000000Y-157055000D01*
X113540000Y-155585000D02*
X113540000Y-157055000D01*
X116000000Y-155585000D02*
X113540000Y-155585000D01*
X120160000Y-153905000D02*
X117700000Y-153905000D01*
X120160000Y-155375000D02*
X120160000Y-153905000D01*
X117700000Y-155375000D02*
X120160000Y-155375000D01*
X114371267Y-137790000D02*
X114028733Y-137790000D01*
X114371267Y-138810000D02*
X114028733Y-138810000D01*
X120028733Y-137810000D02*
X120371267Y-137810000D01*
X120028733Y-136790000D02*
X120371267Y-136790000D01*
X107110000Y-137471267D02*
X107110000Y-137128733D01*
X106090000Y-137471267D02*
X106090000Y-137128733D01*
X115696250Y-144338750D02*
X115696250Y-145126250D01*
X115302500Y-144732500D02*
X116090000Y-144732500D01*
X116330000Y-148925563D02*
X117394437Y-149990000D01*
X116330000Y-144234437D02*
X117394437Y-143170000D01*
X116330000Y-144234437D02*
X116330000Y-145520000D01*
X116330000Y-148925563D02*
X116330000Y-147640000D01*
X117394437Y-149990000D02*
X123150000Y-149990000D01*
X117394437Y-143170000D02*
X123150000Y-143170000D01*
X123150000Y-143170000D02*
X123150000Y-145520000D01*
X123150000Y-149990000D02*
X123150000Y-147640000D01*
X105276250Y-144338750D02*
X105276250Y-145126250D01*
X104882500Y-144732500D02*
X105670000Y-144732500D01*
X105910000Y-148925563D02*
X106974437Y-149990000D01*
X105910000Y-144234437D02*
X106974437Y-143170000D01*
X105910000Y-144234437D02*
X105910000Y-145520000D01*
X105910000Y-148925563D02*
X105910000Y-147640000D01*
X106974437Y-149990000D02*
X112730000Y-149990000D01*
X106974437Y-143170000D02*
X112730000Y-143170000D01*
X112730000Y-143170000D02*
X112730000Y-145520000D01*
X112730000Y-149990000D02*
X112730000Y-147640000D01*
X114710000Y-125571267D02*
X114710000Y-125228733D01*
X113690000Y-125571267D02*
X113690000Y-125228733D01*
X108410000Y-125571267D02*
X108410000Y-125228733D01*
X107390000Y-125571267D02*
X107390000Y-125228733D01*
D12*
X125238095Y-124554380D02*
X125809523Y-124554380D01*
X125523809Y-125554380D02*
X125523809Y-124554380D01*
X126142857Y-125554380D02*
X126142857Y-124554380D01*
X126523809Y-124554380D01*
X126619047Y-124602000D01*
X126666666Y-124649619D01*
X126714285Y-124744857D01*
X126714285Y-124887714D01*
X126666666Y-124982952D01*
X126619047Y-125030571D01*
X126523809Y-125078190D01*
X126142857Y-125078190D01*
X127619047Y-124554380D02*
X127142857Y-124554380D01*
X127095238Y-125030571D01*
X127142857Y-124982952D01*
X127238095Y-124935333D01*
X127476190Y-124935333D01*
X127571428Y-124982952D01*
X127619047Y-125030571D01*
X127666666Y-125125809D01*
X127666666Y-125363904D01*
X127619047Y-125459142D01*
X127571428Y-125506761D01*
X127476190Y-125554380D01*
X127238095Y-125554380D01*
X127142857Y-125506761D01*
X127095238Y-125459142D01*
X129038095Y-139054380D02*
X129609523Y-139054380D01*
X129323809Y-140054380D02*
X129323809Y-139054380D01*
X129942857Y-140054380D02*
X129942857Y-139054380D01*
X130323809Y-139054380D01*
X130419047Y-139102000D01*
X130466666Y-139149619D01*
X130514285Y-139244857D01*
X130514285Y-139387714D01*
X130466666Y-139482952D01*
X130419047Y-139530571D01*
X130323809Y-139578190D01*
X129942857Y-139578190D01*
X130847619Y-139054380D02*
X131466666Y-139054380D01*
X131133333Y-139435333D01*
X131276190Y-139435333D01*
X131371428Y-139482952D01*
X131419047Y-139530571D01*
X131466666Y-139625809D01*
X131466666Y-139863904D01*
X131419047Y-139959142D01*
X131371428Y-140006761D01*
X131276190Y-140054380D01*
X130990476Y-140054380D01*
X130895238Y-140006761D01*
X130847619Y-139959142D01*
X107638095Y-129554380D02*
X108209523Y-129554380D01*
X107923809Y-130554380D02*
X107923809Y-129554380D01*
X108542857Y-130554380D02*
X108542857Y-129554380D01*
X108923809Y-129554380D01*
X109019047Y-129602000D01*
X109066666Y-129649619D01*
X109114285Y-129744857D01*
X109114285Y-129887714D01*
X109066666Y-129982952D01*
X109019047Y-130030571D01*
X108923809Y-130078190D01*
X108542857Y-130078190D01*
X109495238Y-129649619D02*
X109542857Y-129602000D01*
X109638095Y-129554380D01*
X109876190Y-129554380D01*
X109971428Y-129602000D01*
X110019047Y-129649619D01*
X110066666Y-129744857D01*
X110066666Y-129840095D01*
X110019047Y-129982952D01*
X109447619Y-130554380D01*
X110066666Y-130554380D01*
X121038095Y-121454380D02*
X121609523Y-121454380D01*
X121323809Y-122454380D02*
X121323809Y-121454380D01*
X121942857Y-122454380D02*
X121942857Y-121454380D01*
X122323809Y-121454380D01*
X122419047Y-121502000D01*
X122466666Y-121549619D01*
X122514285Y-121644857D01*
X122514285Y-121787714D01*
X122466666Y-121882952D01*
X122419047Y-121930571D01*
X122323809Y-121978190D01*
X121942857Y-121978190D01*
X123466666Y-122454380D02*
X122895238Y-122454380D01*
X123180952Y-122454380D02*
X123180952Y-121454380D01*
X123085714Y-121597238D01*
X122990476Y-121692476D01*
X122895238Y-121740095D01*
X116338095Y-127052380D02*
X116338095Y-127861904D01*
X116385714Y-127957142D01*
X116433333Y-128004761D01*
X116528571Y-128052380D01*
X116719047Y-128052380D01*
X116814285Y-128004761D01*
X116861904Y-127957142D01*
X116909523Y-127861904D01*
X116909523Y-127052380D01*
X117909523Y-128052380D02*
X117338095Y-128052380D01*
X117623809Y-128052380D02*
X117623809Y-127052380D01*
X117528571Y-127195238D01*
X117433333Y-127290476D01*
X117338095Y-127338095D01*
X99938095Y-139402380D02*
X100509523Y-139402380D01*
X100223809Y-140402380D02*
X100223809Y-139402380D01*
X100842857Y-140402380D02*
X100842857Y-139402380D01*
X101223809Y-139402380D01*
X101319047Y-139450000D01*
X101366666Y-139497619D01*
X101414285Y-139592857D01*
X101414285Y-139735714D01*
X101366666Y-139830952D01*
X101319047Y-139878571D01*
X101223809Y-139926190D01*
X100842857Y-139926190D01*
X102271428Y-139735714D02*
X102271428Y-140402380D01*
X102033333Y-139354761D02*
X101795238Y-140069047D01*
X102414285Y-140069047D01*
X119557142Y-134722380D02*
X119223809Y-134246190D01*
X118985714Y-134722380D02*
X118985714Y-133722380D01*
X119366666Y-133722380D01*
X119461904Y-133770000D01*
X119509523Y-133817619D01*
X119557142Y-133912857D01*
X119557142Y-134055714D01*
X119509523Y-134150952D01*
X119461904Y-134198571D01*
X119366666Y-134246190D01*
X118985714Y-134246190D01*
X120509523Y-134722380D02*
X119938095Y-134722380D01*
X120223809Y-134722380D02*
X120223809Y-133722380D01*
X120128571Y-133865238D01*
X120033333Y-133960476D01*
X119938095Y-134008095D01*
X121128571Y-133722380D02*
X121223809Y-133722380D01*
X121319047Y-133770000D01*
X121366666Y-133817619D01*
X121414285Y-133912857D01*
X121461904Y-134103333D01*
X121461904Y-134341428D01*
X121414285Y-134531904D01*
X121366666Y-134627142D01*
X121319047Y-134674761D01*
X121223809Y-134722380D01*
X121128571Y-134722380D01*
X121033333Y-134674761D01*
X120985714Y-134627142D01*
X120938095Y-134531904D01*
X120890476Y-134341428D01*
X120890476Y-134103333D01*
X120938095Y-133912857D01*
X120985714Y-133817619D01*
X121033333Y-133770000D01*
X121128571Y-133722380D01*
X123233333Y-140452380D02*
X122900000Y-139976190D01*
X122661904Y-140452380D02*
X122661904Y-139452380D01*
X123042857Y-139452380D01*
X123138095Y-139500000D01*
X123185714Y-139547619D01*
X123233333Y-139642857D01*
X123233333Y-139785714D01*
X123185714Y-139880952D01*
X123138095Y-139928571D01*
X123042857Y-139976190D01*
X122661904Y-139976190D01*
X123709523Y-140452380D02*
X123900000Y-140452380D01*
X123995238Y-140404761D01*
X124042857Y-140357142D01*
X124138095Y-140214285D01*
X124185714Y-140023809D01*
X124185714Y-139642857D01*
X124138095Y-139547619D01*
X124090476Y-139500000D01*
X123995238Y-139452380D01*
X123804761Y-139452380D01*
X123709523Y-139500000D01*
X123661904Y-139547619D01*
X123614285Y-139642857D01*
X123614285Y-139880952D01*
X123661904Y-139976190D01*
X123709523Y-140023809D01*
X123804761Y-140071428D01*
X123995238Y-140071428D01*
X124090476Y-140023809D01*
X124138095Y-139976190D01*
X124185714Y-139880952D01*
X110182380Y-137466666D02*
X109706190Y-137800000D01*
X110182380Y-138038095D02*
X109182380Y-138038095D01*
X109182380Y-137657142D01*
X109230000Y-137561904D01*
X109277619Y-137514285D01*
X109372857Y-137466666D01*
X109515714Y-137466666D01*
X109610952Y-137514285D01*
X109658571Y-137561904D01*
X109706190Y-137657142D01*
X109706190Y-138038095D01*
X109610952Y-136895238D02*
X109563333Y-136990476D01*
X109515714Y-137038095D01*
X109420476Y-137085714D01*
X109372857Y-137085714D01*
X109277619Y-137038095D01*
X109230000Y-136990476D01*
X109182380Y-136895238D01*
X109182380Y-136704761D01*
X109230000Y-136609523D01*
X109277619Y-136561904D01*
X109372857Y-136514285D01*
X109420476Y-136514285D01*
X109515714Y-136561904D01*
X109563333Y-136609523D01*
X109610952Y-136704761D01*
X109610952Y-136895238D01*
X109658571Y-136990476D01*
X109706190Y-137038095D01*
X109801428Y-137085714D01*
X109991904Y-137085714D01*
X110087142Y-137038095D01*
X110134761Y-136990476D01*
X110182380Y-136895238D01*
X110182380Y-136704761D01*
X110134761Y-136609523D01*
X110087142Y-136561904D01*
X109991904Y-136514285D01*
X109801428Y-136514285D01*
X109706190Y-136561904D01*
X109658571Y-136609523D01*
X109610952Y-136704761D01*
X121033333Y-156852380D02*
X120700000Y-156376190D01*
X120461904Y-156852380D02*
X120461904Y-155852380D01*
X120842857Y-155852380D01*
X120938095Y-155900000D01*
X120985714Y-155947619D01*
X121033333Y-156042857D01*
X121033333Y-156185714D01*
X120985714Y-156280952D01*
X120938095Y-156328571D01*
X120842857Y-156376190D01*
X120461904Y-156376190D01*
X121366666Y-155852380D02*
X122033333Y-155852380D01*
X121604761Y-156852380D01*
X112333333Y-155152380D02*
X112000000Y-154676190D01*
X111761904Y-155152380D02*
X111761904Y-154152380D01*
X112142857Y-154152380D01*
X112238095Y-154200000D01*
X112285714Y-154247619D01*
X112333333Y-154342857D01*
X112333333Y-154485714D01*
X112285714Y-154580952D01*
X112238095Y-154628571D01*
X112142857Y-154676190D01*
X111761904Y-154676190D01*
X113190476Y-154152380D02*
X113000000Y-154152380D01*
X112904761Y-154200000D01*
X112857142Y-154247619D01*
X112761904Y-154390476D01*
X112714285Y-154580952D01*
X112714285Y-154961904D01*
X112761904Y-155057142D01*
X112809523Y-155104761D01*
X112904761Y-155152380D01*
X113095238Y-155152380D01*
X113190476Y-155104761D01*
X113238095Y-155057142D01*
X113285714Y-154961904D01*
X113285714Y-154723809D01*
X113238095Y-154628571D01*
X113190476Y-154580952D01*
X113095238Y-154533333D01*
X112904761Y-154533333D01*
X112809523Y-154580952D01*
X112761904Y-154628571D01*
X112714285Y-154723809D01*
X105622380Y-133966666D02*
X105146190Y-134300000D01*
X105622380Y-134538095D02*
X104622380Y-134538095D01*
X104622380Y-134157142D01*
X104670000Y-134061904D01*
X104717619Y-134014285D01*
X104812857Y-133966666D01*
X104955714Y-133966666D01*
X105050952Y-134014285D01*
X105098571Y-134061904D01*
X105146190Y-134157142D01*
X105146190Y-134538095D01*
X104955714Y-133109523D02*
X105622380Y-133109523D01*
X104574761Y-133347619D02*
X105289047Y-133585714D01*
X105289047Y-132966666D01*
X105622380Y-130466666D02*
X105146190Y-130800000D01*
X105622380Y-131038095D02*
X104622380Y-131038095D01*
X104622380Y-130657142D01*
X104670000Y-130561904D01*
X104717619Y-130514285D01*
X104812857Y-130466666D01*
X104955714Y-130466666D01*
X105050952Y-130514285D01*
X105098571Y-130561904D01*
X105146190Y-130657142D01*
X105146190Y-131038095D01*
X104622380Y-130133333D02*
X104622380Y-129514285D01*
X105003333Y-129847619D01*
X105003333Y-129704761D01*
X105050952Y-129609523D01*
X105098571Y-129561904D01*
X105193809Y-129514285D01*
X105431904Y-129514285D01*
X105527142Y-129561904D01*
X105574761Y-129609523D01*
X105622380Y-129704761D01*
X105622380Y-129990476D01*
X105574761Y-130085714D01*
X105527142Y-130133333D01*
X110122380Y-125566666D02*
X109646190Y-125900000D01*
X110122380Y-126138095D02*
X109122380Y-126138095D01*
X109122380Y-125757142D01*
X109170000Y-125661904D01*
X109217619Y-125614285D01*
X109312857Y-125566666D01*
X109455714Y-125566666D01*
X109550952Y-125614285D01*
X109598571Y-125661904D01*
X109646190Y-125757142D01*
X109646190Y-126138095D01*
X109217619Y-125185714D02*
X109170000Y-125138095D01*
X109122380Y-125042857D01*
X109122380Y-124804761D01*
X109170000Y-124709523D01*
X109217619Y-124661904D01*
X109312857Y-124614285D01*
X109408095Y-124614285D01*
X109550952Y-124661904D01*
X110122380Y-125233333D01*
X110122380Y-124614285D01*
X116252380Y-123166666D02*
X115776190Y-123500000D01*
X116252380Y-123738095D02*
X115252380Y-123738095D01*
X115252380Y-123357142D01*
X115300000Y-123261904D01*
X115347619Y-123214285D01*
X115442857Y-123166666D01*
X115585714Y-123166666D01*
X115680952Y-123214285D01*
X115728571Y-123261904D01*
X115776190Y-123357142D01*
X115776190Y-123738095D01*
X116252380Y-122214285D02*
X116252380Y-122785714D01*
X116252380Y-122500000D02*
X115252380Y-122500000D01*
X115395238Y-122595238D01*
X115490476Y-122690476D01*
X115538095Y-122785714D01*
X123366666Y-130552380D02*
X123366666Y-131266666D01*
X123319047Y-131409523D01*
X123223809Y-131504761D01*
X123080952Y-131552380D01*
X122985714Y-131552380D01*
X123842857Y-131552380D02*
X123842857Y-130552380D01*
X124223809Y-130552380D01*
X124319047Y-130600000D01*
X124366666Y-130647619D01*
X124414285Y-130742857D01*
X124414285Y-130885714D01*
X124366666Y-130980952D01*
X124319047Y-131028571D01*
X124223809Y-131076190D01*
X123842857Y-131076190D01*
X124747619Y-130552380D02*
X125414285Y-130552380D01*
X124985714Y-131552380D01*
X127052380Y-138433333D02*
X127766666Y-138433333D01*
X127909523Y-138480952D01*
X128004761Y-138576190D01*
X128052380Y-138719047D01*
X128052380Y-138814285D01*
X128052380Y-137957142D02*
X127052380Y-137957142D01*
X127052380Y-137576190D01*
X127100000Y-137480952D01*
X127147619Y-137433333D01*
X127242857Y-137385714D01*
X127385714Y-137385714D01*
X127480952Y-137433333D01*
X127528571Y-137480952D01*
X127576190Y-137576190D01*
X127576190Y-137957142D01*
X127052380Y-136528571D02*
X127052380Y-136719047D01*
X127100000Y-136814285D01*
X127147619Y-136861904D01*
X127290476Y-136957142D01*
X127480952Y-137004761D01*
X127861904Y-137004761D01*
X127957142Y-136957142D01*
X128004761Y-136909523D01*
X128052380Y-136814285D01*
X128052380Y-136623809D01*
X128004761Y-136528571D01*
X127957142Y-136480952D01*
X127861904Y-136433333D01*
X127623809Y-136433333D01*
X127528571Y-136480952D01*
X127480952Y-136528571D01*
X127433333Y-136623809D01*
X127433333Y-136814285D01*
X127480952Y-136909523D01*
X127528571Y-136957142D01*
X127623809Y-137004761D01*
X126252380Y-134714285D02*
X126252380Y-135285714D01*
X126252380Y-135000000D02*
X125252380Y-135000000D01*
X125395238Y-135095238D01*
X125490476Y-135190476D01*
X125538095Y-135285714D01*
X125252380Y-140533333D02*
X125252380Y-139914285D01*
X125633333Y-140247619D01*
X125633333Y-140104761D01*
X125680952Y-140009523D01*
X125728571Y-139961904D01*
X125823809Y-139914285D01*
X126061904Y-139914285D01*
X126157142Y-139961904D01*
X126204761Y-140009523D01*
X126252380Y-140104761D01*
X126252380Y-140390476D01*
X126204761Y-140485714D01*
X126157142Y-140533333D01*
X120352380Y-129533333D02*
X121066666Y-129533333D01*
X121209523Y-129580952D01*
X121304761Y-129676190D01*
X121352380Y-129819047D01*
X121352380Y-129914285D01*
X121352380Y-129057142D02*
X120352380Y-129057142D01*
X120352380Y-128676190D01*
X120400000Y-128580952D01*
X120447619Y-128533333D01*
X120542857Y-128485714D01*
X120685714Y-128485714D01*
X120780952Y-128533333D01*
X120828571Y-128580952D01*
X120876190Y-128676190D01*
X120876190Y-129057142D01*
X120352380Y-127580952D02*
X120352380Y-128057142D01*
X120828571Y-128104761D01*
X120780952Y-128057142D01*
X120733333Y-127961904D01*
X120733333Y-127723809D01*
X120780952Y-127628571D01*
X120828571Y-127580952D01*
X120923809Y-127533333D01*
X121161904Y-127533333D01*
X121257142Y-127580952D01*
X121304761Y-127628571D01*
X121352380Y-127723809D01*
X121352380Y-127961904D01*
X121304761Y-128057142D01*
X121257142Y-128104761D01*
X97216666Y-134052380D02*
X97216666Y-134766666D01*
X97169047Y-134909523D01*
X97073809Y-135004761D01*
X96930952Y-135052380D01*
X96835714Y-135052380D01*
X97692857Y-135052380D02*
X97692857Y-134052380D01*
X98073809Y-134052380D01*
X98169047Y-134100000D01*
X98216666Y-134147619D01*
X98264285Y-134242857D01*
X98264285Y-134385714D01*
X98216666Y-134480952D01*
X98169047Y-134528571D01*
X98073809Y-134576190D01*
X97692857Y-134576190D01*
X99121428Y-134385714D02*
X99121428Y-135052380D01*
X98883333Y-134004761D02*
X98645238Y-134719047D01*
X99264285Y-134719047D01*
X97216666Y-131352380D02*
X97216666Y-132066666D01*
X97169047Y-132209523D01*
X97073809Y-132304761D01*
X96930952Y-132352380D01*
X96835714Y-132352380D01*
X97692857Y-132352380D02*
X97692857Y-131352380D01*
X98073809Y-131352380D01*
X98169047Y-131400000D01*
X98216666Y-131447619D01*
X98264285Y-131542857D01*
X98264285Y-131685714D01*
X98216666Y-131780952D01*
X98169047Y-131828571D01*
X98073809Y-131876190D01*
X97692857Y-131876190D01*
X98597619Y-131352380D02*
X99216666Y-131352380D01*
X98883333Y-131733333D01*
X99026190Y-131733333D01*
X99121428Y-131780952D01*
X99169047Y-131828571D01*
X99216666Y-131923809D01*
X99216666Y-132161904D01*
X99169047Y-132257142D01*
X99121428Y-132304761D01*
X99026190Y-132352380D01*
X98740476Y-132352380D01*
X98645238Y-132304761D01*
X98597619Y-132257142D01*
X97216666Y-136552380D02*
X97216666Y-137266666D01*
X97169047Y-137409523D01*
X97073809Y-137504761D01*
X96930952Y-137552380D01*
X96835714Y-137552380D01*
X97692857Y-137552380D02*
X97692857Y-136552380D01*
X98073809Y-136552380D01*
X98169047Y-136600000D01*
X98216666Y-136647619D01*
X98264285Y-136742857D01*
X98264285Y-136885714D01*
X98216666Y-136980952D01*
X98169047Y-137028571D01*
X98073809Y-137076190D01*
X97692857Y-137076190D01*
X98645238Y-136647619D02*
X98692857Y-136600000D01*
X98788095Y-136552380D01*
X99026190Y-136552380D01*
X99121428Y-136600000D01*
X99169047Y-136647619D01*
X99216666Y-136742857D01*
X99216666Y-136838095D01*
X99169047Y-136980952D01*
X98597619Y-137552380D01*
X99216666Y-137552380D01*
X97316666Y-128652380D02*
X97316666Y-129366666D01*
X97269047Y-129509523D01*
X97173809Y-129604761D01*
X97030952Y-129652380D01*
X96935714Y-129652380D01*
X97792857Y-129652380D02*
X97792857Y-128652380D01*
X98173809Y-128652380D01*
X98269047Y-128700000D01*
X98316666Y-128747619D01*
X98364285Y-128842857D01*
X98364285Y-128985714D01*
X98316666Y-129080952D01*
X98269047Y-129128571D01*
X98173809Y-129176190D01*
X97792857Y-129176190D01*
X99316666Y-129652380D02*
X98745238Y-129652380D01*
X99030952Y-129652380D02*
X99030952Y-128652380D01*
X98935714Y-128795238D01*
X98840476Y-128890476D01*
X98745238Y-128938095D01*
X128866666Y-128452380D02*
X128866666Y-129166666D01*
X128819047Y-129309523D01*
X128723809Y-129404761D01*
X128580952Y-129452380D01*
X128485714Y-129452380D01*
X129247619Y-128452380D02*
X129866666Y-128452380D01*
X129533333Y-128833333D01*
X129676190Y-128833333D01*
X129771428Y-128880952D01*
X129819047Y-128928571D01*
X129866666Y-129023809D01*
X129866666Y-129261904D01*
X129819047Y-129357142D01*
X129771428Y-129404761D01*
X129676190Y-129452380D01*
X129390476Y-129452380D01*
X129295238Y-129404761D01*
X129247619Y-129357142D01*
X111781904Y-156752380D02*
X111781904Y-155752380D01*
X112020000Y-155752380D01*
X112162857Y-155800000D01*
X112258095Y-155895238D01*
X112305714Y-155990476D01*
X112353333Y-156180952D01*
X112353333Y-156323809D01*
X112305714Y-156514285D01*
X112258095Y-156609523D01*
X112162857Y-156704761D01*
X112020000Y-156752380D01*
X111781904Y-156752380D01*
X112734285Y-155847619D02*
X112781904Y-155800000D01*
X112877142Y-155752380D01*
X113115238Y-155752380D01*
X113210476Y-155800000D01*
X113258095Y-155847619D01*
X113305714Y-155942857D01*
X113305714Y-156038095D01*
X113258095Y-156180952D01*
X112686666Y-156752380D01*
X113305714Y-156752380D01*
X120461904Y-155152380D02*
X120461904Y-154152380D01*
X120700000Y-154152380D01*
X120842857Y-154200000D01*
X120938095Y-154295238D01*
X120985714Y-154390476D01*
X121033333Y-154580952D01*
X121033333Y-154723809D01*
X120985714Y-154914285D01*
X120938095Y-155009523D01*
X120842857Y-155104761D01*
X120700000Y-155152380D01*
X120461904Y-155152380D01*
X121985714Y-155152380D02*
X121414285Y-155152380D01*
X121700000Y-155152380D02*
X121700000Y-154152380D01*
X121604761Y-154295238D01*
X121509523Y-154390476D01*
X121414285Y-154438095D01*
X111433333Y-139657142D02*
X111385714Y-139704761D01*
X111242857Y-139752380D01*
X111147619Y-139752380D01*
X111004761Y-139704761D01*
X110909523Y-139609523D01*
X110861904Y-139514285D01*
X110814285Y-139323809D01*
X110814285Y-139180952D01*
X110861904Y-138990476D01*
X110909523Y-138895238D01*
X111004761Y-138800000D01*
X111147619Y-138752380D01*
X111242857Y-138752380D01*
X111385714Y-138800000D01*
X111433333Y-138847619D01*
X111766666Y-138752380D02*
X112433333Y-138752380D01*
X112004761Y-139752380D01*
X120033333Y-139057142D02*
X119985714Y-139104761D01*
X119842857Y-139152380D01*
X119747619Y-139152380D01*
X119604761Y-139104761D01*
X119509523Y-139009523D01*
X119461904Y-138914285D01*
X119414285Y-138723809D01*
X119414285Y-138580952D01*
X119461904Y-138390476D01*
X119509523Y-138295238D01*
X119604761Y-138200000D01*
X119747619Y-138152380D01*
X119842857Y-138152380D01*
X119985714Y-138200000D01*
X120033333Y-138247619D01*
X120890476Y-138152380D02*
X120700000Y-138152380D01*
X120604761Y-138200000D01*
X120557142Y-138247619D01*
X120461904Y-138390476D01*
X120414285Y-138580952D01*
X120414285Y-138961904D01*
X120461904Y-139057142D01*
X120509523Y-139104761D01*
X120604761Y-139152380D01*
X120795238Y-139152380D01*
X120890476Y-139104761D01*
X120938095Y-139057142D01*
X120985714Y-138961904D01*
X120985714Y-138723809D01*
X120938095Y-138628571D01*
X120890476Y-138580952D01*
X120795238Y-138533333D01*
X120604761Y-138533333D01*
X120509523Y-138580952D01*
X120461904Y-138628571D01*
X120414285Y-138723809D01*
X105527142Y-137466666D02*
X105574761Y-137514285D01*
X105622380Y-137657142D01*
X105622380Y-137752380D01*
X105574761Y-137895238D01*
X105479523Y-137990476D01*
X105384285Y-138038095D01*
X105193809Y-138085714D01*
X105050952Y-138085714D01*
X104860476Y-138038095D01*
X104765238Y-137990476D01*
X104670000Y-137895238D01*
X104622380Y-137752380D01*
X104622380Y-137657142D01*
X104670000Y-137514285D01*
X104717619Y-137466666D01*
X104622380Y-136561904D02*
X104622380Y-137038095D01*
X105098571Y-137085714D01*
X105050952Y-137038095D01*
X105003333Y-136942857D01*
X105003333Y-136704761D01*
X105050952Y-136609523D01*
X105098571Y-136561904D01*
X105193809Y-136514285D01*
X105431904Y-136514285D01*
X105527142Y-136561904D01*
X105574761Y-136609523D01*
X105622380Y-136704761D01*
X105622380Y-136942857D01*
X105574761Y-137038095D01*
X105527142Y-137085714D01*
X125533333Y-147057142D02*
X125485714Y-147104761D01*
X125342857Y-147152380D01*
X125247619Y-147152380D01*
X125104761Y-147104761D01*
X125009523Y-147009523D01*
X124961904Y-146914285D01*
X124914285Y-146723809D01*
X124914285Y-146580952D01*
X124961904Y-146390476D01*
X125009523Y-146295238D01*
X125104761Y-146200000D01*
X125247619Y-146152380D01*
X125342857Y-146152380D01*
X125485714Y-146200000D01*
X125533333Y-146247619D01*
X126390476Y-146485714D02*
X126390476Y-147152380D01*
X126152380Y-146104761D02*
X125914285Y-146819047D01*
X126533333Y-146819047D01*
X103133333Y-147057142D02*
X103085714Y-147104761D01*
X102942857Y-147152380D01*
X102847619Y-147152380D01*
X102704761Y-147104761D01*
X102609523Y-147009523D01*
X102561904Y-146914285D01*
X102514285Y-146723809D01*
X102514285Y-146580952D01*
X102561904Y-146390476D01*
X102609523Y-146295238D01*
X102704761Y-146200000D01*
X102847619Y-146152380D01*
X102942857Y-146152380D01*
X103085714Y-146200000D01*
X103133333Y-146247619D01*
X103466666Y-146152380D02*
X104085714Y-146152380D01*
X103752380Y-146533333D01*
X103895238Y-146533333D01*
X103990476Y-146580952D01*
X104038095Y-146628571D01*
X104085714Y-146723809D01*
X104085714Y-146961904D01*
X104038095Y-147057142D01*
X103990476Y-147104761D01*
X103895238Y-147152380D01*
X103609523Y-147152380D01*
X103514285Y-147104761D01*
X103466666Y-147057142D01*
X113127142Y-125566666D02*
X113174761Y-125614285D01*
X113222380Y-125757142D01*
X113222380Y-125852380D01*
X113174761Y-125995238D01*
X113079523Y-126090476D01*
X112984285Y-126138095D01*
X112793809Y-126185714D01*
X112650952Y-126185714D01*
X112460476Y-126138095D01*
X112365238Y-126090476D01*
X112270000Y-125995238D01*
X112222380Y-125852380D01*
X112222380Y-125757142D01*
X112270000Y-125614285D01*
X112317619Y-125566666D01*
X112317619Y-125185714D02*
X112270000Y-125138095D01*
X112222380Y-125042857D01*
X112222380Y-124804761D01*
X112270000Y-124709523D01*
X112317619Y-124661904D01*
X112412857Y-124614285D01*
X112508095Y-124614285D01*
X112650952Y-124661904D01*
X113222380Y-125233333D01*
X113222380Y-124614285D01*
X108357142Y-122866666D02*
X108404761Y-122914285D01*
X108452380Y-123057142D01*
X108452380Y-123152380D01*
X108404761Y-123295238D01*
X108309523Y-123390476D01*
X108214285Y-123438095D01*
X108023809Y-123485714D01*
X107880952Y-123485714D01*
X107690476Y-123438095D01*
X107595238Y-123390476D01*
X107500000Y-123295238D01*
X107452380Y-123152380D01*
X107452380Y-123057142D01*
X107500000Y-122914285D01*
X107547619Y-122866666D01*
X108452380Y-121914285D02*
X108452380Y-122485714D01*
X108452380Y-122200000D02*
X107452380Y-122200000D01*
X107595238Y-122295238D01*
X107690476Y-122390476D01*
X107738095Y-122485714D01*
M02*
